<svg width="20" height="20" viewBox="0 0 20 20" fill="none" xmlns="http://www.w3.org/2000/svg">
<path d="M10 0.858154C10.6312 0.858154 11.1429 1.36983 11.1429 2.00101V8.85815H18C18.6312 8.85815 19.1429 9.36983 19.1429 10.001C19.1429 10.6322 18.6312 11.1439 18 11.1439H11.1429V18.001C11.1429 18.6322 10.6312 19.1439 10 19.1439C9.36885 19.1439 8.85718 18.6322 8.85718 18.001V11.1439H2.00003C1.36885 11.1439 0.857178 10.6322 0.857178 10.001C0.857178 9.36983 1.36885 8.85815 2.00003 8.85815H8.85718V2.00101C8.85718 1.36983 9.36885 0.858154 10 0.858154Z" fill="black"/>
</svg>
