<svg width="246" height="53" viewBox="0 0 246 53" fill="none" xmlns="http://www.w3.org/2000/svg">
<path d="M0 52.3591V0.448607H3.63216L14.4815 34.9274V0.448607H18.9155V52.3591H15.5192L4.52841 16.919V52.3591H0Z" fill="#111111"/>
<path d="M24.9214 52.3591V0.448607H39.733V5.83192H30.2517V23.0073H37.9405V28.1342H30.2517V47.1681H39.8274V52.3591H24.9214Z" fill="#111111"/>
<path d="M53.895 52.9359C51.3163 52.9359 49.2565 52.2523 47.7156 50.8851C46.1747 49.5179 45.074 47.574 44.4136 45.0532C43.7532 42.4897 43.423 39.499 43.423 36.081V16.4063C43.423 12.9883 43.7532 10.0617 44.4136 7.62636C45.1055 5.14833 46.2061 3.26844 47.7156 1.9867C49.2565 0.662233 51.3163 0 53.895 0C56.4737 0 58.5177 0.662233 60.0272 1.9867C61.5367 3.31116 62.6216 5.19105 63.282 7.62636C63.9738 10.0617 64.3198 12.9883 64.3198 16.4063V36.1451C64.3198 39.5204 63.9738 42.4684 63.282 44.9891C62.6216 47.5099 61.5367 49.4752 60.0272 50.8851C58.5177 52.2523 56.4737 52.9359 53.895 52.9359ZM53.895 47.2322C55.3101 47.2322 56.3793 46.8476 57.1026 46.0786C57.8259 45.2668 58.3133 44.156 58.5649 42.7461C58.8165 41.2934 58.9423 39.6058 58.9423 37.6832V14.9323C58.9423 13.0097 58.8165 11.3648 58.5649 9.99758C58.3133 8.58767 57.8259 7.51955 57.1026 6.79323C56.3793 6.02418 55.3101 5.63966 53.895 5.63966C52.4799 5.63966 51.3949 6.02418 50.6402 6.79323C49.9169 7.51955 49.4295 8.58767 49.1779 9.99758C48.9263 11.3648 48.8005 13.0097 48.8005 14.9323V37.6832C48.8005 39.6058 48.9263 41.2934 49.1779 42.7461C49.4295 44.156 49.9169 45.2668 50.6402 46.0786C51.3949 46.8476 52.4799 47.2322 53.895 47.2322Z" fill="#111111"/>
<path d="M69.5587 52.3591V0.448607H73.1908L84.0401 34.9274V0.448607H88.4742V52.3591H85.0779L74.0871 16.919V52.3591H69.5587Z" fill="#111111"/>
<path d="M114.363 53C111.973 53 110.055 52.3164 108.608 50.9492C107.193 49.5393 106.156 47.5099 105.495 44.8609C104.866 42.212 104.552 39.029 104.552 35.312V17.9444C104.552 14.1419 104.835 10.9162 105.401 8.26723C105.998 5.57557 107.036 3.52479 108.514 2.11487C110.024 0.704957 112.115 0 114.788 0C117.178 0 119.096 0.555422 120.543 1.66627C122.021 2.73438 123.09 4.40064 123.75 6.66505C124.411 8.88674 124.741 11.7066 124.741 15.1245V17.0472H119.741V15.445C119.741 13.1806 119.631 11.3434 119.411 9.93349C119.19 8.48085 118.734 7.41274 118.043 6.72914C117.382 6.00282 116.329 5.63966 114.882 5.63966C113.31 5.63966 112.162 6.131 111.439 7.11366C110.747 8.09633 110.307 9.44216 110.118 11.1512C109.961 12.8174 109.882 14.7187 109.882 16.8549V36.081C109.882 38.559 110.008 40.6312 110.259 42.2975C110.542 43.9637 111.061 45.2027 111.816 46.0145C112.571 46.8263 113.64 47.2322 115.024 47.2322C116.407 47.2322 117.477 46.7836 118.231 45.8863C118.986 44.9891 119.505 43.6647 119.788 41.9129C120.071 40.1612 120.213 37.9823 120.213 35.3761V31.7872H115.354V26.6602H125.024V52.3591H121.675L121.156 46.399C120.653 48.3216 119.867 49.9025 118.797 51.1415C117.728 52.3805 116.25 53 114.363 53Z" fill="#111111"/>
<path d="M130.503 52.3591V0.448607H145.315V5.83192H135.833V23.0073H143.522V28.1342H135.833V47.1681H145.409V52.3591H130.503Z" fill="#111111"/>
<path d="M149.712 52.3591V0.448607H153.345L164.194 34.9274V0.448607H168.628V52.3591H165.232L154.241 16.919V52.3591H149.712Z" fill="#111111"/>
<path d="M174.634 52.3591V0.448607H189.445V5.83192H179.964V23.0073H187.653V28.1342H179.964V47.1681H189.54V52.3591H174.634Z" fill="#111111"/>
<path d="M202.853 52.9359C200.651 52.9359 198.812 52.295 197.334 51.0133C195.887 49.7316 194.786 47.9585 194.032 45.6941C193.277 43.4297 192.837 40.8021 192.711 37.8114L197.428 36.081C197.522 37.9182 197.727 39.6913 198.041 41.4002C198.387 43.1092 198.937 44.5191 199.692 45.63C200.447 46.6981 201.5 47.2322 202.853 47.2322C204.236 47.2322 205.274 46.7195 205.966 45.6941C206.689 44.626 207.051 43.1092 207.051 41.1439C207.051 38.794 206.658 36.9142 205.872 35.5042C205.085 34.0516 204.095 32.5989 202.9 31.1463L196.485 23.4559C195.227 21.9605 194.299 20.337 193.701 18.5852C193.104 16.7908 192.805 14.5905 192.805 11.9843C192.805 8.18178 193.607 5.23378 195.211 3.14027C196.815 1.04676 199 0 201.768 0C203.277 0 204.598 0.277711 205.73 0.833133C206.894 1.34583 207.853 2.1576 208.607 3.26844C209.394 4.37928 210.007 5.7892 210.447 7.49818C210.919 9.16445 211.233 11.1298 211.391 13.3942L206.862 15.0605C206.768 13.3515 206.579 11.792 206.296 10.3821C206.013 8.92946 205.51 7.7759 204.787 6.9214C204.095 6.02418 203.089 5.57558 201.768 5.57558C200.447 5.57558 199.409 6.06691 198.654 7.04958C197.931 7.98952 197.569 9.39943 197.569 11.2793C197.569 12.8601 197.758 14.1632 198.136 15.1886C198.544 16.214 199.189 17.2608 200.07 18.3289L206.532 26.0193C207.979 27.7283 209.252 29.7791 210.353 32.1717C211.453 34.5216 212.004 37.32 212.004 40.5671C212.004 43.1306 211.611 45.3523 210.825 47.2322C210.038 49.0693 208.953 50.4792 207.57 51.4619C206.217 52.4446 204.645 52.9359 202.853 52.9359Z" fill="#111111"/>
<path d="M216.422 52.3591V0.448607H221.658V52.3591H216.422Z" fill="#111111"/>
<path d="M236.849 52.9359C234.648 52.9359 232.808 52.295 231.33 51.0133C229.883 49.7316 228.783 47.9585 228.028 45.6941C227.273 43.4297 226.833 40.8021 226.707 37.8114L231.424 36.081C231.519 37.9182 231.723 39.6913 232.037 41.4002C232.383 43.1092 232.934 44.5191 233.688 45.63C234.443 46.6981 235.497 47.2322 236.849 47.2322C238.233 47.2322 239.27 46.7195 239.962 45.6941C240.685 44.626 241.047 43.1092 241.047 41.1439C241.047 38.794 240.654 36.9142 239.868 35.5042C239.082 34.0516 238.091 32.5989 236.896 31.1463L230.481 23.4559C229.223 21.9605 228.295 20.337 227.698 18.5852C227.1 16.7908 226.801 14.5905 226.801 11.9843C226.801 8.18178 227.603 5.23378 229.207 3.14027C230.811 1.04676 232.997 0 235.764 0C237.273 0 238.594 0.277711 239.726 0.833133C240.89 1.34583 241.849 2.1576 242.604 3.26844C243.39 4.37928 244.003 5.7892 244.443 7.49818C244.915 9.16445 245.23 11.1298 245.387 13.3942L240.858 15.0605C240.764 13.3515 240.575 11.792 240.292 10.3821C240.009 8.92946 239.506 7.7759 238.783 6.9214C238.091 6.02418 237.085 5.57558 235.764 5.57558C234.443 5.57558 233.405 6.06691 232.651 7.04958C231.927 7.98952 231.566 9.39943 231.566 11.2793C231.566 12.8601 231.754 14.1632 232.132 15.1886C232.541 16.214 233.185 17.2608 234.066 18.3289L240.528 26.0193C241.975 27.7283 243.248 29.7791 244.349 32.1717C245.45 34.5216 246 37.32 246 40.5671C246 43.1306 245.607 45.3523 244.821 47.2322C244.035 49.0693 242.95 50.4792 241.566 51.4619C240.214 52.4446 238.641 52.9359 236.849 52.9359Z" fill="#111111"/>
</svg>
