<svg width="756" height="72" viewBox="0 0 756 72" fill="none" xmlns="http://www.w3.org/2000/svg">
<path d="M57.9414 42.3867H17.8535V29.5938H57.9414V42.3867ZM63.6543 71H17.8535C16.0957 71 14.1751 70.6908 12.0918 70.0723C10.0085 69.4538 8.07161 68.4447 6.28125 67.0449C4.52344 65.6126 3.04232 63.7734 1.83789 61.5273C0.666016 59.2487 0.0800781 56.4655 0.0800781 53.1777V7.37695C0.0800781 6.49805 0.242839 5.66797 0.568359 4.88672C0.89388 4.10547 1.33333 3.42188 1.88672 2.83594C2.47266 2.25 3.15625 1.79427 3.9375 1.46875C4.71875 1.14323 5.5651 0.980469 6.47656 0.980469H63.6543V13.6758H12.7754V53.1777C12.7754 54.8379 13.2148 56.1074 14.0938 56.9863C14.9727 57.8652 16.2585 58.3047 17.9512 58.3047H63.6543V71Z" fill="#111111"/>
<path d="M146.027 0.980469L112.873 68.5098C112.352 69.5514 111.571 70.3815 110.529 71C109.52 71.651 108.397 71.9766 107.16 71.9766C105.956 71.9766 104.833 71.651 103.791 71C102.782 70.3815 102.001 69.5514 101.447 68.5098L68.3418 0.980469H82.5508L107.16 51.4199L131.867 0.980469H146.027Z" fill="#111111"/>
<path d="M220.051 71H207.355V53.8125H162.727V71H150.031V35.9902C150.031 30.8796 150.91 26.1758 152.668 21.8789C154.426 17.582 156.867 13.8874 159.992 10.7949C163.117 7.70247 166.812 5.29362 171.076 3.56836C175.34 1.8431 179.995 0.980469 185.041 0.980469H213.654C214.533 0.980469 215.363 1.14323 216.145 1.46875C216.926 1.79427 217.609 2.25 218.195 2.83594C218.781 3.42188 219.237 4.10547 219.562 4.88672C219.888 5.66797 220.051 6.49805 220.051 7.37695V71ZM162.727 41.1172H207.355V13.6758H185.041C184.65 13.6758 183.82 13.7409 182.551 13.8711C181.314 13.9688 179.865 14.2454 178.205 14.7012C176.577 15.1569 174.852 15.8568 173.029 16.8008C171.206 17.7448 169.53 19.0469 168 20.707C166.47 22.3672 165.201 24.4505 164.191 26.957C163.215 29.431 162.727 32.4421 162.727 35.9902V41.1172Z" fill="#111111"/>
<path d="M244.025 64.6035C244.025 65.4824 243.846 66.3125 243.488 67.0938C243.163 67.8424 242.707 68.5098 242.121 69.0957C241.568 69.6491 240.9 70.0885 240.119 70.4141C239.37 70.7396 238.573 70.9023 237.727 70.9023C236.848 70.9023 236.018 70.7396 235.236 70.4141C234.488 70.0885 233.82 69.6491 233.234 69.0957C232.681 68.5098 232.242 67.8424 231.916 67.0938C231.59 66.3125 231.428 65.4824 231.428 64.6035C231.428 63.7572 231.59 62.9596 231.916 62.2109C232.242 61.4297 232.681 60.7624 233.234 60.209C233.82 59.623 234.488 59.1673 235.236 58.8418C236.018 58.4837 236.848 58.3047 237.727 58.3047C238.573 58.3047 239.37 58.4837 240.119 58.8418C240.9 59.1673 241.568 59.623 242.121 60.209C242.707 60.7624 243.163 61.4297 243.488 62.2109C243.846 62.9596 244.025 63.7572 244.025 64.6035Z" fill="#111111"/>
<path d="M325.324 65.5801C325.324 66.4915 325.145 67.3379 324.787 68.1191C324.462 68.9004 324.006 69.584 323.42 70.1699C322.867 70.7233 322.199 71.1628 321.418 71.4883C320.637 71.8138 319.807 71.9766 318.928 71.9766C318.146 71.9766 317.349 71.8301 316.535 71.5371C315.754 71.2441 315.054 70.7721 314.436 70.1211L268.049 21.6836V71H255.354V6.40039C255.354 5.09831 255.712 3.92643 256.428 2.88477C257.176 1.81055 258.12 1.01302 259.26 0.492188C260.464 0.00390625 261.701 -0.110026 262.971 0.150391C264.24 0.378255 265.331 0.964193 266.242 1.9082L312.629 50.2969V0.980469H325.324V65.5801Z" fill="#111111"/>
<path d="M409.211 64.6035C409.211 65.515 409.048 66.3613 408.723 67.1426C408.397 67.9238 407.941 68.6074 407.355 69.1934C406.802 69.7467 406.135 70.1862 405.354 70.5117C404.572 70.8372 403.726 71 402.814 71H357.014C355.842 71 354.572 70.8698 353.205 70.6094C351.87 70.3164 350.536 69.877 349.201 69.291C347.899 68.7051 346.646 67.9564 345.441 67.0449C344.237 66.1009 343.163 64.9779 342.219 63.6758C341.307 62.3411 340.575 60.8112 340.021 59.0859C339.468 57.3281 339.191 55.3587 339.191 53.1777V18.8027C339.191 17.6309 339.322 16.3776 339.582 15.043C339.875 13.6758 340.314 12.3411 340.9 11.0391C341.486 9.70443 342.251 8.4349 343.195 7.23047C344.139 6.02604 345.262 4.9681 346.564 4.05664C347.899 3.11263 349.429 2.36393 351.154 1.81055C352.88 1.25716 354.833 0.980469 357.014 0.980469H408.625V13.6758H357.014C355.354 13.6758 354.084 14.1152 353.205 14.9941C352.326 15.873 351.887 17.1751 351.887 18.9004V53.1777C351.887 54.8053 352.326 56.0749 353.205 56.9863C354.117 57.8652 355.386 58.3047 357.014 58.3047H396.516V42.3867H362.727V29.5938H402.814C403.726 29.5938 404.572 29.7728 405.354 30.1309C406.135 30.4564 406.802 30.9121 407.355 31.498C407.941 32.084 408.397 32.7676 408.723 33.5488C409.048 34.2975 409.211 35.1113 409.211 35.9902V64.6035Z" fill="#111111"/>
<path d="M480.012 42.3867H439.924V29.5938H480.012V42.3867ZM485.725 71H439.924C438.166 71 436.245 70.6908 434.162 70.0723C432.079 69.4538 430.142 68.4447 428.352 67.0449C426.594 65.6126 425.113 63.7734 423.908 61.5273C422.736 59.2487 422.15 56.4655 422.15 53.1777V7.37695C422.15 6.49805 422.313 5.66797 422.639 4.88672C422.964 4.10547 423.404 3.42188 423.957 2.83594C424.543 2.25 425.227 1.79427 426.008 1.46875C426.789 1.14323 427.635 0.980469 428.547 0.980469H485.725V13.6758H434.846V53.1777C434.846 54.8379 435.285 56.1074 436.164 56.9863C437.043 57.8652 438.329 58.3047 440.021 58.3047H485.725V71Z" fill="#111111"/>
<path d="M562.336 71H504.426C503.514 71 502.668 70.8372 501.887 70.5117C501.105 70.1862 500.422 69.7467 499.836 69.1934C499.283 68.6074 498.843 67.9238 498.518 67.1426C498.192 66.3613 498.029 65.515 498.029 64.6035V0.980469H510.725V58.3047H562.336V71Z" fill="#111111"/>
<path d="M584.455 71H571.76V0.980469H584.455V71Z" fill="#111111"/>
<path d="M672.785 42.6797C672.785 46.944 672.053 50.8665 670.588 54.4473C669.123 58.028 667.089 61.1204 664.484 63.7246C661.88 66.3288 658.788 68.3633 655.207 69.8281C651.659 71.2604 647.785 71.9766 643.586 71.9766H626.398C622.199 71.9766 618.309 71.2604 614.729 69.8281C611.148 68.3633 608.055 66.3288 605.451 63.7246C602.847 61.1204 600.796 58.028 599.299 54.4473C597.834 50.8665 597.102 46.944 597.102 42.6797V29.3008C597.102 25.069 597.834 21.1628 599.299 17.582C600.796 13.9688 602.847 10.8763 605.451 8.30469C608.055 5.70052 611.148 3.66602 614.729 2.20117C618.309 0.736328 622.199 0.00390625 626.398 0.00390625H643.586C647.785 0.00390625 651.659 0.736328 655.207 2.20117C658.788 3.66602 661.88 5.70052 664.484 8.30469C667.089 10.8763 669.123 13.9688 670.588 17.582C672.053 21.1628 672.785 25.069 672.785 29.3008V42.6797ZM660.09 29.3008C660.09 26.7943 659.683 24.5319 658.869 22.5137C658.088 20.4629 656.965 18.7214 655.5 17.2891C654.068 15.8242 652.326 14.7012 650.275 13.9199C648.257 13.1061 646.027 12.6992 643.586 12.6992H626.398C623.924 12.6992 621.662 13.1061 619.611 13.9199C617.593 14.7012 615.852 15.8242 614.387 17.2891C612.922 18.7214 611.783 20.4629 610.969 22.5137C610.188 24.5319 609.797 26.7943 609.797 29.3008V42.6797C609.797 45.1862 610.188 47.4648 610.969 49.5156C611.783 51.5339 612.922 53.2754 614.387 54.7402C615.852 56.1725 617.593 57.2956 619.611 58.1094C621.662 58.8906 623.924 59.2812 626.398 59.2812H643.488C645.962 59.2812 648.208 58.8906 650.227 58.1094C652.277 57.2956 654.035 56.1725 655.5 54.7402C656.965 53.2754 658.088 51.5339 658.869 49.5156C659.683 47.4648 660.09 45.1862 660.09 42.6797V29.3008Z" fill="#111111"/>
<path d="M755.305 65.5801C755.305 66.4915 755.126 67.3379 754.768 68.1191C754.442 68.9004 753.986 69.584 753.4 70.1699C752.847 70.7233 752.18 71.1628 751.398 71.4883C750.617 71.8138 749.787 71.9766 748.908 71.9766C748.127 71.9766 747.329 71.8301 746.516 71.5371C745.734 71.2441 745.034 70.7721 744.416 70.1211L698.029 21.6836V71H685.334V6.40039C685.334 5.09831 685.692 3.92643 686.408 2.88477C687.157 1.81055 688.101 1.01302 689.24 0.492188C690.445 0.00390625 691.682 -0.110026 692.951 0.150391C694.221 0.378255 695.311 0.964193 696.223 1.9082L742.609 50.2969V0.980469H755.305V65.5801Z" fill="#111111"/>
</svg>
