<svg width="2758" height="775" viewBox="0 0 2758 775" fill="none" xmlns="http://www.w3.org/2000/svg">
<path d="M1423.04 595.915L1416.3 589.17L1412.47 592.998L1419.21 599.743L1412.85 606.107L1416.58 609.836L1422.94 603.472L1430.03 610.565L1433.86 606.737L1426.77 599.644L1433.12 593.296L1429.39 589.567L1423.04 595.915ZM1466.87 560.575L1463.65 557.36L1450.31 570.701L1453.52 573.916L1466.87 560.575ZM1491 527.953L1484.26 521.208L1480.43 525.036L1487.17 531.781L1480.81 538.145L1484.54 541.874L1490.9 535.51L1498 542.603L1501.82 538.775L1494.73 531.682L1501.08 525.335L1497.35 521.606L1491 527.953ZM1534.83 492.613L1531.61 489.398L1518.27 502.739L1521.49 505.954L1534.83 492.613ZM1558.96 459.991L1552.22 453.246L1548.39 457.074L1555.14 463.82L1548.77 470.184L1552.5 473.912L1558.86 467.548L1565.96 474.642L1569.79 470.813L1562.69 463.72L1569.04 457.373L1565.31 453.644L1558.96 459.991ZM1602.79 424.651L1599.57 421.436L1586.23 434.777L1589.45 437.992L1602.79 424.651ZM1626.93 392.029L1620.18 385.284L1616.35 389.113L1623.1 395.858L1616.73 402.222L1620.46 405.951L1626.83 399.587L1633.92 406.68L1637.75 402.851L1630.65 395.758L1637 389.411L1633.27 385.682L1626.93 392.029ZM1670.75 356.69L1667.54 353.474L1654.19 366.816L1657.41 370.031L1670.75 356.69ZM1694.89 324.068L1688.14 317.322L1684.31 321.151L1691.06 327.896L1684.7 334.26L1688.42 337.989L1694.79 331.625L1701.88 338.718L1705.71 334.89L1698.62 327.797L1704.96 321.449L1701.24 317.72L1694.89 324.068ZM1738.71 288.728L1735.5 285.513L1722.16 298.854L1725.37 302.069L1738.71 288.728ZM1762.85 256.106L1756.1 249.361L1752.28 253.189L1759.02 259.934L1752.66 266.298L1756.39 270.027L1762.75 263.663L1769.84 270.756L1773.67 266.928L1766.58 259.835L1772.93 253.487L1769.2 249.758L1762.85 256.106Z" fill="#141414"/>
<path d="M1354.71 528.539L1347.97 521.794L1344.14 525.622L1350.88 532.367L1344.52 538.731L1348.25 542.46L1354.61 536.096L1361.71 543.189L1365.53 539.361L1358.44 532.268L1364.79 525.921L1361.06 522.192L1354.71 528.539ZM1398.54 493.199L1395.32 489.984L1381.98 503.325L1385.2 506.54L1398.54 493.199ZM1422.67 460.577L1415.93 453.832L1412.1 457.661L1418.85 464.406L1412.48 470.77L1416.21 474.498L1422.58 468.135L1429.67 475.228L1433.5 471.399L1426.4 464.306L1432.75 457.959L1429.02 454.23L1422.67 460.577ZM1466.5 425.237L1463.28 422.022L1449.94 435.363L1453.16 438.579L1466.5 425.237ZM1490.64 392.616L1483.89 385.87L1480.06 389.699L1486.81 396.444L1480.44 402.808L1484.17 406.537L1490.54 400.173L1497.63 407.266L1501.46 403.438L1494.37 396.344L1500.71 389.997L1496.98 386.268L1490.64 392.616ZM1534.46 357.276L1531.25 354.061L1517.91 367.402L1521.12 370.617L1534.46 357.276ZM1558.6 324.654L1551.85 317.909L1548.02 321.737L1554.77 328.482L1548.41 334.846L1552.13 338.575L1558.5 332.211L1565.59 339.304L1569.42 335.476L1562.33 328.383L1568.67 322.035L1564.95 318.306L1558.6 324.654ZM1602.42 289.314L1599.21 286.099L1585.87 299.44L1589.08 302.655L1602.42 289.314ZM1626.56 256.692L1619.81 249.947L1615.99 253.775L1622.73 260.52L1616.37 266.884L1620.1 270.613L1626.46 264.249L1633.55 271.342L1637.38 267.514L1630.29 260.421L1636.64 254.073L1632.91 250.345L1626.56 256.692ZM1670.39 221.352L1667.17 218.137L1653.83 231.478L1657.04 234.693L1670.39 221.352ZM1694.52 188.73L1687.78 181.985L1683.95 185.813L1690.69 192.558L1684.33 198.922L1688.06 202.651L1694.42 196.287L1701.52 203.38L1705.34 199.552L1698.25 192.459L1704.6 186.112L1700.87 182.383L1694.52 188.73Z" fill="#141414"/>
<path d="M1491.43 663.525L1484.69 656.78L1480.86 660.608L1487.61 667.353L1481.24 673.717L1484.97 677.446L1491.34 671.082L1498.43 678.175L1502.26 674.347L1495.16 667.254L1501.51 660.906L1497.78 657.177L1491.43 663.525ZM1535.26 628.185L1532.04 624.97L1518.7 638.311L1521.92 641.526L1535.26 628.185ZM1559.4 595.563L1552.65 588.818L1548.82 592.646L1555.57 599.391L1549.2 605.755L1552.93 609.484L1559.3 603.12L1566.39 610.213L1570.22 606.385L1563.13 599.292L1569.47 592.945L1565.74 589.216L1559.4 595.563ZM1603.22 560.223L1600.01 557.008L1586.67 570.349L1589.88 573.564L1603.22 560.223ZM1627.36 527.601L1620.61 520.856L1616.78 524.684L1623.53 531.43L1617.17 537.794L1620.89 541.522L1627.26 535.158L1634.35 542.252L1638.18 538.423L1631.09 531.33L1637.43 524.983L1633.71 521.254L1627.36 527.601ZM1671.18 492.261L1667.97 489.046L1654.63 502.387L1657.84 505.602L1671.18 492.261ZM1695.32 459.639L1688.57 452.894L1684.75 456.723L1691.49 463.468L1685.13 469.832L1688.86 473.561L1695.22 467.197L1702.31 474.29L1706.14 470.461L1699.05 463.368L1705.4 457.021L1701.67 453.292L1695.32 459.639ZM1739.15 424.3L1735.93 421.084L1722.59 434.426L1725.8 437.641L1739.15 424.3ZM1763.28 391.678L1756.54 384.932L1752.71 388.761L1759.45 395.506L1753.09 401.87L1756.82 405.599L1763.18 399.235L1770.28 406.328L1774.1 402.5L1767.01 395.406L1773.36 389.059L1769.63 385.33L1763.28 391.678ZM1807.11 356.338L1803.89 353.123L1790.55 366.464L1793.77 369.679L1807.11 356.338ZM1831.24 323.716L1824.5 316.971L1820.67 320.799L1827.42 327.544L1821.05 333.908L1824.78 337.637L1831.14 331.273L1838.24 338.366L1842.07 334.538L1834.97 327.445L1841.32 321.097L1837.59 317.368L1831.24 323.716Z" fill="#141414"/>
<path d="M1287.22 459.727L1280.48 452.982L1276.65 456.81L1283.39 463.555L1277.03 469.919L1280.76 473.648L1287.12 467.284L1294.22 474.377L1298.05 470.549L1290.95 463.456L1297.3 457.108L1293.57 453.379L1287.22 459.727ZM1331.05 424.387L1327.83 421.172L1314.49 434.513L1317.71 437.728L1331.05 424.387ZM1355.18 391.765L1348.44 385.02L1344.61 388.848L1351.36 395.593L1344.99 401.957L1348.72 405.686L1355.09 399.322L1362.18 406.415L1366.01 402.587L1358.91 395.494L1365.26 389.146L1361.53 385.418L1355.18 391.765ZM1399.01 356.425L1395.79 353.21L1382.45 366.551L1385.67 369.766L1399.01 356.425ZM1423.15 323.803L1416.4 317.058L1412.57 320.886L1419.32 327.631L1412.95 333.995L1416.68 337.724L1423.05 331.36L1430.14 338.454L1433.97 334.625L1426.88 327.532L1433.22 321.185L1429.49 317.456L1423.15 323.803ZM1466.97 288.463L1463.76 285.248L1450.42 298.589L1453.63 301.804L1466.97 288.463ZM1491.11 255.841L1484.36 249.096L1480.53 252.925L1487.28 259.67L1480.92 266.034L1484.64 269.763L1491.01 263.399L1498.1 270.492L1501.93 266.663L1494.84 259.57L1501.18 253.223L1497.46 249.494L1491.11 255.841ZM1534.93 220.501L1531.72 217.286L1518.38 230.627L1521.59 233.843L1534.93 220.501ZM1559.07 187.88L1552.33 181.134L1548.5 184.963L1555.24 191.708L1548.88 198.072L1552.61 201.801L1558.97 195.437L1566.06 202.53L1569.89 198.702L1562.8 191.608L1569.15 185.261L1565.42 181.532L1559.07 187.88ZM1602.9 152.54L1599.68 149.325L1586.34 162.666L1589.55 165.881L1602.9 152.54ZM1627.03 119.918L1620.29 113.173L1616.46 117.001L1623.2 123.746L1616.84 130.11L1620.57 133.839L1626.93 127.475L1634.03 134.568L1637.85 130.74L1630.76 123.647L1637.11 117.299L1633.38 113.57L1627.03 119.918Z" fill="#141414"/>
<path d="M1494.78 260.636L1501.52 253.891L1497.7 250.063L1490.95 256.808L1484.59 250.444L1480.86 254.173L1487.22 260.537L1480.13 267.63L1483.96 271.458L1491.05 264.365L1497.4 270.712L1501.13 266.983L1494.78 260.636ZM1530.12 304.461L1533.33 301.246L1519.99 287.905L1516.78 291.12L1530.12 304.461ZM1562.74 328.598L1569.49 321.853L1565.66 318.024L1558.91 324.77L1552.55 318.406L1548.82 322.134L1555.18 328.498L1548.09 335.592L1551.92 339.42L1559.01 332.327L1565.36 338.674L1569.09 334.945L1562.74 328.598ZM1598.08 372.423L1601.3 369.208L1587.95 355.867L1584.74 359.082L1598.08 372.423ZM1630.7 396.56L1637.45 389.815L1633.62 385.986L1626.87 392.731L1620.51 386.367L1616.78 390.096L1623.15 396.46L1616.05 403.553L1619.88 407.382L1626.97 400.289L1633.32 406.636L1637.05 402.907L1630.7 396.56ZM1666.04 440.385L1669.26 437.17L1655.92 423.829L1652.7 427.044L1666.04 440.385ZM1698.66 464.521L1705.41 457.776L1701.58 453.948L1694.84 460.693L1688.47 454.329L1684.74 458.058L1691.11 464.422L1684.01 471.515L1687.84 475.343L1694.94 468.25L1701.28 474.598L1705.01 470.869L1698.66 464.521ZM1734 508.347L1737.22 505.131L1723.88 491.79L1720.66 495.005L1734 508.347Z" fill="#141414"/>
<path d="M1561.95 192.046L1568.7 185.301L1564.87 181.473L1558.13 188.218L1551.76 181.854L1548.03 185.583L1554.4 191.947L1547.3 199.04L1551.13 202.868L1558.23 195.775L1564.57 202.123L1568.3 198.394L1561.95 192.046ZM1597.29 235.872L1600.51 232.656L1587.17 219.315L1583.95 222.53L1597.29 235.872ZM1629.92 260.008L1636.66 253.263L1632.83 249.435L1626.09 256.18L1619.72 249.816L1615.99 253.545L1622.36 259.909L1615.27 267.002L1619.09 270.83L1626.19 263.737L1632.53 270.085L1636.26 266.356L1629.92 260.008ZM1665.26 303.833L1668.47 300.618L1655.13 287.277L1651.91 290.492L1665.26 303.833ZM1697.88 327.97L1704.62 321.225L1700.79 317.397L1694.05 324.142L1687.69 317.778L1683.96 321.507L1690.32 327.871L1683.23 334.964L1687.06 338.792L1694.15 331.699L1700.5 338.046L1704.23 334.317L1697.88 327.97ZM1733.22 371.795L1736.43 368.58L1723.09 355.239L1719.88 358.454L1733.22 371.795ZM1765.84 395.932L1772.58 389.187L1768.76 385.358L1762.01 392.104L1755.65 385.74L1751.92 389.468L1758.28 395.832L1751.19 402.926L1755.02 406.754L1762.11 399.661L1768.46 406.008L1772.19 402.279L1765.84 395.932ZM1801.18 439.757L1804.39 436.542L1791.05 423.201L1787.84 426.416L1801.18 439.757Z" fill="#141414"/>
<path d="M1630.54 124.871L1637.29 118.126L1633.46 114.298L1626.72 121.043L1620.35 114.679L1616.62 118.408L1622.99 124.772L1615.89 131.865L1619.72 135.693L1626.81 128.6L1633.16 134.948L1636.89 131.219L1630.54 124.871ZM1665.88 168.697L1669.1 165.481L1655.76 152.14L1652.54 155.355L1665.88 168.697ZM1698.51 192.833L1705.25 186.088L1701.42 182.26L1694.68 189.005L1688.31 182.641L1684.58 186.37L1690.95 192.734L1683.85 199.827L1687.68 203.655L1694.78 196.562L1701.12 202.909L1704.85 199.181L1698.51 192.833ZM1733.85 236.658L1737.06 233.443L1723.72 220.102L1720.5 223.317L1733.85 236.658ZM1766.47 260.795L1773.21 254.05L1769.38 250.222L1762.64 256.967L1756.27 250.603L1752.55 254.332L1758.91 260.696L1751.82 267.789L1755.64 271.617L1762.74 264.524L1769.09 270.871L1772.81 267.142L1766.47 260.795ZM1801.81 304.62L1805.02 301.405L1791.68 288.064L1788.47 291.279L1801.81 304.62ZM1834.43 328.757L1841.17 322.012L1837.35 318.183L1830.6 324.928L1824.24 318.565L1820.51 322.293L1826.87 328.657L1819.78 335.751L1823.61 339.579L1830.7 332.486L1837.05 338.833L1840.78 335.104L1834.43 328.757ZM1869.77 372.582L1872.98 369.367L1859.64 356.026L1856.43 359.241L1869.77 372.582Z" fill="#141414"/>
<path d="M1426.9 328.518L1433.64 321.773L1429.81 317.945L1423.07 324.69L1416.7 318.326L1412.98 322.055L1419.34 328.419L1412.25 335.512L1416.07 339.34L1423.17 332.247L1429.52 338.594L1433.24 334.866L1426.9 328.518ZM1462.24 372.343L1465.45 369.128L1452.11 355.787L1448.9 359.002L1462.24 372.343ZM1494.86 396.48L1501.6 389.735L1497.78 385.906L1491.03 392.652L1484.67 386.288L1480.94 390.017L1487.3 396.38L1480.21 403.474L1484.04 407.302L1491.13 400.209L1497.48 406.556L1501.21 402.827L1494.86 396.48ZM1530.2 440.305L1533.41 437.09L1520.07 423.749L1516.86 426.964L1530.2 440.305ZM1562.82 464.442L1569.57 457.697L1565.74 453.868L1558.99 460.613L1552.63 454.249L1548.9 457.978L1555.26 464.342L1548.17 471.435L1552 475.264L1559.09 468.171L1565.44 474.518L1569.17 470.789L1562.82 464.442ZM1598.16 508.267L1601.38 505.052L1588.03 491.711L1584.82 494.926L1598.16 508.267ZM1630.78 532.404L1637.53 525.658L1633.7 521.83L1626.95 528.575L1620.59 522.211L1616.86 525.94L1623.22 532.304L1616.13 539.397L1619.96 543.226L1627.05 536.132L1633.4 542.48L1637.13 538.751L1630.78 532.404ZM1666.12 576.229L1669.34 573.014L1656 559.672L1652.78 562.888L1666.12 576.229Z" fill="#141414"/>
<path d="M1359.01 396.4L1365.76 389.655L1361.93 385.827L1355.19 392.572L1348.82 386.208L1345.09 389.937L1351.46 396.301L1344.36 403.394L1348.19 407.222L1355.29 400.129L1361.63 406.477L1365.36 402.748L1359.01 396.4ZM1394.35 440.226L1397.57 437.01L1384.23 423.669L1381.01 426.884L1394.35 440.226ZM1426.98 464.362L1433.72 457.617L1429.89 453.789L1423.15 460.534L1416.78 454.17L1413.05 457.899L1419.42 464.263L1412.33 471.356L1416.15 475.184L1423.25 468.091L1429.59 474.439L1433.32 470.71L1426.98 464.362ZM1462.32 508.187L1465.53 504.972L1452.19 491.631L1448.97 494.846L1462.32 508.187ZM1494.94 532.324L1501.68 525.579L1497.85 521.751L1491.11 528.496L1484.75 522.132L1481.02 525.861L1487.38 532.225L1480.29 539.318L1484.12 543.146L1491.21 536.053L1497.56 542.4L1501.29 538.671L1494.94 532.324ZM1530.28 576.149L1533.49 572.934L1520.15 559.593L1516.94 562.808L1530.28 576.149ZM1562.9 600.286L1569.64 593.541L1565.82 589.712L1559.07 596.458L1552.71 590.094L1548.98 593.822L1555.34 600.186L1548.25 607.28L1552.08 611.108L1559.17 604.015L1565.52 610.362L1569.25 606.633L1562.9 600.286Z" fill="#141414"/>
<path d="M1290.42 463.575L1297.17 456.83L1293.34 453.002L1286.6 459.747L1280.23 453.383L1276.5 457.112L1282.87 463.476L1275.77 470.569L1279.6 474.398L1286.7 467.304L1293.04 473.652L1296.77 469.923L1290.42 463.575ZM1325.76 507.401L1328.98 504.186L1315.64 490.844L1312.42 494.06L1325.76 507.401ZM1358.39 531.537L1365.13 524.792L1361.3 520.964L1354.56 527.709L1348.19 521.345L1344.47 525.074L1350.83 531.438L1343.74 538.531L1347.56 542.359L1354.66 535.266L1361.01 541.614L1364.73 537.885L1358.39 531.537ZM1393.73 575.362L1396.94 572.147L1383.6 558.806L1380.39 562.021L1393.73 575.362ZM1426.35 599.499L1433.09 592.754L1429.27 588.926L1422.52 595.671L1416.16 589.307L1412.43 593.036L1418.79 599.4L1411.7 606.493L1415.53 610.321L1422.62 603.228L1428.97 609.575L1432.7 605.846L1426.35 599.499ZM1461.69 643.324L1464.9 640.109L1451.56 626.768L1448.35 629.983L1461.69 643.324ZM1494.31 667.461L1501.06 660.716L1497.23 656.887L1490.48 663.633L1484.12 657.269L1480.39 660.997L1486.75 667.361L1479.66 674.455L1483.49 678.283L1490.58 671.19L1496.93 677.537L1500.66 673.808L1494.31 667.461Z" fill="#141414"/>
<path d="M2239.04 595.915L2232.3 589.17L2228.47 592.998L2235.21 599.743L2228.85 606.107L2232.58 609.836L2238.94 603.472L2246.03 610.565L2249.86 606.737L2242.77 599.644L2249.12 593.296L2245.39 589.567L2239.04 595.915ZM2282.87 560.575L2279.65 557.36L2266.31 570.701L2269.52 573.916L2282.87 560.575ZM2307 527.953L2300.26 521.208L2296.43 525.036L2303.17 531.781L2296.81 538.145L2300.54 541.874L2306.9 535.51L2314 542.603L2317.82 538.775L2310.73 531.682L2317.08 525.335L2313.35 521.606L2307 527.953ZM2350.83 492.613L2347.61 489.398L2334.27 502.739L2337.49 505.954L2350.83 492.613ZM2374.96 459.991L2368.22 453.246L2364.39 457.074L2371.14 463.82L2364.77 470.184L2368.5 473.912L2374.86 467.548L2381.96 474.642L2385.79 470.813L2378.69 463.72L2385.04 457.373L2381.31 453.644L2374.96 459.991ZM2418.79 424.651L2415.57 421.436L2402.23 434.777L2405.45 437.992L2418.79 424.651ZM2442.93 392.029L2436.18 385.284L2432.35 389.113L2439.1 395.858L2432.73 402.222L2436.46 405.951L2442.83 399.587L2449.92 406.68L2453.75 402.851L2446.65 395.758L2453 389.411L2449.27 385.682L2442.93 392.029ZM2486.75 356.69L2483.54 353.474L2470.19 366.816L2473.41 370.031L2486.75 356.69ZM2510.89 324.068L2504.14 317.322L2500.31 321.151L2507.06 327.896L2500.7 334.26L2504.42 337.989L2510.79 331.625L2517.88 338.718L2521.71 334.89L2514.62 327.797L2520.96 321.449L2517.24 317.72L2510.89 324.068ZM2554.71 288.728L2551.5 285.513L2538.16 298.854L2541.37 302.069L2554.71 288.728ZM2578.85 256.106L2572.1 249.361L2568.28 253.189L2575.02 259.934L2568.66 266.298L2572.39 270.027L2578.75 263.663L2585.84 270.756L2589.67 266.928L2582.58 259.835L2588.93 253.487L2585.2 249.758L2578.85 256.106Z" fill="#141414"/>
<path d="M2170.71 528.539L2163.97 521.794L2160.14 525.622L2166.88 532.367L2160.52 538.731L2164.25 542.46L2170.61 536.096L2177.71 543.189L2181.53 539.361L2174.44 532.268L2180.79 525.921L2177.06 522.192L2170.71 528.539ZM2214.54 493.199L2211.32 489.984L2197.98 503.325L2201.2 506.54L2214.54 493.199ZM2238.67 460.577L2231.93 453.832L2228.1 457.661L2234.85 464.406L2228.48 470.77L2232.21 474.498L2238.58 468.135L2245.67 475.228L2249.5 471.399L2242.4 464.306L2248.75 457.959L2245.02 454.23L2238.67 460.577ZM2282.5 425.237L2279.28 422.022L2265.94 435.363L2269.16 438.579L2282.5 425.237ZM2306.64 392.616L2299.89 385.87L2296.06 389.699L2302.81 396.444L2296.44 402.808L2300.17 406.537L2306.54 400.173L2313.63 407.266L2317.46 403.438L2310.37 396.344L2316.71 389.997L2312.98 386.268L2306.64 392.616ZM2350.46 357.276L2347.25 354.061L2333.91 367.402L2337.12 370.617L2350.46 357.276ZM2374.6 324.654L2367.85 317.909L2364.02 321.737L2370.77 328.482L2364.41 334.846L2368.13 338.575L2374.5 332.211L2381.59 339.304L2385.42 335.476L2378.33 328.383L2384.67 322.035L2380.95 318.306L2374.6 324.654ZM2418.42 289.314L2415.21 286.099L2401.87 299.44L2405.08 302.655L2418.42 289.314ZM2442.56 256.692L2435.81 249.947L2431.99 253.775L2438.73 260.52L2432.37 266.884L2436.1 270.613L2442.46 264.249L2449.55 271.342L2453.38 267.514L2446.29 260.421L2452.64 254.073L2448.91 250.345L2442.56 256.692ZM2486.39 221.352L2483.17 218.137L2469.83 231.478L2473.04 234.693L2486.39 221.352ZM2510.52 188.73L2503.78 181.985L2499.95 185.813L2506.69 192.558L2500.33 198.922L2504.06 202.651L2510.42 196.287L2517.52 203.38L2521.34 199.552L2514.25 192.459L2520.6 186.112L2516.87 182.383L2510.52 188.73Z" fill="#141414"/>
<path d="M2307.43 663.525L2300.69 656.78L2296.86 660.608L2303.61 667.353L2297.24 673.717L2300.97 677.446L2307.34 671.082L2314.43 678.175L2318.26 674.347L2311.16 667.254L2317.51 660.906L2313.78 657.177L2307.43 663.525ZM2351.26 628.185L2348.04 624.97L2334.7 638.311L2337.92 641.526L2351.26 628.185ZM2375.4 595.563L2368.65 588.818L2364.82 592.646L2371.57 599.391L2365.2 605.755L2368.93 609.484L2375.3 603.12L2382.39 610.213L2386.22 606.385L2379.13 599.292L2385.47 592.945L2381.74 589.216L2375.4 595.563ZM2419.22 560.223L2416.01 557.008L2402.67 570.349L2405.88 573.564L2419.22 560.223ZM2443.36 527.601L2436.61 520.856L2432.78 524.684L2439.53 531.43L2433.17 537.794L2436.89 541.522L2443.26 535.158L2450.35 542.252L2454.18 538.423L2447.09 531.33L2453.43 524.983L2449.71 521.254L2443.36 527.601ZM2487.18 492.261L2483.97 489.046L2470.63 502.387L2473.84 505.602L2487.18 492.261ZM2511.32 459.639L2504.57 452.894L2500.75 456.723L2507.49 463.468L2501.13 469.832L2504.86 473.561L2511.22 467.197L2518.31 474.29L2522.14 470.461L2515.05 463.368L2521.4 457.021L2517.67 453.292L2511.32 459.639ZM2555.15 424.3L2551.93 421.084L2538.59 434.426L2541.8 437.641L2555.15 424.3ZM2579.28 391.678L2572.54 384.932L2568.71 388.761L2575.45 395.506L2569.09 401.87L2572.82 405.599L2579.18 399.235L2586.28 406.328L2590.1 402.5L2583.01 395.406L2589.36 389.059L2585.63 385.33L2579.28 391.678ZM2623.11 356.338L2619.89 353.123L2606.55 366.464L2609.77 369.679L2623.11 356.338ZM2647.24 323.716L2640.5 316.971L2636.67 320.799L2643.42 327.544L2637.05 333.908L2640.78 337.637L2647.14 331.273L2654.24 338.366L2658.07 334.538L2650.97 327.445L2657.32 321.097L2653.59 317.368L2647.24 323.716Z" fill="#141414"/>
<path d="M2103.22 459.727L2096.48 452.982L2092.65 456.81L2099.39 463.555L2093.03 469.919L2096.76 473.648L2103.12 467.284L2110.22 474.377L2114.05 470.549L2106.95 463.456L2113.3 457.108L2109.57 453.379L2103.22 459.727ZM2147.05 424.387L2143.83 421.172L2130.49 434.513L2133.71 437.728L2147.05 424.387ZM2171.18 391.765L2164.44 385.02L2160.61 388.848L2167.36 395.593L2160.99 401.957L2164.72 405.686L2171.09 399.322L2178.18 406.415L2182.01 402.587L2174.91 395.494L2181.26 389.146L2177.53 385.418L2171.18 391.765ZM2215.01 356.425L2211.79 353.21L2198.45 366.551L2201.67 369.766L2215.01 356.425ZM2239.15 323.803L2232.4 317.058L2228.57 320.886L2235.32 327.631L2228.95 333.995L2232.68 337.724L2239.05 331.36L2246.14 338.454L2249.97 334.625L2242.88 327.532L2249.22 321.185L2245.49 317.456L2239.15 323.803ZM2282.97 288.463L2279.76 285.248L2266.42 298.589L2269.63 301.804L2282.97 288.463ZM2307.11 255.841L2300.36 249.096L2296.54 252.925L2303.28 259.67L2296.92 266.034L2300.65 269.763L2307.01 263.399L2314.1 270.492L2317.93 266.663L2310.84 259.57L2317.18 253.223L2313.46 249.494L2307.11 255.841ZM2350.93 220.501L2347.72 217.286L2334.38 230.627L2337.59 233.843L2350.93 220.501ZM2375.07 187.88L2368.33 181.134L2364.5 184.963L2371.24 191.708L2364.88 198.072L2368.61 201.801L2374.97 195.437L2382.06 202.53L2385.89 198.702L2378.8 191.608L2385.15 185.261L2381.42 181.532L2375.07 187.88ZM2418.9 152.54L2415.68 149.325L2402.34 162.666L2405.55 165.881L2418.9 152.54ZM2443.03 119.918L2436.29 113.173L2432.46 117.001L2439.2 123.746L2432.84 130.11L2436.57 133.839L2442.93 127.475L2450.03 134.568L2453.85 130.74L2446.76 123.647L2453.11 117.299L2449.38 113.57L2443.03 119.918Z" fill="#141414"/>
<path d="M2310.78 260.636L2317.52 253.891L2313.7 250.063L2306.95 256.808L2300.59 250.444L2296.86 254.173L2303.22 260.537L2296.13 267.63L2299.96 271.458L2307.05 264.365L2313.4 270.712L2317.13 266.983L2310.78 260.636ZM2346.12 304.461L2349.33 301.246L2335.99 287.905L2332.78 291.12L2346.12 304.461ZM2378.74 328.598L2385.49 321.853L2381.66 318.024L2374.91 324.77L2368.55 318.406L2364.82 322.134L2371.18 328.498L2364.09 335.592L2367.92 339.42L2375.01 332.327L2381.36 338.674L2385.09 334.945L2378.74 328.598ZM2414.08 372.423L2417.3 369.208L2403.95 355.867L2400.74 359.082L2414.08 372.423ZM2446.7 396.56L2453.45 389.815L2449.62 385.986L2442.87 392.731L2436.51 386.367L2432.78 390.096L2439.15 396.46L2432.05 403.553L2435.88 407.382L2442.97 400.289L2449.32 406.636L2453.05 402.907L2446.7 396.56ZM2482.04 440.385L2485.26 437.17L2471.92 423.829L2468.7 427.044L2482.04 440.385ZM2514.66 464.521L2521.41 457.776L2517.58 453.948L2510.84 460.693L2504.47 454.329L2500.74 458.058L2507.11 464.422L2500.01 471.515L2503.84 475.343L2510.94 468.25L2517.28 474.598L2521.01 470.869L2514.66 464.521ZM2550 508.347L2553.22 505.131L2539.88 491.79L2536.66 495.005L2550 508.347Z" fill="#141414"/>
<path d="M2377.95 192.046L2384.7 185.301L2380.87 181.473L2374.13 188.218L2367.76 181.854L2364.03 185.583L2370.4 191.947L2363.3 199.04L2367.13 202.868L2374.23 195.775L2380.57 202.123L2384.3 198.394L2377.95 192.046ZM2413.29 235.872L2416.51 232.656L2403.17 219.315L2399.95 222.53L2413.29 235.872ZM2445.92 260.008L2452.66 253.263L2448.83 249.435L2442.09 256.18L2435.72 249.816L2431.99 253.545L2438.36 259.909L2431.27 267.002L2435.09 270.83L2442.19 263.737L2448.53 270.085L2452.26 266.356L2445.92 260.008ZM2481.26 303.833L2484.47 300.618L2471.13 287.277L2467.91 290.492L2481.26 303.833ZM2513.88 327.97L2520.62 321.225L2516.79 317.397L2510.05 324.142L2503.69 317.778L2499.96 321.507L2506.32 327.871L2499.23 334.964L2503.06 338.792L2510.15 331.699L2516.5 338.046L2520.22 334.317L2513.88 327.97ZM2549.22 371.795L2552.43 368.58L2539.09 355.239L2535.88 358.454L2549.22 371.795ZM2581.84 395.932L2588.58 389.187L2584.76 385.358L2578.01 392.104L2571.65 385.74L2567.92 389.468L2574.28 395.832L2567.19 402.926L2571.02 406.754L2578.11 399.661L2584.46 406.008L2588.19 402.279L2581.84 395.932ZM2617.18 439.757L2620.39 436.542L2607.05 423.201L2603.84 426.416L2617.18 439.757Z" fill="#141414"/>
<path d="M2446.54 124.871L2453.29 118.126L2449.46 114.298L2442.72 121.043L2436.35 114.679L2432.62 118.408L2438.99 124.772L2431.89 131.865L2435.72 135.693L2442.81 128.6L2449.16 134.948L2452.89 131.219L2446.54 124.871ZM2481.88 168.697L2485.1 165.481L2471.76 152.14L2468.54 155.355L2481.88 168.697ZM2514.51 192.833L2521.25 186.088L2517.42 182.26L2510.68 189.005L2504.31 182.641L2500.58 186.37L2506.95 192.734L2499.85 199.827L2503.68 203.655L2510.78 196.562L2517.12 202.909L2520.85 199.181L2514.51 192.833ZM2549.85 236.658L2553.06 233.443L2539.72 220.102L2536.5 223.317L2549.85 236.658ZM2582.47 260.795L2589.21 254.05L2585.38 250.222L2578.64 256.967L2572.27 250.603L2568.55 254.332L2574.91 260.696L2567.82 267.789L2571.64 271.617L2578.74 264.524L2585.09 270.871L2588.81 267.142L2582.47 260.795ZM2617.81 304.62L2621.02 301.405L2607.68 288.064L2604.47 291.279L2617.81 304.62ZM2650.43 328.757L2657.17 322.012L2653.35 318.183L2646.6 324.928L2640.24 318.565L2636.51 322.293L2642.87 328.657L2635.78 335.751L2639.61 339.579L2646.7 332.486L2653.05 338.833L2656.78 335.104L2650.43 328.757ZM2685.77 372.582L2688.98 369.367L2675.64 356.026L2672.43 359.241L2685.77 372.582Z" fill="#141414"/>
<path d="M2242.9 328.518L2249.64 321.773L2245.81 317.945L2239.07 324.69L2232.7 318.326L2228.98 322.055L2235.34 328.419L2228.25 335.512L2232.07 339.34L2239.17 332.247L2245.52 338.594L2249.24 334.866L2242.9 328.518ZM2278.24 372.343L2281.45 369.128L2268.11 355.787L2264.9 359.002L2278.24 372.343ZM2310.86 396.48L2317.6 389.735L2313.78 385.906L2307.03 392.652L2300.67 386.288L2296.94 390.017L2303.3 396.38L2296.21 403.474L2300.04 407.302L2307.13 400.209L2313.48 406.556L2317.21 402.827L2310.86 396.48ZM2346.2 440.305L2349.41 437.09L2336.07 423.749L2332.86 426.964L2346.2 440.305ZM2378.82 464.442L2385.57 457.697L2381.74 453.868L2374.99 460.613L2368.63 454.249L2364.9 457.978L2371.26 464.342L2364.17 471.435L2368 475.264L2375.09 468.171L2381.44 474.518L2385.17 470.789L2378.82 464.442ZM2414.16 508.267L2417.38 505.052L2404.03 491.711L2400.82 494.926L2414.16 508.267ZM2446.78 532.404L2453.53 525.658L2449.7 521.83L2442.95 528.575L2436.59 522.211L2432.86 525.94L2439.22 532.304L2432.13 539.397L2435.96 543.226L2443.05 536.132L2449.4 542.48L2453.13 538.751L2446.78 532.404ZM2482.12 576.229L2485.34 573.014L2472 559.672L2468.78 562.888L2482.12 576.229Z" fill="#141414"/>
<path d="M2175.01 396.4L2181.76 389.655L2177.93 385.827L2171.19 392.572L2164.82 386.208L2161.09 389.937L2167.46 396.301L2160.36 403.394L2164.19 407.222L2171.29 400.129L2177.63 406.477L2181.36 402.748L2175.01 396.4ZM2210.35 440.226L2213.57 437.01L2200.23 423.669L2197.01 426.884L2210.35 440.226ZM2242.98 464.362L2249.72 457.617L2245.89 453.789L2239.15 460.534L2232.78 454.17L2229.05 457.899L2235.42 464.263L2228.33 471.356L2232.15 475.184L2239.25 468.091L2245.59 474.439L2249.32 470.71L2242.98 464.362ZM2278.32 508.187L2281.53 504.972L2268.19 491.631L2264.97 494.846L2278.32 508.187ZM2310.94 532.324L2317.68 525.579L2313.85 521.751L2307.11 528.496L2300.75 522.132L2297.02 525.861L2303.38 532.225L2296.29 539.318L2300.12 543.146L2307.21 536.053L2313.56 542.4L2317.29 538.671L2310.94 532.324ZM2346.28 576.149L2349.49 572.934L2336.15 559.593L2332.94 562.808L2346.28 576.149ZM2378.9 600.286L2385.64 593.541L2381.82 589.712L2375.07 596.458L2368.71 590.094L2364.98 593.822L2371.34 600.186L2364.25 607.28L2368.08 611.108L2375.17 604.015L2381.52 610.362L2385.25 606.633L2378.9 600.286Z" fill="#141414"/>
<path d="M2106.42 463.575L2113.17 456.83L2109.34 453.002L2102.6 459.747L2096.23 453.383L2092.5 457.112L2098.87 463.476L2091.77 470.569L2095.6 474.398L2102.7 467.304L2109.04 473.652L2112.77 469.923L2106.42 463.575ZM2141.76 507.401L2144.98 504.186L2131.64 490.844L2128.42 494.06L2141.76 507.401ZM2174.39 531.537L2181.13 524.792L2177.3 520.964L2170.56 527.709L2164.19 521.345L2160.47 525.074L2166.83 531.438L2159.74 538.531L2163.56 542.359L2170.66 535.266L2177.01 541.614L2180.73 537.885L2174.39 531.537ZM2209.73 575.362L2212.94 572.147L2199.6 558.806L2196.39 562.021L2209.73 575.362ZM2242.35 599.499L2249.09 592.754L2245.27 588.926L2238.52 595.671L2232.16 589.307L2228.43 593.036L2234.79 599.4L2227.7 606.493L2231.53 610.321L2238.62 603.228L2244.97 609.575L2248.7 605.846L2242.35 599.499ZM2277.69 643.324L2280.9 640.109L2267.56 626.768L2264.35 629.983L2277.69 643.324ZM2310.31 667.461L2317.06 660.716L2313.23 656.887L2306.48 663.633L2300.12 657.269L2296.39 660.997L2302.75 667.361L2295.66 674.455L2299.49 678.283L2306.58 671.19L2312.93 677.537L2316.66 673.808L2310.31 667.461Z" fill="#141414"/>
<path d="M1831.04 595.915L1824.3 589.17L1820.47 592.998L1827.21 599.743L1820.85 606.107L1824.58 609.836L1830.94 603.472L1838.03 610.565L1841.86 606.737L1834.77 599.644L1841.12 593.296L1837.39 589.567L1831.04 595.915ZM1874.87 560.575L1871.65 557.36L1858.31 570.701L1861.52 573.916L1874.87 560.575ZM1899 527.953L1892.26 521.208L1888.43 525.036L1895.17 531.781L1888.81 538.145L1892.54 541.874L1898.9 535.51L1906 542.603L1909.82 538.775L1902.73 531.682L1909.08 525.335L1905.35 521.606L1899 527.953ZM1942.83 492.613L1939.61 489.398L1926.27 502.739L1929.49 505.954L1942.83 492.613ZM1966.96 459.991L1960.22 453.246L1956.39 457.074L1963.14 463.82L1956.77 470.184L1960.5 473.912L1966.86 467.548L1973.96 474.642L1977.79 470.813L1970.69 463.72L1977.04 457.373L1973.31 453.644L1966.96 459.991ZM2010.79 424.651L2007.57 421.436L1994.23 434.777L1997.45 437.992L2010.79 424.651ZM2034.93 392.029L2028.18 385.284L2024.35 389.113L2031.1 395.858L2024.73 402.222L2028.46 405.951L2034.83 399.587L2041.92 406.68L2045.75 402.851L2038.65 395.758L2045 389.411L2041.27 385.682L2034.93 392.029ZM2078.75 356.69L2075.54 353.474L2062.19 366.816L2065.41 370.031L2078.75 356.69ZM2102.89 324.068L2096.14 317.322L2092.31 321.151L2099.06 327.896L2092.7 334.26L2096.42 337.989L2102.79 331.625L2109.88 338.718L2113.71 334.89L2106.62 327.797L2112.96 321.449L2109.24 317.72L2102.89 324.068ZM2146.71 288.728L2143.5 285.513L2130.16 298.854L2133.37 302.069L2146.71 288.728ZM2170.85 256.106L2164.1 249.361L2160.28 253.189L2167.02 259.934L2160.66 266.298L2164.39 270.027L2170.75 263.663L2177.84 270.756L2181.67 266.928L2174.58 259.835L2180.93 253.487L2177.2 249.758L2170.85 256.106Z" fill="#141414"/>
<path d="M1762.71 528.539L1755.97 521.794L1752.14 525.622L1758.88 532.367L1752.52 538.731L1756.25 542.46L1762.61 536.096L1769.71 543.189L1773.53 539.361L1766.44 532.268L1772.79 525.921L1769.06 522.192L1762.71 528.539ZM1806.54 493.199L1803.32 489.984L1789.98 503.325L1793.2 506.54L1806.54 493.199ZM1830.67 460.577L1823.93 453.832L1820.1 457.661L1826.85 464.406L1820.48 470.77L1824.21 474.498L1830.58 468.135L1837.67 475.228L1841.5 471.399L1834.4 464.306L1840.75 457.959L1837.02 454.23L1830.67 460.577ZM1874.5 425.237L1871.28 422.022L1857.94 435.363L1861.16 438.579L1874.5 425.237ZM1898.64 392.616L1891.89 385.87L1888.06 389.699L1894.81 396.444L1888.44 402.808L1892.17 406.537L1898.54 400.173L1905.63 407.266L1909.46 403.438L1902.37 396.344L1908.71 389.997L1904.98 386.268L1898.64 392.616ZM1942.46 357.276L1939.25 354.061L1925.91 367.402L1929.12 370.617L1942.46 357.276ZM1966.6 324.654L1959.85 317.909L1956.02 321.737L1962.77 328.482L1956.41 334.846L1960.13 338.575L1966.5 332.211L1973.59 339.304L1977.42 335.476L1970.33 328.383L1976.67 322.035L1972.95 318.306L1966.6 324.654ZM2010.42 289.314L2007.21 286.099L1993.87 299.44L1997.08 302.655L2010.42 289.314ZM2034.56 256.692L2027.81 249.947L2023.99 253.775L2030.73 260.52L2024.37 266.884L2028.1 270.613L2034.46 264.249L2041.55 271.342L2045.38 267.514L2038.29 260.421L2044.64 254.073L2040.91 250.345L2034.56 256.692ZM2078.39 221.352L2075.17 218.137L2061.83 231.478L2065.04 234.693L2078.39 221.352ZM2102.52 188.73L2095.78 181.985L2091.95 185.813L2098.69 192.558L2092.33 198.922L2096.06 202.651L2102.42 196.287L2109.52 203.38L2113.34 199.552L2106.25 192.459L2112.6 186.112L2108.87 182.383L2102.52 188.73Z" fill="#141414"/>
<path d="M1899.43 663.525L1892.69 656.78L1888.86 660.608L1895.61 667.353L1889.24 673.717L1892.97 677.446L1899.34 671.082L1906.43 678.175L1910.26 674.347L1903.16 667.254L1909.51 660.906L1905.78 657.177L1899.43 663.525ZM1943.26 628.185L1940.04 624.97L1926.7 638.311L1929.92 641.526L1943.26 628.185ZM1967.4 595.563L1960.65 588.818L1956.82 592.646L1963.57 599.391L1957.2 605.755L1960.93 609.484L1967.3 603.12L1974.39 610.213L1978.22 606.385L1971.13 599.292L1977.47 592.945L1973.74 589.216L1967.4 595.563ZM2011.22 560.223L2008.01 557.008L1994.67 570.349L1997.88 573.564L2011.22 560.223ZM2035.36 527.601L2028.61 520.856L2024.78 524.684L2031.53 531.43L2025.17 537.794L2028.89 541.522L2035.26 535.158L2042.35 542.252L2046.18 538.423L2039.09 531.33L2045.43 524.983L2041.71 521.254L2035.36 527.601ZM2079.18 492.261L2075.97 489.046L2062.63 502.387L2065.84 505.602L2079.18 492.261ZM2103.32 459.639L2096.57 452.894L2092.75 456.723L2099.49 463.468L2093.13 469.832L2096.86 473.561L2103.22 467.197L2110.31 474.29L2114.14 470.461L2107.05 463.368L2113.4 457.021L2109.67 453.292L2103.32 459.639ZM2147.15 424.3L2143.93 421.084L2130.59 434.426L2133.8 437.641L2147.15 424.3ZM2171.28 391.678L2164.54 384.932L2160.71 388.761L2167.45 395.506L2161.09 401.87L2164.82 405.599L2171.18 399.235L2178.28 406.328L2182.1 402.5L2175.01 395.406L2181.36 389.059L2177.63 385.33L2171.28 391.678ZM2215.11 356.338L2211.89 353.123L2198.55 366.464L2201.77 369.679L2215.11 356.338ZM2239.24 323.716L2232.5 316.971L2228.67 320.799L2235.42 327.544L2229.05 333.908L2232.78 337.637L2239.14 331.273L2246.24 338.366L2250.07 334.538L2242.97 327.445L2249.32 321.097L2245.59 317.368L2239.24 323.716Z" fill="#141414"/>
<path d="M1695.22 459.727L1688.48 452.982L1684.65 456.81L1691.39 463.555L1685.03 469.919L1688.76 473.648L1695.12 467.284L1702.22 474.377L1706.05 470.549L1698.95 463.456L1705.3 457.108L1701.57 453.379L1695.22 459.727ZM1739.05 424.387L1735.83 421.172L1722.49 434.513L1725.71 437.728L1739.05 424.387ZM1763.18 391.765L1756.44 385.02L1752.61 388.848L1759.36 395.593L1752.99 401.957L1756.72 405.686L1763.09 399.322L1770.18 406.415L1774.01 402.587L1766.91 395.494L1773.26 389.146L1769.53 385.418L1763.18 391.765ZM1807.01 356.425L1803.79 353.21L1790.45 366.551L1793.67 369.766L1807.01 356.425ZM1831.15 323.803L1824.4 317.058L1820.57 320.886L1827.32 327.631L1820.95 333.995L1824.68 337.724L1831.05 331.36L1838.14 338.454L1841.97 334.625L1834.88 327.532L1841.22 321.185L1837.49 317.456L1831.15 323.803ZM1874.97 288.463L1871.76 285.248L1858.42 298.589L1861.63 301.804L1874.97 288.463ZM1899.11 255.841L1892.36 249.096L1888.53 252.925L1895.28 259.67L1888.92 266.034L1892.64 269.763L1899.01 263.399L1906.1 270.492L1909.93 266.663L1902.84 259.57L1909.18 253.223L1905.46 249.494L1899.11 255.841ZM1942.93 220.501L1939.72 217.286L1926.38 230.627L1929.59 233.843L1942.93 220.501ZM1967.07 187.88L1960.33 181.134L1956.5 184.963L1963.24 191.708L1956.88 198.072L1960.61 201.801L1966.97 195.437L1974.06 202.53L1977.89 198.702L1970.8 191.608L1977.15 185.261L1973.42 181.532L1967.07 187.88ZM2010.9 152.54L2007.68 149.325L1994.34 162.666L1997.55 165.881L2010.9 152.54ZM2035.03 119.918L2028.29 113.173L2024.46 117.001L2031.2 123.746L2024.84 130.11L2028.57 133.839L2034.93 127.475L2042.03 134.568L2045.85 130.74L2038.76 123.647L2045.11 117.299L2041.38 113.57L2035.03 119.918Z" fill="#141414"/>
<path d="M1902.78 260.636L1909.52 253.891L1905.7 250.063L1898.95 256.808L1892.59 250.444L1888.86 254.173L1895.22 260.537L1888.13 267.63L1891.96 271.458L1899.05 264.365L1905.4 270.712L1909.13 266.983L1902.78 260.636ZM1938.12 304.461L1941.33 301.246L1927.99 287.905L1924.78 291.12L1938.12 304.461ZM1970.74 328.598L1977.49 321.853L1973.66 318.024L1966.91 324.77L1960.55 318.406L1956.82 322.134L1963.18 328.498L1956.09 335.592L1959.92 339.42L1967.01 332.327L1973.36 338.674L1977.09 334.945L1970.74 328.598ZM2006.08 372.423L2009.3 369.208L1995.95 355.867L1992.74 359.082L2006.08 372.423ZM2038.7 396.56L2045.45 389.815L2041.62 385.986L2034.87 392.731L2028.51 386.367L2024.78 390.096L2031.15 396.46L2024.05 403.553L2027.88 407.382L2034.97 400.289L2041.32 406.636L2045.05 402.907L2038.7 396.56ZM2074.04 440.385L2077.26 437.17L2063.92 423.829L2060.7 427.044L2074.04 440.385ZM2106.66 464.521L2113.41 457.776L2109.58 453.948L2102.84 460.693L2096.47 454.329L2092.74 458.058L2099.11 464.422L2092.01 471.515L2095.84 475.343L2102.94 468.25L2109.28 474.598L2113.01 470.869L2106.66 464.521ZM2142 508.347L2145.22 505.131L2131.88 491.79L2128.66 495.005L2142 508.347Z" fill="#141414"/>
<path d="M1969.95 192.046L1976.7 185.301L1972.87 181.473L1966.13 188.218L1959.76 181.854L1956.03 185.583L1962.4 191.947L1955.3 199.04L1959.13 202.868L1966.23 195.775L1972.57 202.123L1976.3 198.394L1969.95 192.046ZM2005.29 235.872L2008.51 232.656L1995.17 219.315L1991.95 222.53L2005.29 235.872ZM2037.92 260.008L2044.66 253.263L2040.83 249.435L2034.09 256.18L2027.72 249.816L2023.99 253.545L2030.36 259.909L2023.27 267.002L2027.09 270.83L2034.19 263.737L2040.53 270.085L2044.26 266.356L2037.92 260.008ZM2073.26 303.833L2076.47 300.618L2063.13 287.277L2059.91 290.492L2073.26 303.833ZM2105.88 327.97L2112.62 321.225L2108.79 317.397L2102.05 324.142L2095.69 317.778L2091.96 321.507L2098.32 327.871L2091.23 334.964L2095.06 338.792L2102.15 331.699L2108.5 338.046L2112.23 334.317L2105.88 327.97ZM2141.22 371.795L2144.43 368.58L2131.09 355.239L2127.88 358.454L2141.22 371.795ZM2173.84 395.932L2180.58 389.187L2176.76 385.358L2170.01 392.104L2163.65 385.74L2159.92 389.468L2166.28 395.832L2159.19 402.926L2163.02 406.754L2170.11 399.661L2176.46 406.008L2180.19 402.279L2173.84 395.932ZM2209.18 439.757L2212.39 436.542L2199.05 423.201L2195.84 426.416L2209.18 439.757Z" fill="#141414"/>
<path d="M2038.54 124.871L2045.29 118.126L2041.46 114.298L2034.72 121.043L2028.35 114.679L2024.62 118.408L2030.99 124.772L2023.89 131.865L2027.72 135.693L2034.81 128.6L2041.16 134.948L2044.89 131.219L2038.54 124.871ZM2073.88 168.697L2077.1 165.481L2063.76 152.14L2060.54 155.355L2073.88 168.697ZM2106.51 192.833L2113.25 186.088L2109.42 182.26L2102.68 189.005L2096.31 182.641L2092.58 186.37L2098.95 192.734L2091.85 199.827L2095.68 203.655L2102.78 196.562L2109.12 202.909L2112.85 199.181L2106.51 192.833ZM2141.85 236.658L2145.06 233.443L2131.72 220.102L2128.5 223.317L2141.85 236.658ZM2174.47 260.795L2181.21 254.05L2177.38 250.222L2170.64 256.967L2164.27 250.603L2160.55 254.332L2166.91 260.696L2159.82 267.789L2163.64 271.617L2170.74 264.524L2177.09 270.871L2180.81 267.142L2174.47 260.795ZM2209.81 304.62L2213.02 301.405L2199.68 288.064L2196.47 291.279L2209.81 304.62ZM2242.43 328.757L2249.17 322.012L2245.35 318.183L2238.6 324.928L2232.24 318.565L2228.51 322.293L2234.87 328.657L2227.78 335.751L2231.61 339.579L2238.7 332.486L2245.05 338.833L2248.78 335.104L2242.43 328.757ZM2277.77 372.582L2280.98 369.367L2267.64 356.026L2264.43 359.241L2277.77 372.582Z" fill="#141414"/>
<path d="M1834.9 328.518L1841.64 321.773L1837.81 317.945L1831.07 324.69L1824.7 318.326L1820.98 322.055L1827.34 328.419L1820.25 335.512L1824.07 339.34L1831.17 332.247L1837.52 338.594L1841.24 334.866L1834.9 328.518ZM1870.24 372.343L1873.45 369.128L1860.11 355.787L1856.9 359.002L1870.24 372.343ZM1902.86 396.48L1909.6 389.735L1905.78 385.906L1899.03 392.652L1892.67 386.288L1888.94 390.017L1895.3 396.38L1888.21 403.474L1892.04 407.302L1899.13 400.209L1905.48 406.556L1909.21 402.827L1902.86 396.48ZM1938.2 440.305L1941.41 437.09L1928.07 423.749L1924.86 426.964L1938.2 440.305ZM1970.82 464.442L1977.57 457.697L1973.74 453.868L1966.99 460.613L1960.63 454.249L1956.9 457.978L1963.26 464.342L1956.17 471.435L1960 475.264L1967.09 468.171L1973.44 474.518L1977.17 470.789L1970.82 464.442ZM2006.16 508.267L2009.38 505.052L1996.03 491.711L1992.82 494.926L2006.16 508.267ZM2038.78 532.404L2045.53 525.658L2041.7 521.83L2034.95 528.575L2028.59 522.211L2024.86 525.94L2031.22 532.304L2024.13 539.397L2027.96 543.226L2035.05 536.132L2041.4 542.48L2045.13 538.751L2038.78 532.404ZM2074.12 576.229L2077.34 573.014L2064 559.672L2060.78 562.888L2074.12 576.229Z" fill="#141414"/>
<path d="M1767.01 396.4L1773.76 389.655L1769.93 385.827L1763.19 392.572L1756.82 386.208L1753.09 389.937L1759.46 396.301L1752.36 403.394L1756.19 407.222L1763.29 400.129L1769.63 406.477L1773.36 402.748L1767.01 396.4ZM1802.35 440.226L1805.57 437.01L1792.23 423.669L1789.01 426.884L1802.35 440.226ZM1834.98 464.362L1841.72 457.617L1837.89 453.789L1831.15 460.534L1824.78 454.17L1821.05 457.899L1827.42 464.263L1820.33 471.356L1824.15 475.184L1831.25 468.091L1837.59 474.439L1841.32 470.71L1834.98 464.362ZM1870.32 508.187L1873.53 504.972L1860.19 491.631L1856.97 494.846L1870.32 508.187ZM1902.94 532.324L1909.68 525.579L1905.85 521.751L1899.11 528.496L1892.75 522.132L1889.02 525.861L1895.38 532.225L1888.29 539.318L1892.12 543.146L1899.21 536.053L1905.56 542.4L1909.29 538.671L1902.94 532.324ZM1938.28 576.149L1941.49 572.934L1928.15 559.593L1924.94 562.808L1938.28 576.149ZM1970.9 600.286L1977.64 593.541L1973.82 589.712L1967.07 596.458L1960.71 590.094L1956.98 593.822L1963.34 600.186L1956.25 607.28L1960.08 611.108L1967.17 604.015L1973.52 610.362L1977.25 606.633L1970.9 600.286Z" fill="#141414"/>
<path d="M1698.42 463.575L1705.17 456.83L1701.34 453.002L1694.6 459.747L1688.23 453.383L1684.5 457.112L1690.87 463.476L1683.77 470.569L1687.6 474.398L1694.7 467.304L1701.04 473.652L1704.77 469.923L1698.42 463.575ZM1733.76 507.401L1736.98 504.186L1723.64 490.844L1720.42 494.06L1733.76 507.401ZM1766.39 531.537L1773.13 524.792L1769.3 520.964L1762.56 527.709L1756.19 521.345L1752.47 525.074L1758.83 531.438L1751.74 538.531L1755.56 542.359L1762.66 535.266L1769.01 541.614L1772.73 537.885L1766.39 531.537ZM1801.73 575.362L1804.94 572.147L1791.6 558.806L1788.39 562.021L1801.73 575.362ZM1834.35 599.499L1841.09 592.754L1837.27 588.926L1830.52 595.671L1824.16 589.307L1820.43 593.036L1826.79 599.4L1819.7 606.493L1823.53 610.321L1830.62 603.228L1836.97 609.575L1840.7 605.846L1834.35 599.499ZM1869.69 643.324L1872.9 640.109L1859.56 626.768L1856.35 629.983L1869.69 643.324ZM1902.31 667.461L1909.06 660.716L1905.23 656.887L1898.48 663.633L1892.12 657.269L1888.39 660.997L1894.75 667.361L1887.66 674.455L1891.49 678.283L1898.58 671.19L1904.93 677.537L1908.66 673.808L1902.31 667.461Z" fill="#141414"/>
<path d="M1015.25 594.915L1008.51 588.17L1004.68 591.998L1011.42 598.743L1005.06 605.107L1008.79 608.836L1015.15 602.472L1022.25 609.565L1026.07 605.737L1018.98 598.644L1025.33 592.296L1021.6 588.567L1015.25 594.915ZM1059.08 559.575L1055.86 556.36L1042.52 569.701L1045.74 572.916L1059.08 559.575ZM1083.21 526.953L1076.47 520.208L1072.64 524.036L1079.39 530.781L1073.02 537.145L1076.75 540.874L1083.11 534.51L1090.21 541.603L1094.04 537.775L1086.94 530.682L1093.29 524.335L1089.56 520.606L1083.21 526.953ZM1127.04 491.613L1123.82 488.398L1110.48 501.739L1113.7 504.954L1127.04 491.613ZM1151.18 458.991L1144.43 452.246L1140.6 456.074L1147.35 462.82L1140.98 469.184L1144.71 472.912L1151.08 466.548L1158.17 473.642L1162 469.813L1154.9 462.72L1161.25 456.373L1157.52 452.644L1151.18 458.991ZM1195 423.651L1191.79 420.436L1178.44 433.777L1181.66 436.992L1195 423.651ZM1219.14 391.029L1212.39 384.284L1208.56 388.113L1215.31 394.858L1208.95 401.222L1212.67 404.951L1219.04 398.587L1226.13 405.68L1229.96 401.851L1222.87 394.758L1229.21 388.411L1225.49 384.682L1219.14 391.029ZM1262.96 355.69L1259.75 352.474L1246.41 365.816L1249.62 369.031L1262.96 355.69ZM1287.1 323.068L1280.35 316.322L1276.53 320.151L1283.27 326.896L1276.91 333.26L1280.64 336.989L1287 330.625L1294.09 337.718L1297.92 333.89L1290.83 326.797L1297.18 320.449L1293.45 316.72L1287.1 323.068ZM1330.92 287.728L1327.71 284.513L1314.37 297.854L1317.58 301.069L1330.92 287.728ZM1355.06 255.106L1348.32 248.361L1344.49 252.189L1351.23 258.934L1344.87 265.298L1348.6 269.027L1354.96 262.663L1362.05 269.756L1365.88 265.928L1358.79 258.835L1365.14 252.487L1361.41 248.758L1355.06 255.106Z" fill="#141414"/>
<path d="M946.924 527.539L940.179 520.794L936.351 524.622L943.096 531.367L936.732 537.731L940.461 541.46L946.825 535.096L953.918 542.189L957.746 538.361L950.653 531.268L957.001 524.921L953.272 521.192L946.924 527.539ZM990.75 492.199L987.534 488.984L974.193 502.325L977.408 505.54L990.75 492.199ZM1014.89 459.577L1008.14 452.832L1004.31 456.661L1011.06 463.406L1004.69 469.77L1008.42 473.498L1014.79 467.135L1021.88 474.228L1025.71 470.399L1018.62 463.306L1024.96 456.959L1021.23 453.23L1014.89 459.577ZM1058.71 424.237L1055.5 421.022L1042.16 434.363L1045.37 437.579L1058.71 424.237ZM1082.85 391.616L1076.1 384.87L1072.27 388.699L1079.02 395.444L1072.66 401.808L1076.38 405.537L1082.75 399.173L1089.84 406.266L1093.67 402.438L1086.58 395.344L1092.92 388.997L1089.2 385.268L1082.85 391.616ZM1126.67 356.276L1123.46 353.061L1110.12 366.402L1113.33 369.617L1126.67 356.276ZM1150.81 323.654L1144.06 316.909L1140.24 320.737L1146.98 327.482L1140.62 333.846L1144.35 337.575L1150.71 331.211L1157.8 338.304L1161.63 334.476L1154.54 327.383L1160.89 321.035L1157.16 317.306L1150.81 323.654ZM1194.63 288.314L1191.42 285.099L1178.08 298.44L1181.29 301.655L1194.63 288.314ZM1218.77 255.692L1212.03 248.947L1208.2 252.775L1214.94 259.52L1208.58 265.884L1212.31 269.613L1218.67 263.249L1225.77 270.342L1229.59 266.514L1222.5 259.421L1228.85 253.073L1225.12 249.345L1218.77 255.692ZM1262.6 220.352L1259.38 217.137L1246.04 230.478L1249.26 233.693L1262.6 220.352ZM1286.73 187.73L1279.99 180.985L1276.16 184.813L1282.91 191.558L1276.54 197.922L1280.27 201.651L1286.63 195.287L1293.73 202.38L1297.56 198.552L1290.46 191.459L1296.81 185.112L1293.08 181.383L1286.73 187.73Z" fill="#141414"/>
<path d="M1083.65 662.525L1076.9 655.78L1073.07 659.608L1079.82 666.353L1073.45 672.717L1077.18 676.446L1083.55 670.082L1090.64 677.175L1094.47 673.347L1087.38 666.254L1093.72 659.906L1089.99 656.177L1083.65 662.525ZM1127.47 627.185L1124.26 623.97L1110.92 637.311L1114.13 640.526L1127.47 627.185ZM1151.61 594.563L1144.86 587.818L1141.03 591.646L1147.78 598.391L1141.42 604.755L1145.14 608.484L1151.51 602.12L1158.6 609.213L1162.43 605.385L1155.34 598.292L1161.68 591.945L1157.96 588.216L1151.61 594.563ZM1195.43 559.223L1192.22 556.008L1178.88 569.349L1182.09 572.564L1195.43 559.223ZM1219.57 526.601L1212.82 519.856L1209 523.684L1215.74 530.43L1209.38 536.794L1213.11 540.522L1219.47 534.158L1226.56 541.252L1230.39 537.423L1223.3 530.33L1229.65 523.983L1225.92 520.254L1219.57 526.601ZM1263.4 491.261L1260.18 488.046L1246.84 501.387L1250.05 504.602L1263.4 491.261ZM1287.53 458.639L1280.79 451.894L1276.96 455.723L1283.7 462.468L1277.34 468.832L1281.07 472.561L1287.43 466.197L1294.53 473.29L1298.35 469.461L1291.26 462.368L1297.61 456.021L1293.88 452.292L1287.53 458.639ZM1331.36 423.3L1328.14 420.084L1314.8 433.426L1318.02 436.641L1331.36 423.3ZM1355.49 390.678L1348.75 383.932L1344.92 387.761L1351.67 394.506L1345.3 400.87L1349.03 404.599L1355.39 398.235L1362.49 405.328L1366.32 401.5L1359.22 394.406L1365.57 388.059L1361.84 384.33L1355.49 390.678ZM1399.32 355.338L1396.1 352.123L1382.76 365.464L1385.98 368.679L1399.32 355.338ZM1423.46 322.716L1416.71 315.971L1412.88 319.799L1419.63 326.544L1413.26 332.908L1416.99 336.637L1423.36 330.273L1430.45 337.366L1434.28 333.538L1427.18 326.445L1433.53 320.097L1429.8 316.368L1423.46 322.716Z" fill="#141414"/>
<path d="M879.435 458.727L872.689 451.982L868.861 455.81L875.606 462.555L869.242 468.919L872.971 472.648L879.335 466.284L886.428 473.377L890.257 469.549L883.164 462.456L889.511 456.108L885.782 452.379L879.435 458.727ZM923.26 423.387L920.045 420.172L906.704 433.513L909.919 436.728L923.26 423.387ZM947.396 390.765L940.651 384.02L936.823 387.848L943.568 394.593L937.204 400.957L940.933 404.686L947.297 398.322L954.39 405.415L958.218 401.587L951.125 394.494L957.473 388.146L953.744 384.418L947.396 390.765ZM991.222 355.425L988.006 352.21L974.665 365.551L977.88 368.766L991.222 355.425ZM1015.36 322.803L1008.61 316.058L1004.78 319.886L1011.53 326.631L1005.17 332.995L1008.89 336.724L1015.26 330.36L1022.35 337.454L1026.18 333.625L1019.09 326.532L1025.43 320.185L1021.71 316.456L1015.36 322.803ZM1059.18 287.463L1055.97 284.248L1042.63 297.589L1045.84 300.804L1059.18 287.463ZM1083.32 254.841L1076.57 248.096L1072.75 251.925L1079.49 258.67L1073.13 265.034L1076.86 268.763L1083.22 262.399L1090.31 269.492L1094.14 265.663L1087.05 258.57L1093.4 252.223L1089.67 248.494L1083.32 254.841ZM1127.15 219.501L1123.93 216.286L1110.59 229.627L1113.8 232.843L1127.15 219.501ZM1151.28 186.88L1144.54 180.134L1140.71 183.963L1147.45 190.708L1141.09 197.072L1144.82 200.801L1151.18 194.437L1158.28 201.53L1162.1 197.702L1155.01 190.608L1161.36 184.261L1157.63 180.532L1151.28 186.88ZM1195.11 151.54L1191.89 148.325L1178.55 161.666L1181.77 164.881L1195.11 151.54ZM1219.24 118.918L1212.5 112.173L1208.67 116.001L1215.42 122.746L1209.05 129.11L1212.78 132.839L1219.14 126.475L1226.24 133.568L1230.07 129.74L1222.97 122.647L1229.32 116.299L1225.59 112.57L1219.24 118.918Z" fill="#141414"/>
<path d="M1086.99 259.636L1093.74 252.891L1089.91 249.063L1083.16 255.808L1076.8 249.444L1073.07 253.173L1079.43 259.537L1072.34 266.63L1076.17 270.458L1083.26 263.365L1089.61 269.712L1093.34 265.983L1086.99 259.636ZM1122.33 303.461L1125.55 300.246L1112.2 286.905L1108.99 290.12L1122.33 303.461ZM1154.95 327.598L1161.7 320.853L1157.87 317.024L1151.12 323.77L1144.76 317.406L1141.03 321.134L1147.4 327.498L1140.3 334.592L1144.13 338.42L1151.22 331.327L1157.57 337.674L1161.3 333.945L1154.95 327.598ZM1190.29 371.423L1193.51 368.208L1180.17 354.867L1176.95 358.082L1190.29 371.423ZM1222.91 395.56L1229.66 388.815L1225.83 384.986L1219.09 391.731L1212.72 385.367L1208.99 389.096L1215.36 395.46L1208.26 402.553L1212.09 406.382L1219.19 399.289L1225.53 405.636L1229.26 401.907L1222.91 395.56ZM1258.25 439.385L1261.47 436.17L1248.13 422.829L1244.91 426.044L1258.25 439.385ZM1290.88 463.521L1297.62 456.776L1293.79 452.948L1287.05 459.693L1280.68 453.329L1276.95 457.058L1283.32 463.422L1276.23 470.515L1280.05 474.343L1287.15 467.25L1293.49 473.598L1297.22 469.869L1290.88 463.521ZM1326.22 507.347L1329.43 504.131L1316.09 490.79L1312.87 494.005L1326.22 507.347Z" fill="#141414"/>
<path d="M1154.17 191.046L1160.91 184.301L1157.08 180.473L1150.34 187.218L1143.97 180.854L1140.24 184.583L1146.61 190.947L1139.52 198.04L1143.34 201.868L1150.44 194.775L1156.78 201.123L1160.51 197.394L1154.17 191.046ZM1189.51 234.872L1192.72 231.656L1179.38 218.315L1176.16 221.53L1189.51 234.872ZM1222.13 259.008L1228.87 252.263L1225.04 248.435L1218.3 255.18L1211.94 248.816L1208.21 252.545L1214.57 258.909L1207.48 266.002L1211.31 269.83L1218.4 262.737L1224.75 269.085L1228.47 265.356L1222.13 259.008ZM1257.47 302.833L1260.68 299.618L1247.34 286.277L1244.13 289.492L1257.47 302.833ZM1290.09 326.97L1296.83 320.225L1293.01 316.397L1286.26 323.142L1279.9 316.778L1276.17 320.507L1282.53 326.871L1275.44 333.964L1279.27 337.792L1286.36 330.699L1292.71 337.046L1296.44 333.317L1290.09 326.97ZM1325.43 370.795L1328.64 367.58L1315.3 354.239L1312.09 357.454L1325.43 370.795ZM1358.05 394.932L1364.8 388.187L1360.97 384.358L1354.22 391.104L1347.86 384.74L1344.13 388.468L1350.49 394.832L1343.4 401.926L1347.23 405.754L1354.32 398.661L1360.67 405.008L1364.4 401.279L1358.05 394.932ZM1393.39 438.757L1396.61 435.542L1383.26 422.201L1380.05 425.416L1393.39 438.757Z" fill="#141414"/>
<path d="M1222.76 123.871L1229.5 117.126L1225.67 113.298L1218.93 120.043L1212.56 113.679L1208.83 117.408L1215.2 123.772L1208.1 130.865L1211.93 134.693L1219.03 127.6L1225.37 133.948L1229.1 130.219L1222.76 123.871ZM1258.09 167.697L1261.31 164.481L1247.97 151.14L1244.75 154.355L1258.09 167.697ZM1290.72 191.833L1297.46 185.088L1293.63 181.26L1286.89 188.005L1280.52 181.641L1276.8 185.37L1283.16 191.734L1276.07 198.827L1279.89 202.655L1286.99 195.562L1293.34 201.909L1297.06 198.181L1290.72 191.833ZM1326.06 235.658L1329.27 232.443L1315.93 219.102L1312.72 222.317L1326.06 235.658ZM1358.68 259.795L1365.42 253.05L1361.6 249.222L1354.85 255.967L1348.49 249.603L1344.76 253.332L1351.12 259.696L1344.03 266.789L1347.86 270.617L1354.95 263.524L1361.3 269.871L1365.03 266.142L1358.68 259.795ZM1394.02 303.62L1397.23 300.405L1383.89 287.064L1380.68 290.279L1394.02 303.62ZM1426.64 327.757L1433.39 321.012L1429.56 317.183L1422.81 323.928L1416.45 317.565L1412.72 321.293L1419.08 327.657L1411.99 334.751L1415.82 338.579L1422.91 331.486L1429.26 337.833L1432.99 334.104L1426.64 327.757ZM1461.98 371.582L1465.2 368.367L1451.85 355.026L1448.64 358.241L1461.98 371.582Z" fill="#141414"/>
<path d="M1019.11 327.518L1025.85 320.773L1022.03 316.945L1015.28 323.69L1008.92 317.326L1005.19 321.055L1011.55 327.419L1004.46 334.512L1008.29 338.34L1015.38 331.247L1021.73 337.594L1025.46 333.866L1019.11 327.518ZM1054.45 371.343L1057.66 368.128L1044.32 354.787L1041.11 358.002L1054.45 371.343ZM1087.07 395.48L1093.82 388.735L1089.99 384.906L1083.24 391.652L1076.88 385.288L1073.15 389.017L1079.51 395.38L1072.42 402.474L1076.25 406.302L1083.34 399.209L1089.69 405.556L1093.42 401.827L1087.07 395.48ZM1122.41 439.305L1125.63 436.09L1112.28 422.749L1109.07 425.964L1122.41 439.305ZM1155.03 463.442L1161.78 456.697L1157.95 452.868L1151.2 459.613L1144.84 453.249L1141.11 456.978L1147.47 463.342L1140.38 470.435L1144.21 474.264L1151.3 467.171L1157.65 473.518L1161.38 469.789L1155.03 463.442ZM1190.37 507.267L1193.59 504.052L1180.25 490.711L1177.03 493.926L1190.37 507.267ZM1222.99 531.404L1229.74 524.658L1225.91 520.83L1219.17 527.575L1212.8 521.211L1209.07 524.94L1215.44 531.304L1208.34 538.397L1212.17 542.226L1219.26 535.132L1225.61 541.48L1229.34 537.751L1222.99 531.404ZM1258.33 575.229L1261.55 572.014L1248.21 558.672L1244.99 561.888L1258.33 575.229Z" fill="#141414"/>
<path d="M951.226 395.4L957.971 388.655L954.143 384.827L947.398 391.572L941.034 385.208L937.305 388.937L943.669 395.301L936.576 402.394L940.404 406.222L947.497 399.129L953.845 405.477L957.573 401.748L951.226 395.4ZM986.566 439.226L989.781 436.01L976.44 422.669L973.225 425.884L986.566 439.226ZM1019.19 463.362L1025.93 456.617L1022.1 452.789L1015.36 459.534L1009 453.17L1005.27 456.899L1011.63 463.263L1004.54 470.356L1008.37 474.184L1015.46 467.091L1021.81 473.439L1025.54 469.71L1019.19 463.362ZM1054.53 507.187L1057.74 503.972L1044.4 490.631L1041.19 493.846L1054.53 507.187ZM1087.15 531.324L1093.89 524.579L1090.07 520.751L1083.32 527.496L1076.96 521.132L1073.23 524.861L1079.59 531.225L1072.5 538.318L1076.33 542.146L1083.42 535.053L1089.77 541.4L1093.5 537.671L1087.15 531.324ZM1122.49 575.149L1125.7 571.934L1112.36 558.593L1109.15 561.808L1122.49 575.149ZM1155.11 599.286L1161.86 592.541L1158.03 588.712L1151.28 595.458L1144.92 589.094L1141.19 592.822L1147.55 599.186L1140.46 606.28L1144.29 610.108L1151.38 603.015L1157.73 609.362L1161.46 605.633L1155.11 599.286Z" fill="#141414"/>
<path d="M882.637 462.575L889.382 455.83L885.553 452.002L878.808 458.747L872.444 452.383L868.715 456.112L875.079 462.476L867.986 469.569L871.815 473.398L878.908 466.304L885.255 472.652L888.984 468.923L882.637 462.575ZM917.977 506.401L921.192 503.186L907.851 489.844L904.635 493.06L917.977 506.401ZM950.598 530.537L957.344 523.792L953.515 519.964L946.77 526.709L940.406 520.345L936.677 524.074L943.041 530.438L935.948 537.531L939.776 541.359L946.87 534.266L953.217 540.614L956.946 536.885L950.598 530.537ZM985.938 574.362L989.153 571.147L975.812 557.806L972.597 561.021L985.938 574.362ZM1018.56 598.499L1025.31 591.754L1021.48 587.926L1014.73 594.671L1008.37 588.307L1004.64 592.036L1011 598.4L1003.91 605.493L1007.74 609.321L1014.83 602.228L1021.18 608.575L1024.91 604.846L1018.56 598.499ZM1053.9 642.324L1057.12 639.109L1043.77 625.768L1040.56 628.983L1053.9 642.324ZM1086.52 666.461L1093.27 659.716L1089.44 655.887L1082.69 662.633L1076.33 656.269L1072.6 659.997L1078.96 666.361L1071.87 673.455L1075.7 677.283L1082.79 670.19L1089.14 676.537L1092.87 672.808L1086.52 666.461Z" fill="#141414"/>
<path d="M608.041 594.915L601.295 588.17L597.467 591.998L604.212 598.743L597.848 605.107L601.577 608.836L607.941 602.472L615.034 609.565L618.863 605.737L611.769 598.644L618.117 592.296L614.388 588.567L608.041 594.915ZM651.866 559.575L648.651 556.36L635.309 569.701L638.525 572.916L651.866 559.575ZM676.002 526.953L669.257 520.208L665.429 524.036L672.174 530.781L665.81 537.145L669.539 540.874L675.903 534.51L682.996 541.603L686.824 537.775L679.731 530.682L686.079 524.335L682.35 520.606L676.002 526.953ZM719.828 491.613L716.612 488.398L703.271 501.739L706.486 504.954L719.828 491.613ZM743.964 458.991L737.219 452.246L733.391 456.074L740.136 462.82L733.772 469.184L737.501 472.912L743.865 466.548L750.958 473.642L754.786 469.813L747.693 462.72L754.04 456.373L750.312 452.644L743.964 458.991ZM787.789 423.651L784.574 420.436L771.233 433.777L774.448 436.992L787.789 423.651ZM811.926 391.029L805.181 384.284L801.353 388.113L808.098 394.858L801.734 401.222L805.463 404.951L811.827 398.587L818.92 405.68L822.748 401.851L815.655 394.758L822.002 388.411L818.273 384.682L811.926 391.029ZM855.751 355.69L852.536 352.474L839.195 365.816L842.41 369.031L855.751 355.69ZM879.888 323.068L873.143 316.322L869.314 320.151L876.059 326.896L869.696 333.26L873.424 336.989L879.788 330.625L886.882 337.718L890.71 333.89L883.617 326.797L889.964 320.449L886.235 316.72L879.888 323.068ZM923.713 287.728L920.498 284.513L907.157 297.854L910.372 301.069L923.713 287.728ZM947.85 255.106L941.104 248.361L937.276 252.189L944.021 258.934L937.657 265.298L941.386 269.027L947.75 262.663L954.843 269.756L958.672 265.928L951.578 258.835L957.926 252.487L954.197 248.758L947.85 255.106Z" fill="#141414"/>
<path d="M539.713 527.539L532.968 520.794L529.139 524.622L535.884 531.367L529.52 537.731L533.249 541.46L539.613 535.096L546.706 542.189L550.535 538.361L543.442 531.268L549.789 524.921L546.06 521.192L539.713 527.539ZM583.538 492.199L580.323 488.984L566.982 502.325L570.197 505.54L583.538 492.199ZM607.675 459.577L600.929 452.832L597.101 456.661L603.846 463.406L597.482 469.77L601.211 473.498L607.575 467.135L614.668 474.228L618.497 470.399L611.403 463.306L617.751 456.959L614.022 453.23L607.675 459.577ZM651.5 424.237L648.285 421.022L634.943 434.363L638.159 437.579L651.5 424.237ZM675.636 391.616L668.891 384.87L665.063 388.699L671.808 395.444L665.444 401.808L669.173 405.537L675.537 399.173L682.63 406.266L686.458 402.438L679.365 395.344L685.713 388.997L681.984 385.268L675.636 391.616ZM719.461 356.276L716.246 353.061L702.905 366.402L706.12 369.617L719.461 356.276ZM743.598 323.654L736.853 316.909L733.025 320.737L739.77 327.482L733.406 333.846L737.135 337.575L743.499 331.211L750.592 338.304L754.42 334.476L747.327 327.383L753.674 321.035L749.945 317.306L743.598 323.654ZM787.423 288.314L784.208 285.099L770.867 298.44L774.082 301.655L787.423 288.314ZM811.56 255.692L804.815 248.947L800.986 252.775L807.732 259.52L801.368 265.884L805.097 269.613L811.46 263.249L818.554 270.342L822.382 266.514L815.289 259.421L821.636 253.073L817.907 249.345L811.56 255.692ZM855.385 220.352L852.17 217.137L838.829 230.478L842.044 233.693L855.385 220.352ZM879.522 187.73L872.777 180.985L868.948 184.813L875.693 191.558L869.329 197.922L873.058 201.651L879.422 195.287L886.515 202.38L890.344 198.552L883.251 191.459L889.598 185.112L885.869 181.383L879.522 187.73Z" fill="#141414"/>
<path d="M676.435 662.525L669.689 655.78L665.861 659.608L672.606 666.353L666.242 672.717L669.971 676.446L676.335 670.082L683.428 677.175L687.257 673.347L680.164 666.254L686.511 659.906L682.782 656.177L676.435 662.525ZM720.26 627.185L717.045 623.97L703.704 637.311L706.919 640.526L720.26 627.185ZM744.396 594.563L737.651 587.818L733.823 591.646L740.568 598.391L734.204 604.755L737.933 608.484L744.297 602.12L751.39 609.213L755.218 605.385L748.125 598.292L754.473 591.945L750.744 588.216L744.396 594.563ZM788.222 559.223L785.006 556.008L771.665 569.349L774.88 572.564L788.222 559.223ZM812.358 526.601L805.613 519.856L801.785 523.684L808.53 530.43L802.166 536.794L805.895 540.522L812.259 534.158L819.352 541.252L823.18 537.423L816.087 530.33L822.435 523.983L818.706 520.254L812.358 526.601ZM856.183 491.261L852.968 488.046L839.627 501.387L842.842 504.602L856.183 491.261ZM880.32 458.639L873.575 451.894L869.747 455.723L876.492 462.468L870.128 468.832L873.857 472.561L880.221 466.197L887.314 473.29L891.142 469.461L884.049 462.368L890.396 456.021L886.667 452.292L880.32 458.639ZM924.145 423.3L920.93 420.084L907.589 433.426L910.804 436.641L924.145 423.3ZM948.282 390.678L941.537 383.932L937.708 387.761L944.454 394.506L938.09 400.87L941.818 404.599L948.182 398.235L955.276 405.328L959.104 401.5L952.011 394.406L958.358 388.059L954.629 384.33L948.282 390.678ZM992.107 355.338L988.892 352.123L975.551 365.464L978.766 368.679L992.107 355.338ZM1016.24 322.716L1009.5 315.971L1005.67 319.799L1012.42 326.544L1006.05 332.908L1009.78 336.637L1016.14 330.273L1023.24 337.366L1027.07 333.538L1019.97 326.445L1026.32 320.097L1022.59 316.368L1016.24 322.716Z" fill="#141414"/>
<path d="M472.223 458.727L465.478 451.982L461.65 455.81L468.395 462.555L462.031 468.919L465.76 472.648L472.124 466.284L479.217 473.377L483.045 469.549L475.952 462.456L482.299 456.108L478.57 452.379L472.223 458.727ZM516.048 423.387L512.833 420.172L499.492 433.513L502.707 436.728L516.048 423.387ZM540.185 390.765L533.44 384.02L529.611 387.848L536.356 394.593L529.992 400.957L533.721 404.686L540.085 398.322L547.178 405.415L551.007 401.587L543.914 394.494L550.261 388.146L546.532 384.418L540.185 390.765ZM584.01 355.425L580.795 352.21L567.454 365.551L570.669 368.766L584.01 355.425ZM608.147 322.803L601.401 316.058L597.573 319.886L604.318 326.631L597.954 332.995L601.683 336.724L608.047 330.36L615.14 337.454L618.969 333.625L611.875 326.532L618.223 320.185L614.494 316.456L608.147 322.803ZM651.972 287.463L648.757 284.248L635.415 297.589L638.631 300.804L651.972 287.463ZM676.108 254.841L669.363 248.096L665.535 251.925L672.28 258.67L665.916 265.034L669.645 268.763L676.009 262.399L683.102 269.492L686.93 265.663L679.837 258.57L686.185 252.223L682.456 248.494L676.108 254.841ZM719.933 219.501L716.718 216.286L703.377 229.627L706.592 232.843L719.933 219.501ZM744.07 186.88L737.325 180.134L733.497 183.963L740.242 190.708L733.878 197.072L737.607 200.801L743.971 194.437L751.064 201.53L754.892 197.702L747.799 190.608L754.146 184.261L750.418 180.532L744.07 186.88ZM787.895 151.54L784.68 148.325L771.339 161.666L774.554 164.881L787.895 151.54ZM812.032 118.918L805.287 112.173L801.458 116.001L808.204 122.746L801.84 129.11L805.569 132.839L811.933 126.475L819.026 133.568L822.854 129.74L815.761 122.647L822.108 116.299L818.379 112.57L812.032 118.918Z" fill="#141414"/>
<path d="M679.779 259.636L686.524 252.891L682.696 249.063L675.95 255.808L669.586 249.444L665.858 253.173L672.222 259.537L665.128 266.63L668.957 270.458L676.05 263.365L682.397 269.712L686.126 265.983L679.779 259.636ZM715.119 303.461L718.334 300.246L704.993 286.905L701.778 290.12L715.119 303.461ZM747.741 327.598L754.486 320.853L750.657 317.024L743.912 323.77L737.548 317.406L733.819 321.134L740.183 327.498L733.09 334.592L736.918 338.42L744.012 331.327L750.359 337.674L754.088 333.945L747.741 327.598ZM783.08 371.423L786.296 368.208L772.954 354.867L769.739 358.082L783.08 371.423ZM815.702 395.56L822.447 388.815L818.619 384.986L811.874 391.731L805.51 385.367L801.781 389.096L808.145 395.46L801.052 402.553L804.88 406.382L811.973 399.289L818.321 405.636L822.05 401.907L815.702 395.56ZM851.042 439.385L854.257 436.17L840.916 422.829L837.701 426.044L851.042 439.385ZM883.664 463.521L890.409 456.776L886.581 452.948L879.836 459.693L873.472 453.329L869.743 457.058L876.107 463.422L869.014 470.515L872.842 474.343L879.935 467.25L886.283 473.598L890.012 469.869L883.664 463.521ZM919.004 507.347L922.219 504.131L908.878 490.79L905.663 494.005L919.004 507.347Z" fill="#141414"/>
<path d="M746.954 191.046L753.699 184.301L749.871 180.473L743.126 187.218L736.762 180.854L733.033 184.583L739.397 190.947L732.304 198.04L736.132 201.868L743.225 194.775L749.573 201.123L753.301 197.394L746.954 191.046ZM782.294 234.872L785.509 231.656L772.168 218.315L768.953 221.53L782.294 234.872ZM814.916 259.008L821.661 252.263L817.833 248.435L811.088 255.18L804.724 248.816L800.995 252.545L807.359 258.909L800.265 266.002L804.094 269.83L811.187 262.737L817.534 269.085L821.263 265.356L814.916 259.008ZM850.256 302.833L853.471 299.618L840.13 286.277L836.915 289.492L850.256 302.833ZM882.878 326.97L889.623 320.225L885.794 316.397L879.049 323.142L872.685 316.778L868.956 320.507L875.32 326.871L868.227 333.964L872.056 337.792L879.149 330.699L885.496 337.046L889.225 333.317L882.878 326.97ZM918.218 370.795L921.433 367.58L908.092 354.239L904.876 357.454L918.218 370.795ZM950.839 394.932L957.585 388.187L953.756 384.358L947.011 391.104L940.647 384.74L936.918 388.468L943.282 394.832L936.189 401.926L940.017 405.754L947.111 398.661L953.458 405.008L957.187 401.279L950.839 394.932ZM986.179 438.757L989.394 435.542L976.053 422.201L972.838 425.416L986.179 438.757Z" fill="#141414"/>
<path d="M815.543 123.871L822.289 117.126L818.46 113.298L811.715 120.043L805.351 113.679L801.622 117.408L807.986 123.772L800.893 130.865L804.721 134.693L811.815 127.6L818.162 133.948L821.891 130.219L815.543 123.871ZM850.883 167.697L854.098 164.481L840.757 151.14L837.542 154.355L850.883 167.697ZM883.505 191.833L890.25 185.088L886.422 181.26L879.677 188.005L873.313 181.641L869.584 185.37L875.948 191.734L868.855 198.827L872.683 202.655L879.776 195.562L886.124 201.909L889.853 198.181L883.505 191.833ZM918.845 235.658L922.06 232.443L908.719 219.102L905.504 222.317L918.845 235.658ZM951.467 259.795L958.212 253.05L954.384 249.222L947.639 255.967L941.275 249.603L937.546 253.332L943.91 259.696L936.817 266.789L940.645 270.617L947.738 263.524L954.086 269.871L957.814 266.142L951.467 259.795ZM986.807 303.62L990.022 300.405L976.681 287.064L973.466 290.279L986.807 303.62ZM1019.43 327.757L1026.17 321.012L1022.35 317.183L1015.6 323.928L1009.24 317.565L1005.51 321.293L1011.87 327.657L1004.78 334.751L1008.61 338.579L1015.7 331.486L1022.05 337.833L1025.78 334.104L1019.43 327.757ZM1054.77 371.582L1057.98 368.367L1044.64 355.026L1041.43 358.241L1054.77 371.582Z" fill="#141414"/>
<path d="M611.897 327.518L618.642 320.773L614.813 316.945L608.068 323.69L601.704 317.326L597.976 321.055L604.339 327.419L597.246 334.512L601.075 338.34L608.168 331.247L614.515 337.594L618.244 333.866L611.897 327.518ZM647.237 371.343L650.452 368.128L637.111 354.787L633.895 358.002L647.237 371.343ZM679.858 395.48L686.604 388.735L682.775 384.906L676.03 391.652L669.666 385.288L665.937 389.017L672.301 395.38L665.208 402.474L669.036 406.302L676.13 399.209L682.477 405.556L686.206 401.827L679.858 395.48ZM715.198 439.305L718.413 436.09L705.072 422.749L701.857 425.964L715.198 439.305ZM747.82 463.442L754.565 456.697L750.737 452.868L743.992 459.613L737.628 453.249L733.899 456.978L740.263 463.342L733.17 470.435L736.998 474.264L744.091 467.171L750.439 473.518L754.168 469.789L747.82 463.442ZM783.16 507.267L786.375 504.052L773.034 490.711L769.819 493.926L783.16 507.267ZM815.782 531.404L822.527 524.658L818.699 520.83L811.954 527.575L805.59 521.211L801.861 524.94L808.225 531.304L801.132 538.397L804.96 542.226L812.053 535.132L818.401 541.48L822.129 537.751L815.782 531.404ZM851.122 575.229L854.337 572.014L840.996 558.672L837.781 561.888L851.122 575.229Z" fill="#141414"/>
<path d="M544.014 395.4L550.759 388.655L546.931 384.827L540.186 391.572L533.822 385.208L530.093 388.937L536.457 395.301L529.364 402.394L533.192 406.222L540.285 399.129L546.633 405.477L550.362 401.748L544.014 395.4ZM579.354 439.226L582.569 436.01L569.228 422.669L566.013 425.884L579.354 439.226ZM611.976 463.362L618.721 456.617L614.893 452.789L608.148 459.534L601.784 453.17L598.055 456.899L604.419 463.263L597.326 470.356L601.154 474.184L608.247 467.091L614.595 473.439L618.324 469.71L611.976 463.362ZM647.316 507.187L650.531 503.972L637.19 490.631L633.975 493.846L647.316 507.187ZM679.938 531.324L686.683 524.579L682.855 520.751L676.11 527.496L669.746 521.132L666.017 524.861L672.381 531.225L665.288 538.318L669.116 542.146L676.209 535.053L682.556 541.4L686.285 537.671L679.938 531.324ZM715.278 575.149L718.493 571.934L705.152 558.593L701.937 561.808L715.278 575.149ZM747.9 599.286L754.645 592.541L750.817 588.712L744.071 595.458L737.707 589.094L733.979 592.822L740.343 599.186L733.249 606.28L737.078 610.108L744.171 603.015L750.518 609.362L754.247 605.633L747.9 599.286Z" fill="#141414"/>
<path d="M475.425 462.575L482.17 455.83L478.342 452.002L471.597 458.747L465.233 452.383L461.504 456.112L467.868 462.476L460.775 469.569L464.603 473.398L471.696 466.304L478.043 472.652L481.772 468.923L475.425 462.575ZM510.765 506.401L513.98 503.186L500.639 489.844L497.424 493.06L510.765 506.401ZM543.387 530.537L550.132 523.792L546.304 519.964L539.558 526.709L533.195 520.345L529.466 524.074L535.83 530.438L528.736 537.531L532.565 541.359L539.658 534.266L546.005 540.614L549.734 536.885L543.387 530.537ZM578.727 574.362L581.942 571.147L568.601 557.806L565.386 561.021L578.727 574.362ZM611.349 598.499L618.094 591.754L614.265 587.926L607.52 594.671L601.156 588.307L597.427 592.036L603.791 598.4L596.698 605.493L600.527 609.321L607.62 602.228L613.967 608.575L617.696 604.846L611.349 598.499ZM646.688 642.324L649.904 639.109L636.562 625.768L633.347 628.983L646.688 642.324ZM679.31 666.461L686.056 659.716L682.227 655.887L675.482 662.633L669.118 656.269L665.389 659.997L671.753 666.361L664.66 673.455L668.488 677.283L675.581 670.19L681.929 676.537L685.658 672.808L679.31 666.461Z" fill="#141414"/>
<path d="M200.041 594.915L193.295 588.17L189.467 591.998L196.212 598.743L189.848 605.107L193.577 608.836L199.941 602.472L207.034 609.565L210.863 605.737L203.769 598.644L210.117 592.296L206.388 588.567L200.041 594.915ZM243.866 559.575L240.651 556.36L227.309 569.701L230.525 572.916L243.866 559.575ZM268.002 526.953L261.257 520.208L257.429 524.036L264.174 530.781L257.81 537.145L261.539 540.874L267.903 534.51L274.996 541.603L278.824 537.775L271.731 530.682L278.079 524.335L274.35 520.606L268.002 526.953ZM311.828 491.613L308.612 488.398L295.271 501.739L298.486 504.954L311.828 491.613ZM335.964 458.991L329.219 452.246L325.391 456.074L332.136 462.82L325.772 469.184L329.501 472.912L335.865 466.548L342.958 473.642L346.786 469.813L339.693 462.72L346.04 456.373L342.312 452.644L335.964 458.991ZM379.789 423.651L376.574 420.436L363.233 433.777L366.448 436.992L379.789 423.651ZM403.926 391.029L397.181 384.284L393.353 388.113L400.098 394.858L393.734 401.222L397.463 404.951L403.827 398.587L410.92 405.68L414.748 401.851L407.655 394.758L414.002 388.411L410.273 384.682L403.926 391.029ZM447.751 355.69L444.536 352.474L431.195 365.816L434.41 369.031L447.751 355.69ZM471.888 323.068L465.143 316.322L461.314 320.151L468.059 326.896L461.696 333.26L465.424 336.989L471.788 330.625L478.882 337.718L482.71 333.89L475.617 326.797L481.964 320.449L478.235 316.72L471.888 323.068ZM515.713 287.728L512.498 284.513L499.157 297.854L502.372 301.069L515.713 287.728ZM539.85 255.106L533.104 248.361L529.276 252.189L536.021 258.934L529.657 265.298L533.386 269.027L539.75 262.663L546.843 269.756L550.672 265.928L543.578 258.835L549.926 252.487L546.197 248.758L539.85 255.106Z" fill="#141414"/>
<path d="M131.713 527.539L124.968 520.794L121.139 524.622L127.884 531.367L121.52 537.731L125.249 541.46L131.613 535.096L138.706 542.189L142.535 538.361L135.442 531.268L141.789 524.921L138.06 521.192L131.713 527.539ZM175.538 492.199L172.323 488.984L158.982 502.325L162.197 505.54L175.538 492.199ZM199.675 459.577L192.929 452.832L189.101 456.661L195.846 463.406L189.482 469.77L193.211 473.498L199.575 467.135L206.668 474.228L210.497 470.399L203.403 463.306L209.751 456.959L206.022 453.23L199.675 459.577ZM243.5 424.237L240.285 421.022L226.943 434.363L230.159 437.579L243.5 424.237ZM267.636 391.616L260.891 384.87L257.063 388.699L263.808 395.444L257.444 401.808L261.173 405.537L267.537 399.173L274.63 406.266L278.458 402.438L271.365 395.344L277.713 388.997L273.984 385.268L267.636 391.616ZM311.461 356.276L308.246 353.061L294.905 366.402L298.12 369.617L311.461 356.276ZM335.598 323.654L328.853 316.909L325.025 320.737L331.77 327.482L325.406 333.846L329.135 337.575L335.499 331.211L342.592 338.304L346.42 334.476L339.327 327.383L345.674 321.035L341.945 317.306L335.598 323.654ZM379.423 288.314L376.208 285.099L362.867 298.44L366.082 301.655L379.423 288.314ZM403.56 255.692L396.815 248.947L392.986 252.775L399.732 259.52L393.368 265.884L397.097 269.613L403.46 263.249L410.554 270.342L414.382 266.514L407.289 259.421L413.636 253.073L409.907 249.345L403.56 255.692ZM447.385 220.352L444.17 217.137L430.829 230.478L434.044 233.693L447.385 220.352ZM471.522 187.73L464.777 180.985L460.948 184.813L467.693 191.558L461.329 197.922L465.058 201.651L471.422 195.287L478.515 202.38L482.344 198.552L475.251 191.459L481.598 185.112L477.869 181.383L471.522 187.73Z" fill="#141414"/>
<path d="M268.435 662.525L261.689 655.78L257.861 659.608L264.606 666.353L258.242 672.717L261.971 676.446L268.335 670.082L275.428 677.175L279.257 673.347L272.164 666.254L278.511 659.906L274.782 656.177L268.435 662.525ZM312.26 627.185L309.045 623.97L295.704 637.311L298.919 640.526L312.26 627.185ZM336.396 594.563L329.651 587.818L325.823 591.646L332.568 598.391L326.204 604.755L329.933 608.484L336.297 602.12L343.39 609.213L347.218 605.385L340.125 598.292L346.473 591.945L342.744 588.216L336.396 594.563ZM380.222 559.223L377.006 556.008L363.665 569.349L366.88 572.564L380.222 559.223ZM404.358 526.601L397.613 519.856L393.785 523.684L400.53 530.43L394.166 536.794L397.895 540.522L404.259 534.158L411.352 541.252L415.18 537.423L408.087 530.33L414.435 523.983L410.706 520.254L404.358 526.601ZM448.183 491.261L444.968 488.046L431.627 501.387L434.842 504.602L448.183 491.261ZM472.32 458.639L465.575 451.894L461.747 455.723L468.492 462.468L462.128 468.832L465.857 472.561L472.221 466.197L479.314 473.29L483.142 469.461L476.049 462.368L482.396 456.021L478.667 452.292L472.32 458.639ZM516.145 423.3L512.93 420.084L499.589 433.426L502.804 436.641L516.145 423.3ZM540.282 390.678L533.537 383.932L529.708 387.761L536.454 394.506L530.09 400.87L533.818 404.599L540.182 398.235L547.276 405.328L551.104 401.5L544.011 394.406L550.358 388.059L546.629 384.33L540.282 390.678ZM584.107 355.338L580.892 352.123L567.551 365.464L570.766 368.679L584.107 355.338ZM608.244 322.716L601.498 315.971L597.67 319.799L604.415 326.544L598.051 332.908L601.78 336.637L608.144 330.273L615.237 337.366L619.066 333.538L611.973 326.445L618.32 320.097L614.591 316.368L608.244 322.716Z" fill="#141414"/>
<path d="M64.223 458.727L57.4778 451.982L53.6495 455.81L60.3946 462.555L54.0307 468.919L57.7596 472.648L64.1235 466.284L71.2167 473.377L75.045 469.549L67.9518 462.456L74.2992 456.108L70.5703 452.379L64.223 458.727ZM108.048 423.387L104.833 420.172L91.4919 433.513L94.707 436.728L108.048 423.387ZM132.185 390.765L125.44 384.02L121.611 387.848L128.356 394.593L121.992 400.957L125.721 404.686L132.085 398.322L139.178 405.415L143.007 401.587L135.914 394.494L142.261 388.146L138.532 384.418L132.185 390.765ZM176.01 355.425L172.795 352.21L159.454 365.551L162.669 368.766L176.01 355.425ZM200.147 322.803L193.401 316.058L189.573 319.886L196.318 326.631L189.954 332.995L193.683 336.724L200.047 330.36L207.14 337.454L210.969 333.625L203.875 326.532L210.223 320.185L206.494 316.456L200.147 322.803ZM243.972 287.463L240.757 284.248L227.415 297.589L230.631 300.804L243.972 287.463ZM268.108 254.841L261.363 248.096L257.535 251.925L264.28 258.67L257.916 265.034L261.645 268.763L268.009 262.399L275.102 269.492L278.93 265.663L271.837 258.57L278.185 252.223L274.456 248.494L268.108 254.841ZM311.933 219.501L308.718 216.286L295.377 229.627L298.592 232.843L311.933 219.501ZM336.07 186.88L329.325 180.134L325.497 183.963L332.242 190.708L325.878 197.072L329.607 200.801L335.971 194.437L343.064 201.53L346.892 197.702L339.799 190.608L346.146 184.261L342.418 180.532L336.07 186.88ZM379.895 151.54L376.68 148.325L363.339 161.666L366.554 164.881L379.895 151.54ZM404.032 118.918L397.287 112.173L393.458 116.001L400.204 122.746L393.84 129.11L397.569 132.839L403.933 126.475L411.026 133.568L414.854 129.74L407.761 122.647L414.108 116.299L410.379 112.57L404.032 118.918Z" fill="#141414"/>
<path d="M271.779 259.636L278.524 252.891L274.696 249.063L267.95 255.808L261.586 249.444L257.858 253.173L264.222 259.537L257.128 266.63L260.957 270.458L268.05 263.365L274.397 269.712L278.126 265.983L271.779 259.636ZM307.119 303.461L310.334 300.246L296.993 286.905L293.778 290.12L307.119 303.461ZM339.741 327.598L346.486 320.853L342.657 317.024L335.912 323.77L329.548 317.406L325.819 321.134L332.183 327.498L325.09 334.592L328.918 338.42L336.012 331.327L342.359 337.674L346.088 333.945L339.741 327.598ZM375.08 371.423L378.296 368.208L364.954 354.867L361.739 358.082L375.08 371.423ZM407.702 395.56L414.447 388.815L410.619 384.986L403.874 391.731L397.51 385.367L393.781 389.096L400.145 395.46L393.052 402.553L396.88 406.382L403.973 399.289L410.321 405.636L414.05 401.907L407.702 395.56ZM443.042 439.385L446.257 436.17L432.916 422.829L429.701 426.044L443.042 439.385ZM475.664 463.521L482.409 456.776L478.581 452.948L471.836 459.693L465.472 453.329L461.743 457.058L468.107 463.422L461.014 470.515L464.842 474.343L471.935 467.25L478.283 473.598L482.012 469.869L475.664 463.521ZM511.004 507.347L514.219 504.131L500.878 490.79L497.663 494.005L511.004 507.347Z" fill="#141414"/>
<path d="M338.954 191.046L345.699 184.301L341.871 180.473L335.126 187.218L328.762 180.854L325.033 184.583L331.397 190.947L324.304 198.04L328.132 201.868L335.225 194.775L341.573 201.123L345.301 197.394L338.954 191.046ZM374.294 234.872L377.509 231.656L364.168 218.315L360.953 221.53L374.294 234.872ZM406.916 259.008L413.661 252.263L409.833 248.435L403.088 255.18L396.724 248.816L392.995 252.545L399.359 258.909L392.265 266.002L396.094 269.83L403.187 262.737L409.534 269.085L413.263 265.356L406.916 259.008ZM442.256 302.833L445.471 299.618L432.13 286.277L428.915 289.492L442.256 302.833ZM474.878 326.97L481.623 320.225L477.794 316.397L471.049 323.142L464.685 316.778L460.956 320.507L467.32 326.871L460.227 333.964L464.056 337.792L471.149 330.699L477.496 337.046L481.225 333.317L474.878 326.97ZM510.218 370.795L513.433 367.58L500.092 354.239L496.876 357.454L510.218 370.795ZM542.839 394.932L549.585 388.187L545.756 384.358L539.011 391.104L532.647 384.74L528.918 388.468L535.282 394.832L528.189 401.926L532.017 405.754L539.111 398.661L545.458 405.008L549.187 401.279L542.839 394.932ZM578.179 438.757L581.394 435.542L568.053 422.201L564.838 425.416L578.179 438.757Z" fill="#141414"/>
<path d="M407.543 123.871L414.289 117.126L410.46 113.298L403.715 120.043L397.351 113.679L393.622 117.408L399.986 123.772L392.893 130.865L396.721 134.693L403.815 127.6L410.162 133.948L413.891 130.219L407.543 123.871ZM442.883 167.697L446.098 164.481L432.757 151.14L429.542 154.355L442.883 167.697ZM475.505 191.833L482.25 185.088L478.422 181.26L471.677 188.005L465.313 181.641L461.584 185.37L467.948 191.734L460.855 198.827L464.683 202.655L471.776 195.562L478.124 201.909L481.853 198.181L475.505 191.833ZM510.845 235.658L514.06 232.443L500.719 219.102L497.504 222.317L510.845 235.658ZM543.467 259.795L550.212 253.05L546.384 249.222L539.639 255.967L533.275 249.603L529.546 253.332L535.91 259.696L528.817 266.789L532.645 270.617L539.738 263.524L546.086 269.871L549.814 266.142L543.467 259.795ZM578.807 303.62L582.022 300.405L568.681 287.064L565.466 290.279L578.807 303.62ZM611.429 327.757L618.174 321.012L614.346 317.183L607.6 323.928L601.237 317.565L597.508 321.293L603.872 327.657L596.778 334.751L600.607 338.579L607.7 331.486L614.047 337.833L617.776 334.104L611.429 327.757ZM646.769 371.582L649.984 368.367L636.643 355.026L633.428 358.241L646.769 371.582Z" fill="#141414"/>
<path d="M203.897 327.518L210.642 320.773L206.813 316.945L200.068 323.69L193.704 317.326L189.976 321.055L196.339 327.419L189.246 334.512L193.075 338.34L200.168 331.247L206.515 337.594L210.244 333.866L203.897 327.518ZM239.237 371.343L242.452 368.128L229.111 354.787L225.895 358.002L239.237 371.343ZM271.858 395.48L278.604 388.735L274.775 384.906L268.03 391.652L261.666 385.288L257.937 389.017L264.301 395.38L257.208 402.474L261.036 406.302L268.13 399.209L274.477 405.556L278.206 401.827L271.858 395.48ZM307.198 439.305L310.413 436.09L297.072 422.749L293.857 425.964L307.198 439.305ZM339.82 463.442L346.565 456.697L342.737 452.868L335.992 459.613L329.628 453.249L325.899 456.978L332.263 463.342L325.17 470.435L328.998 474.264L336.091 467.171L342.439 473.518L346.168 469.789L339.82 463.442ZM375.16 507.267L378.375 504.052L365.034 490.711L361.819 493.926L375.16 507.267ZM407.782 531.404L414.527 524.658L410.699 520.83L403.954 527.575L397.59 521.211L393.861 524.94L400.225 531.304L393.132 538.397L396.96 542.226L404.053 535.132L410.401 541.48L414.129 537.751L407.782 531.404ZM443.122 575.229L446.337 572.014L432.996 558.672L429.781 561.888L443.122 575.229Z" fill="#141414"/>
<path d="M136.014 395.4L142.759 388.655L138.931 384.827L132.186 391.572L125.822 385.208L122.093 388.937L128.457 395.301L121.364 402.394L125.192 406.222L132.285 399.129L138.633 405.477L142.362 401.748L136.014 395.4ZM171.354 439.226L174.569 436.01L161.228 422.669L158.013 425.884L171.354 439.226ZM203.976 463.362L210.721 456.617L206.893 452.789L200.148 459.534L193.784 453.17L190.055 456.899L196.419 463.263L189.326 470.356L193.154 474.184L200.247 467.091L206.595 473.439L210.324 469.71L203.976 463.362ZM239.316 507.187L242.531 503.972L229.19 490.631L225.975 493.846L239.316 507.187ZM271.938 531.324L278.683 524.579L274.855 520.751L268.11 527.496L261.746 521.132L258.017 524.861L264.381 531.225L257.288 538.318L261.116 542.146L268.209 535.053L274.556 541.4L278.285 537.671L271.938 531.324ZM307.278 575.149L310.493 571.934L297.152 558.593L293.937 561.808L307.278 575.149ZM339.9 599.286L346.645 592.541L342.817 588.712L336.071 595.458L329.707 589.094L325.979 592.822L332.343 599.186L325.249 606.28L329.078 610.108L336.171 603.015L342.518 609.362L346.247 605.633L339.9 599.286Z" fill="#141414"/>
<path d="M67.425 462.575L74.1701 455.83L70.3418 452.002L63.5967 458.747L57.2327 452.383L53.5038 456.112L59.8678 462.476L52.7746 469.569L56.6029 473.398L63.6961 466.304L70.0435 472.652L73.7724 468.923L67.425 462.575ZM102.765 506.401L105.98 503.186L92.6389 489.844L89.4237 493.06L102.765 506.401ZM135.387 530.537L142.132 523.792L138.304 519.964L131.558 526.709L125.195 520.345L121.466 524.074L127.83 530.438L120.736 537.531L124.565 541.359L131.658 534.266L138.005 540.614L141.734 536.885L135.387 530.537ZM170.727 574.362L173.942 571.147L160.601 557.806L157.386 561.021L170.727 574.362ZM203.349 598.499L210.094 591.754L206.265 587.926L199.52 594.671L193.156 588.307L189.427 592.036L195.791 598.4L188.698 605.493L192.527 609.321L199.62 602.228L205.967 608.575L209.696 604.846L203.349 598.499ZM238.688 642.324L241.904 639.109L228.562 625.768L225.347 628.983L238.688 642.324ZM271.31 666.461L278.056 659.716L274.227 655.887L267.482 662.633L261.118 656.269L257.389 659.997L263.753 666.361L256.66 673.455L260.488 677.283L267.581 670.19L273.929 676.537L277.658 672.808L271.31 666.461Z" fill="#141414"/>
</svg>
