<svg width="38" height="38" viewBox="0 0 38 38" fill="none" xmlns="http://www.w3.org/2000/svg">
<path d="M13.0001 18.9001C14.1001 18.9001 15.0251 18.5251 15.7751 17.7751C16.5251 17.0251 16.9001 16.1001 16.9001 15.0001C16.9001 13.9001 16.5251 12.9751 15.7751 12.2251C15.0251 11.4751 14.1001 11.1001 13.0001 11.1001C11.9001 11.1001 10.9751 11.4751 10.2251 12.2251C9.4751 12.9751 9.1001 13.9001 9.1001 15.0001C9.1001 16.1001 9.4751 17.0251 10.2251 17.7751C10.9751 18.5251 11.9001 18.9001 13.0001 18.9001ZM25.0001 18.9001C26.1001 18.9001 27.0251 18.5251 27.7751 17.7751C28.5251 17.0251 28.9001 16.1001 28.9001 15.0001C28.9001 13.9001 28.5251 12.9751 27.7751 12.2251C27.0251 11.4751 26.1001 11.1001 25.0001 11.1001C23.9001 11.1001 22.9751 11.4751 22.2251 12.2251C21.4751 12.9751 21.1001 13.9001 21.1001 15.0001C21.1001 16.1001 21.4751 17.0251 22.2251 17.7751C22.9751 18.5251 23.9001 18.9001 25.0001 18.9001ZM12.9001 37.4001V28.2501H17.1501L17.2001 37.4001H12.9001ZM20.7001 37.4001L20.9001 28.2501H25.1501V37.4001H20.7001ZM4.5501 37.4001C3.4501 37.4001 2.51676 37.0168 1.7501 36.2501C0.983431 35.4834 0.600098 34.5501 0.600098 33.4501V13.0001C0.600098 9.56676 1.80843 6.64176 4.2251 4.2251C6.64176 1.80843 9.56676 0.600098 13.0001 0.600098H25.0001C28.4334 0.600098 31.3584 1.80843 33.7751 4.2251C36.1918 6.64176 37.4001 9.56676 37.4001 13.0001V33.4501C37.4001 34.5501 37.0168 35.4834 36.2501 36.2501C35.4834 37.0168 34.5501 37.4001 33.4501 37.4001H28.4501L28.9001 28.4501C28.9001 27.3501 28.5168 26.4168 27.7501 25.6501C26.9834 24.8834 26.0334 24.5001 24.9001 24.5001H13.1001C12.0001 24.5001 11.0668 24.8834 10.3001 25.6501C9.53343 26.4168 9.1501 27.3501 9.1501 28.4501L9.4001 37.4001H4.5501Z" fill="url(#paint0_linear_10_225)"/>
<defs>
<linearGradient id="paint0_linear_10_225" x1="19.0001" y1="0.600098" x2="19.0001" y2="37.4001" gradientUnits="userSpaceOnUse">
<stop stop-color="#8849DA"/>
<stop offset="1" stop-color="#B081EB" stop-opacity="0.5"/>
</linearGradient>
</defs>
</svg>
