<svg width="356" height="137" viewBox="0 0 356 137" fill="none" xmlns="http://www.w3.org/2000/svg">
<g filter="url(#filter0_d_2_97)">
<path d="M-102.128 134.617L-56.8853 85.8811C-51.3606 81.9823 -38.6089 74.1846 -31.8 74.1846C-23.289 74.1846 45.6955 72.2351 50.1751 71.2604C54.6546 70.2857 97.21 69.311 101.242 69.311C104.467 69.311 113.336 67.8489 107.961 66.8742" stroke="url(#paint0_linear_2_97)" stroke-linecap="round"/>
<path d="M-175.144 135.104C-175.144 135.104 -106.608 33.247 -101.232 26.9113C-95.857 20.5757 -88.2419 16.6769 -78.3869 17.1642L14.339 49.3296C30.6146 54.6905 71.4976 65.7048 104.825 66.8744C138.153 68.044 178.14 63.7878 193.967 61.5135C208.75 58.7518 244.855 50.5967 271.015 40.0699C297.175 29.543 336.267 9.69139 352.542 1.08145" stroke="url(#paint1_linear_2_97)" stroke-linecap="round"/>
<path d="M-155.883 135.104C-134.68 105.051 -90.9296 48.8425 -87.346 43.9689C-83.7624 39.0954 -69.428 33.7345 -64.9484 34.2218C-61.3648 34.6117 -30.3069 40.8823 -15.2258 43.9689L8.51558 47.8678" stroke="url(#paint2_linear_2_97)" stroke-linecap="round"/>
<path d="M-131.245 134.129C-114.074 112.361 -78.387 67.8489 -73.0116 63.9501C-66.2923 59.0765 -53.7496 52.7409 -48.8222 54.203C-44.8802 55.3726 -5.37089 57.9393 13.891 59.0765C20.7596 59.4014 35.751 59.4663 40.7681 57.127" stroke="url(#paint3_linear_2_97)" stroke-linecap="round"/>
<path d="M-63.1566 134.13C-56.5867 126.495 -42.1029 110.542 -36.7275 107.813C-30.0082 104.401 -15.2258 93.1919 -12.9861 94.1666C-10.7463 95.1413 72.5727 79.0585 76.6042 79.0585C80.6358 79.0585 137.078 71.2608 140.661 69.7988C143.528 68.6291 151.412 66.3873 154.996 65.4126" stroke="url(#paint4_linear_2_97)" stroke-linecap="round"/>
<path d="M-10.7463 135.104C-4.32569 130.88 9.05312 122.335 11.2033 121.946C15.6828 121.946 103.481 93.1916 124.087 86.856C140.572 81.7875 174.556 68.8238 189.488 62.9755" stroke="url(#paint5_linear_2_97)" stroke-linecap="round"/>
<path d="M72.1248 134.617C133.345 106.187 259.1 46.6977 261.608 43.9685" stroke="url(#paint6_linear_2_97)" stroke-linecap="round"/>
<path d="M145.141 135.104L352.542 2.05587" stroke="url(#paint7_linear_2_97)" stroke-linecap="round"/>
<path d="M195.311 115.61L352.542 9.36618" stroke="url(#paint8_linear_2_97)" stroke-linecap="round"/>
<path d="M225.772 135.104L355.678 48.3547" stroke="url(#paint9_linear_2_97)" stroke-linecap="round"/>
<path d="M286.693 135.591L352.542 92.7041" stroke="url(#paint10_linear_2_97)" stroke-linecap="round"/>
<path d="M-77.0431 18.6262L21.9542 137.053M-50.166 27.886L64.5096 134.129M-21.0492 37.6331L117.368 134.129M10.7554 48.8422L163.955 122.92" stroke="url(#paint11_linear_2_97)" stroke-linecap="round"/>
<path d="M68.0931 63.9502L196.655 100.989" stroke="url(#paint12_linear_2_97)" stroke-linecap="round"/>
<path d="M60.9999 64L189.562 101.039" stroke="url(#paint13_linear_2_97)" stroke-linecap="round"/>
<path d="M110.648 66.8743L245.93 82.4696" stroke="url(#paint14_linear_2_97)" stroke-linecap="round"/>
<path d="M188.592 63.9502L273.703 63.9502" stroke="url(#paint15_linear_2_97)" stroke-linecap="round"/>
<path d="M252.649 46.4051L301.924 43.4809" stroke="url(#paint16_linear_2_97)" stroke-linecap="round"/>
<path d="M302.372 43.481L313.122 133.642" stroke="url(#paint17_linear_2_97)" stroke-linecap="round"/>
<path d="M301.028 26.911L337.76 19.1133" stroke="url(#paint18_linear_2_97)" stroke-linecap="round"/>
<path d="M338.656 19.1133L346.719 134.129" stroke="url(#paint19_linear_2_97)" stroke-linecap="round"/>
<path d="M183.217 112.198L196.207 114.635L199.791 135.104" stroke="url(#paint20_linear_2_97)" stroke-linecap="round"/>
<path d="M208.302 96.1157L219.501 100.015L226.22 132.667" stroke="url(#paint21_linear_2_97)" stroke-linecap="round"/>
<path d="M245.93 82.957L252.649 136.566" stroke="url(#paint22_linear_2_97)" stroke-linecap="round"/>
<path d="M273.703 63.4629L283.558 137.053" stroke="url(#paint23_linear_2_97)" stroke-linecap="round"/>
</g>
<defs>
<filter id="filter0_d_2_97" x="-179.644" y="0.581299" width="539.822" height="144.972" filterUnits="userSpaceOnUse" color-interpolation-filters="sRGB">
<feFlood flood-opacity="0" result="BackgroundImageFix"/>
<feColorMatrix in="SourceAlpha" type="matrix" values="0 0 0 0 0 0 0 0 0 0 0 0 0 0 0 0 0 0 127 0" result="hardAlpha"/>
<feOffset dy="4"/>
<feGaussianBlur stdDeviation="2"/>
<feComposite in2="hardAlpha" operator="out"/>
<feColorMatrix type="matrix" values="0 0 0 0 0 0 0 0 0 0 0 0 0 0 0 0 0 0 0.25 0"/>
<feBlend mode="normal" in2="BackgroundImageFix" result="effect1_dropShadow_2_97"/>
<feBlend mode="normal" in="SourceGraphic" in2="effect1_dropShadow_2_97" result="shape"/>
</filter>
<linearGradient id="paint0_linear_2_97" x1="3.76197" y1="66.8742" x2="3.76198" y2="134.617" gradientUnits="userSpaceOnUse">
<stop stop-color="#232323" stop-opacity="0.8"/>
<stop offset="1" stop-color="#361818" stop-opacity="0"/>
</linearGradient>
<linearGradient id="paint1_linear_2_97" x1="88.6989" y1="1.08149" x2="88.6989" y2="135.104" gradientUnits="userSpaceOnUse">
<stop stop-color="#232323" stop-opacity="0.8"/>
<stop offset="1" stop-color="#361818" stop-opacity="0"/>
</linearGradient>
<linearGradient id="paint2_linear_2_97" x1="-73.6835" y1="34.1909" x2="-73.6835" y2="135.104" gradientUnits="userSpaceOnUse">
<stop stop-color="#232323" stop-opacity="0.8"/>
<stop offset="1" stop-color="#361818" stop-opacity="0"/>
</linearGradient>
<linearGradient id="paint3_linear_2_97" x1="-45.2386" y1="53.989" x2="-45.2386" y2="134.129" gradientUnits="userSpaceOnUse">
<stop stop-color="#232323" stop-opacity="0.8"/>
<stop offset="1" stop-color="#361818" stop-opacity="0"/>
</linearGradient>
<linearGradient id="paint4_linear_2_97" x1="45.9195" y1="65.4126" x2="45.9196" y2="134.13" gradientUnits="userSpaceOnUse">
<stop stop-color="#232323" stop-opacity="0.8"/>
<stop offset="1" stop-color="#361818" stop-opacity="0"/>
</linearGradient>
<linearGradient id="paint5_linear_2_97" x1="89.3708" y1="62.9756" x2="89.3708" y2="135.104" gradientUnits="userSpaceOnUse">
<stop stop-color="#232323" stop-opacity="0.8"/>
<stop offset="1" stop-color="#361818" stop-opacity="0"/>
</linearGradient>
<linearGradient id="paint6_linear_2_97" x1="166.866" y1="43.9685" x2="166.866" y2="134.616" gradientUnits="userSpaceOnUse">
<stop stop-color="#232323" stop-opacity="0.8"/>
<stop offset="1" stop-color="#361818" stop-opacity="0"/>
</linearGradient>
<linearGradient id="paint7_linear_2_97" x1="248.842" y1="2.05589" x2="248.842" y2="135.104" gradientUnits="userSpaceOnUse">
<stop stop-color="#232323" stop-opacity="0.8"/>
<stop offset="1" stop-color="#361818" stop-opacity="0"/>
</linearGradient>
<linearGradient id="paint8_linear_2_97" x1="273.927" y1="9.3662" x2="273.927" y2="115.61" gradientUnits="userSpaceOnUse">
<stop stop-color="#232323" stop-opacity="0.8"/>
<stop offset="1" stop-color="#361818" stop-opacity="0"/>
</linearGradient>
<linearGradient id="paint9_linear_2_97" x1="290.725" y1="48.3547" x2="290.725" y2="135.104" gradientUnits="userSpaceOnUse">
<stop stop-color="#232323" stop-opacity="0.8"/>
<stop offset="1" stop-color="#361818" stop-opacity="0"/>
</linearGradient>
<linearGradient id="paint10_linear_2_97" x1="319.618" y1="92.7041" x2="319.618" y2="135.591" gradientUnits="userSpaceOnUse">
<stop stop-color="#232323" stop-opacity="0.8"/>
<stop offset="1" stop-color="#361818" stop-opacity="0"/>
</linearGradient>
<linearGradient id="paint11_linear_2_97" x1="43.4558" y1="18.6262" x2="43.4558" y2="137.053" gradientUnits="userSpaceOnUse">
<stop stop-color="#232323" stop-opacity="0.8"/>
<stop offset="1" stop-color="#361818" stop-opacity="0"/>
</linearGradient>
<linearGradient id="paint12_linear_2_97" x1="132.374" y1="63.9502" x2="132.374" y2="100.989" gradientUnits="userSpaceOnUse">
<stop stop-color="#232323" stop-opacity="0.8"/>
<stop offset="1" stop-color="#361818" stop-opacity="0"/>
</linearGradient>
<linearGradient id="paint13_linear_2_97" x1="125.281" y1="64" x2="125.281" y2="101.039" gradientUnits="userSpaceOnUse">
<stop stop-color="#232323" stop-opacity="0.8"/>
<stop offset="1" stop-color="#361818" stop-opacity="0"/>
</linearGradient>
<linearGradient id="paint14_linear_2_97" x1="178.289" y1="66.8743" x2="178.289" y2="82.4696" gradientUnits="userSpaceOnUse">
<stop stop-color="#232323" stop-opacity="0.8"/>
<stop offset="1" stop-color="#361818" stop-opacity="0"/>
</linearGradient>
<linearGradient id="paint15_linear_2_97" x1="231.147" y1="63.9502" x2="231.147" y2="64.9502" gradientUnits="userSpaceOnUse">
<stop stop-color="#232323" stop-opacity="0.8"/>
<stop offset="1" stop-color="#361818" stop-opacity="0"/>
</linearGradient>
<linearGradient id="paint16_linear_2_97" x1="277.286" y1="43.481" x2="277.286" y2="46.4051" gradientUnits="userSpaceOnUse">
<stop stop-color="#232323" stop-opacity="0.8"/>
<stop offset="1" stop-color="#361818" stop-opacity="0"/>
</linearGradient>
<linearGradient id="paint17_linear_2_97" x1="307.747" y1="43.481" x2="307.747" y2="133.642" gradientUnits="userSpaceOnUse">
<stop stop-color="#232323" stop-opacity="0.8"/>
<stop offset="1" stop-color="#361818" stop-opacity="0"/>
</linearGradient>
<linearGradient id="paint18_linear_2_97" x1="319.394" y1="19.1133" x2="319.394" y2="26.911" gradientUnits="userSpaceOnUse">
<stop stop-color="#232323" stop-opacity="0.8"/>
<stop offset="1" stop-color="#361818" stop-opacity="0"/>
</linearGradient>
<linearGradient id="paint19_linear_2_97" x1="342.687" y1="19.1133" x2="342.687" y2="134.129" gradientUnits="userSpaceOnUse">
<stop stop-color="#232323" stop-opacity="0.8"/>
<stop offset="1" stop-color="#361818" stop-opacity="0"/>
</linearGradient>
<linearGradient id="paint20_linear_2_97" x1="191.504" y1="112.198" x2="191.504" y2="135.104" gradientUnits="userSpaceOnUse">
<stop stop-color="#232323" stop-opacity="0.8"/>
<stop offset="1" stop-color="#361818" stop-opacity="0"/>
</linearGradient>
<linearGradient id="paint21_linear_2_97" x1="217.261" y1="96.1157" x2="217.261" y2="132.667" gradientUnits="userSpaceOnUse">
<stop stop-color="#232323" stop-opacity="0.8"/>
<stop offset="1" stop-color="#361818" stop-opacity="0"/>
</linearGradient>
<linearGradient id="paint22_linear_2_97" x1="249.289" y1="82.957" x2="249.289" y2="136.566" gradientUnits="userSpaceOnUse">
<stop stop-color="#232323" stop-opacity="0.8"/>
<stop offset="1" stop-color="#361818" stop-opacity="0"/>
</linearGradient>
<linearGradient id="paint23_linear_2_97" x1="278.63" y1="63.4629" x2="278.63" y2="137.053" gradientUnits="userSpaceOnUse">
<stop stop-color="#232323" stop-opacity="0.8"/>
<stop offset="1" stop-color="#361818" stop-opacity="0"/>
</linearGradient>
</defs>
</svg>
