<svg width="35" height="35" viewBox="0 0 35 35" fill="none" xmlns="http://www.w3.org/2000/svg">
<path d="M5.10425 29.1667C4.52091 29.1667 4.0105 28.9479 3.573 28.5104C3.1355 28.0729 2.91675 27.5625 2.91675 26.9792V8.02084C2.91675 7.43751 3.1355 6.92709 3.573 6.48959C4.0105 6.05209 4.52091 5.83334 5.10425 5.83334H29.8959C30.4792 5.83334 30.9897 6.05209 31.4272 6.48959C31.8647 6.92709 32.0834 7.43751 32.0834 8.02084V26.9792C32.0834 27.5625 31.8647 28.0729 31.4272 28.5104C30.9897 28.9479 30.4792 29.1667 29.8959 29.1667H5.10425ZM17.5001 18.1563L29.8959 10.0261V8.02084L17.5001 15.9688L5.10425 8.02084V10.0261L17.5001 18.1563Z" fill="white"/>
</svg>
