<svg width="46" height="40" viewBox="0 0 46 40" fill="none" xmlns="http://www.w3.org/2000/svg">
<path d="M6.07498 26.2001C4.57498 26.2001 3.30831 25.68 2.27498 24.6397C1.24164 23.5994 0.724976 22.3362 0.724976 20.8501C0.724976 19.364 1.24511 18.1008 2.28538 17.0605C3.32568 16.0202 4.58888 15.5001 6.07498 15.5001V9.0751C6.07498 8.2751 6.37498 7.5751 6.97498 6.9751C7.57498 6.3751 8.27498 6.0751 9.07498 6.0751H17.65C17.65 4.5751 18.1701 3.30843 19.2104 2.2751C20.2507 1.24176 21.5139 0.725098 23 0.725098C24.4861 0.725098 25.7493 1.24523 26.7896 2.2855C27.8298 3.3258 28.35 4.589 28.35 6.0751H36.925C37.725 6.0751 38.425 6.3751 39.025 6.9751C39.625 7.5751 39.925 8.2751 39.925 9.0751V15.5001C41.425 15.5001 42.6916 16.0202 43.725 17.0605C44.7583 18.1008 45.275 19.364 45.275 20.8501C45.275 22.3362 44.7548 23.5994 43.7146 24.6397C42.6743 25.68 41.4111 26.2001 39.925 26.2001V36.2751C39.925 37.0751 39.625 37.7751 39.025 38.3751C38.425 38.9751 37.725 39.2751 36.925 39.2751H9.07498C8.27498 39.2751 7.57498 38.9751 6.97498 38.3751C6.37498 37.7751 6.07498 37.0751 6.07498 36.2751V26.2001ZM16.2335 21.1283C16.8082 21.1283 17.2933 20.9268 17.6886 20.5236C18.0838 20.1205 18.2815 19.6296 18.2815 19.0508C18.2815 18.4721 18.0799 17.985 17.6768 17.5897C17.2737 17.1945 16.7847 16.9968 16.21 16.9968C15.6352 16.9968 15.1482 17.1981 14.7489 17.6005C14.3496 18.003 14.15 18.4963 14.15 19.0803C14.15 19.6551 14.3535 20.1401 14.7607 20.5354C15.1678 20.9307 15.6587 21.1283 16.2335 21.1283ZM29.79 21.1283C30.3647 21.1283 30.8518 20.9268 31.2511 20.5236C31.6503 20.1205 31.85 19.6296 31.85 19.0508C31.85 18.4721 31.6464 17.985 31.2393 17.5897C30.8322 17.1945 30.3412 16.9968 29.7665 16.9968C29.1917 16.9968 28.7067 17.1981 28.3114 17.6005C27.9161 18.003 27.7185 18.4963 27.7185 19.0803C27.7185 19.6551 27.92 20.1401 28.3232 20.5354C28.7263 20.9307 29.2152 21.1283 29.79 21.1283ZM14.7315 30.7501H31.2685V27.6186H14.7315V30.7501Z" fill="url(#paint0_linear_83_33)"/>
<defs>
<linearGradient id="paint0_linear_83_33" x1="23" y1="0.725098" x2="23" y2="39.2751" gradientUnits="userSpaceOnUse">
<stop stop-color="#8849DA"/>
<stop offset="1" stop-color="#B081EB" stop-opacity="0.5"/>
</linearGradient>
</defs>
</svg>
