<svg width="46" height="34" viewBox="0 0 46 34" fill="none" xmlns="http://www.w3.org/2000/svg">
<path d="M27.0001 12.1001V9.7001C28.1001 9.23343 29.2251 8.88343 30.3751 8.6501C31.5251 8.41676 32.7334 8.3001 34.0001 8.3001C34.8668 8.3001 35.7168 8.36676 36.5501 8.5001C37.3834 8.63343 38.2001 8.8001 39.0001 9.0001V11.2001C38.2001 10.9001 37.3918 10.6751 36.5751 10.5251C35.7584 10.3751 34.9001 10.3001 34.0001 10.3001C32.7334 10.3001 31.5168 10.4584 30.3501 10.7751C29.1834 11.0918 28.0668 11.5334 27.0001 12.1001ZM27.0001 23.1001V20.6501C28.1001 20.1834 29.2251 19.8418 30.3751 19.6251C31.5251 19.4084 32.7334 19.3001 34.0001 19.3001C34.8668 19.3001 35.7168 19.3668 36.5501 19.5001C37.3834 19.6334 38.2001 19.8001 39.0001 20.0001V22.2001C38.2001 21.9001 37.3918 21.6751 36.5751 21.5251C35.7584 21.3751 34.9001 21.3001 34.0001 21.3001C32.7334 21.3001 31.5168 21.4501 30.3501 21.7501C29.1834 22.0501 28.0668 22.5001 27.0001 23.1001ZM27.0001 17.6001V15.2001C28.1001 14.7334 29.2251 14.3834 30.3751 14.1501C31.5251 13.9168 32.7334 13.8001 34.0001 13.8001C34.8668 13.8001 35.7168 13.8668 36.5501 14.0001C37.3834 14.1334 38.2001 14.3001 39.0001 14.5001V16.7001C38.2001 16.4001 37.3918 16.1751 36.5751 16.0251C35.7584 15.8751 34.9001 15.8001 34.0001 15.8001C32.7334 15.8001 31.5168 15.9584 30.3501 16.2751C29.1834 16.5918 28.0668 17.0334 27.0001 17.6001ZM24.6001 28.3001C26.2668 27.4668 27.9001 26.8418 29.5001 26.4251C31.1001 26.0084 32.8001 25.8001 34.6001 25.8001C35.8668 25.8001 37.1751 25.9001 38.5251 26.1001C39.8751 26.3001 41.0334 26.5668 42.0001 26.9001V5.4501C40.8668 4.8501 39.6668 4.4251 38.4001 4.1751C37.1334 3.9251 35.8668 3.8001 34.6001 3.8001C32.8001 3.8001 31.0584 4.0751 29.3751 4.6251C27.6918 5.1751 26.1001 5.9501 24.6001 6.9501V28.3001ZM23.1501 33.5501C21.4501 32.3168 19.6001 31.3251 17.6001 30.5751C15.6001 29.8251 13.5334 29.4501 11.4001 29.4501C10.2334 29.4501 9.08343 29.6084 7.9501 29.9251C6.81676 30.2418 5.68343 30.6001 4.5501 31.0001C3.58343 31.4668 2.64176 31.4168 1.7251 30.8501C0.808431 30.2834 0.350098 29.4501 0.350098 28.3501V5.2501C0.350098 4.5501 0.508431 3.90843 0.825098 3.3251C1.14176 2.74176 1.6001 2.3001 2.2001 2.0001C3.63343 1.33343 5.11676 0.850097 6.6501 0.550097C8.18343 0.250097 9.7501 0.100098 11.3501 0.100098C13.4501 0.100098 15.5001 0.391764 17.5001 0.975098C19.5001 1.55843 21.3668 2.4501 23.1001 3.6501C24.8001 2.4501 26.6334 1.55843 28.6001 0.975098C30.5668 0.391764 32.5834 0.100098 34.6501 0.100098C36.2501 0.100098 37.8084 0.250097 39.3251 0.550097C40.8418 0.850097 42.3168 1.33343 43.7501 2.0001C44.3501 2.3001 44.8168 2.74176 45.1501 3.3251C45.4834 3.90843 45.6501 4.5501 45.6501 5.2501V28.6501C45.6501 29.7501 45.1751 30.5584 44.2251 31.0751C43.2751 31.5918 42.3334 31.5668 41.4001 31.0001C40.3001 30.5668 39.1834 30.2001 38.0501 29.9001C36.9168 29.6001 35.7668 29.4501 34.6001 29.4501C32.5001 29.4501 30.4918 29.8334 28.5751 30.6001C26.6584 31.3668 24.8501 32.3501 23.1501 33.5501Z" fill="url(#paint0_linear_10_266)"/>
<defs>
<linearGradient id="paint0_linear_10_266" x1="23.0001" y1="0.100098" x2="23.0001" y2="33.5501" gradientUnits="userSpaceOnUse">
<stop stop-color="#8849DA"/>
<stop offset="1" stop-color="#B081EB" stop-opacity="0.5"/>
</linearGradient>
</defs>
</svg>
