<svg width="1241" height="757" viewBox="0 0 1241 757" fill="none" xmlns="http://www.w3.org/2000/svg">
<path d="M-94.7479 576.915L-101.493 570.17L-105.321 573.998L-98.5762 580.743L-104.94 587.107L-101.211 590.836L-94.8473 584.472L-87.7541 591.565L-83.9258 587.737L-91.019 580.644L-84.6716 574.296L-88.4005 570.567L-94.7479 576.915ZM-50.9227 541.575L-54.1378 538.36L-67.479 551.701L-64.2638 554.916L-50.9227 541.575ZM-26.7861 508.953L-33.5312 502.208L-37.3595 506.036L-30.6144 512.781L-36.9783 519.145L-33.2495 522.874L-26.8855 516.51L-19.7923 523.603L-15.964 519.775L-23.0572 512.682L-16.7098 506.335L-20.4387 502.606L-26.7861 508.953ZM17.0391 473.613L13.824 470.398L0.482839 483.739L3.69796 486.954L17.0391 473.613ZM41.1757 440.991L34.4306 434.246L30.6023 438.074L37.3474 444.82L30.9835 451.184L34.7123 454.912L41.0763 448.548L48.1695 455.642L51.9978 451.813L44.9046 444.72L51.252 438.373L47.5231 434.644L41.1757 440.991ZM85.0009 405.651L81.7858 402.436L68.4446 415.777L71.6598 418.992L85.0009 405.651ZM109.138 373.029L102.392 366.284L98.5641 370.113L105.309 376.858L98.9452 383.222L102.674 386.951L109.038 380.587L116.131 387.68L119.96 383.851L112.866 376.758L119.214 370.411L115.485 366.682L109.138 373.029ZM152.963 337.69L149.748 334.474L136.406 347.816L139.622 351.031L152.963 337.69ZM177.099 305.068L170.354 298.322L166.526 302.151L173.271 308.896L166.907 315.26L170.636 318.989L177 312.625L184.093 319.718L187.921 315.89L180.828 308.797L187.176 302.449L183.447 298.72L177.099 305.068ZM220.924 269.728L217.709 266.513L204.368 279.854L207.583 283.069L220.924 269.728ZM245.061 237.106L238.316 230.361L234.488 234.189L241.233 240.934L234.869 247.298L238.598 251.027L244.962 244.663L252.055 251.756L255.883 247.928L248.79 240.835L255.137 234.487L251.409 230.758L245.061 237.106Z" fill="#7936CE"/>
<path d="M-163.076 509.539L-169.821 502.794L-173.649 506.622L-166.904 513.367L-173.268 519.731L-169.539 523.46L-163.175 517.096L-156.082 524.189L-152.254 520.361L-159.347 513.268L-152.999 506.921L-156.728 503.192L-163.076 509.539ZM-119.251 474.199L-122.466 470.984L-135.807 484.325L-132.592 487.54L-119.251 474.199ZM-95.1139 441.577L-101.859 434.832L-105.687 438.661L-98.9423 445.406L-105.306 451.77L-101.577 455.498L-95.2134 449.135L-88.1202 456.228L-84.2919 452.399L-91.3851 445.306L-85.0377 438.959L-88.7666 435.23L-95.1139 441.577ZM-51.2888 406.237L-54.5039 403.022L-67.845 416.363L-64.6299 419.579L-51.2888 406.237ZM-27.1521 373.616L-33.8973 366.87L-37.7256 370.699L-30.9805 377.444L-37.3444 383.808L-33.6155 387.537L-27.2516 381.173L-20.1584 388.266L-16.3301 384.438L-23.4233 377.344L-17.0759 370.997L-20.8048 367.268L-27.1521 373.616ZM16.673 338.276L13.4579 335.061L0.116759 348.402L3.33189 351.617L16.673 338.276ZM40.8096 305.654L34.0645 298.909L30.2362 302.737L36.9813 309.482L30.6174 315.846L34.3462 319.575L40.7102 313.211L47.8034 320.304L51.6317 316.476L44.5385 309.383L50.8859 303.035L47.157 299.306L40.8096 305.654ZM84.6348 270.314L81.4197 267.099L68.0785 280.44L71.2937 283.655L84.6348 270.314ZM108.771 237.692L102.026 230.947L98.198 234.775L104.943 241.52L98.5792 247.884L102.308 251.613L108.672 245.249L115.765 252.342L119.594 248.514L112.5 241.421L118.848 235.073L115.119 231.345L108.771 237.692ZM152.597 202.352L149.381 199.137L136.04 212.478L139.255 215.693L152.597 202.352ZM176.733 169.73L169.988 162.985L166.16 166.813L172.905 173.558L166.541 179.922L170.27 183.651L176.634 177.287L183.727 184.38L187.555 180.552L180.462 173.459L186.81 167.112L183.081 163.383L176.733 169.73Z" fill="#7936CE"/>
<path d="M-26.3539 644.525L-33.0991 637.78L-36.9274 641.608L-30.1823 648.353L-36.5462 654.717L-32.8173 658.446L-26.4534 652.082L-19.3602 659.175L-15.5319 655.347L-22.6251 648.254L-16.2777 641.906L-20.0066 638.177L-26.3539 644.525ZM17.4712 609.185L14.2561 605.97L0.914963 619.311L4.13009 622.526L17.4712 609.185ZM41.6079 576.563L34.8627 569.818L31.0344 573.646L37.7795 580.391L31.4156 586.755L35.1445 590.484L41.5084 584.12L48.6016 591.213L52.4299 587.385L45.3367 580.292L51.6841 573.945L47.9552 570.216L41.6079 576.563ZM85.433 541.223L82.2179 538.008L68.8768 551.349L72.0919 554.564L85.433 541.223ZM109.57 508.601L102.825 501.856L98.9962 505.684L105.741 512.43L99.3774 518.794L103.106 522.522L109.47 516.158L116.563 523.252L120.392 519.423L113.299 512.33L119.646 505.983L115.917 502.254L109.57 508.601ZM153.395 473.261L150.18 470.046L136.839 483.387L140.054 486.602L153.395 473.261ZM177.531 440.639L170.786 433.894L166.958 437.723L173.703 444.468L167.339 450.832L171.068 454.561L177.432 448.197L184.525 455.29L188.353 451.461L181.26 444.368L187.608 438.021L183.879 434.292L177.531 440.639ZM221.357 405.3L218.141 402.084L204.8 415.426L208.015 418.641L221.357 405.3ZM245.493 372.678L238.748 365.932L234.92 369.761L241.665 376.506L235.301 382.87L239.03 386.599L245.394 380.235L252.487 387.328L256.315 383.5L249.222 376.406L255.57 370.059L251.841 366.33L245.493 372.678ZM289.318 337.338L286.103 334.123L272.762 347.464L275.977 350.679L289.318 337.338ZM313.455 304.716L306.71 297.971L302.882 301.799L309.627 308.544L303.263 314.908L306.992 318.637L313.356 312.273L320.449 319.366L324.277 315.538L317.184 308.445L323.531 302.097L319.802 298.368L313.455 304.716Z" fill="#7936CE"/>
<path d="M-230.565 440.727L-237.311 433.982L-241.139 437.81L-234.394 444.555L-240.758 450.919L-237.029 454.648L-230.665 448.284L-223.572 455.377L-219.743 451.549L-226.836 444.456L-220.489 438.108L-224.218 434.379L-230.565 440.727ZM-186.74 405.387L-189.955 402.172L-203.296 415.513L-200.081 418.728L-186.74 405.387ZM-162.604 372.765L-169.349 366.02L-173.177 369.848L-166.432 376.593L-172.796 382.957L-169.067 386.686L-162.703 380.322L-155.61 387.415L-151.782 383.587L-158.875 376.494L-152.527 370.146L-156.256 366.418L-162.604 372.765ZM-118.778 337.425L-121.994 334.21L-135.335 347.551L-132.12 350.766L-118.778 337.425ZM-94.6418 304.803L-101.387 298.058L-105.215 301.886L-98.4701 308.631L-104.834 314.995L-101.105 318.724L-94.7412 312.36L-87.648 319.454L-83.8197 315.625L-90.9129 308.532L-84.5655 302.185L-88.2944 298.456L-94.6418 304.803ZM-50.8166 269.463L-54.0317 266.248L-67.3729 279.589L-64.1577 282.804L-50.8166 269.463ZM-26.68 236.841L-33.4251 230.096L-37.2534 233.925L-30.5083 240.67L-36.8723 247.034L-33.1434 250.763L-26.7794 244.399L-19.6863 251.492L-15.8579 247.663L-22.9511 240.57L-16.6037 234.223L-20.3326 230.494L-26.68 236.841ZM17.1452 201.501L13.93 198.286L0.588926 211.627L3.80405 214.843L17.1452 201.501ZM41.2818 168.88L34.5367 162.134L30.7084 165.963L37.4535 172.708L31.0896 179.072L34.8184 182.801L41.1824 176.437L48.2756 183.53L52.1039 179.702L45.0107 172.608L51.3581 166.261L47.6292 162.532L41.2818 168.88ZM85.107 133.54L81.8919 130.325L68.5507 143.666L71.7659 146.881L85.107 133.54ZM109.244 100.918L102.498 94.1726L98.6702 98.0009L105.415 104.746L99.0513 111.11L102.78 114.839L109.144 108.475L116.237 115.568L120.066 111.74L112.973 104.647L119.32 98.2992L115.591 94.5703L109.244 100.918Z" fill="#7936CE"/>
<path d="M-23.0096 241.636L-16.2644 234.891L-20.0928 231.062L-26.8379 237.808L-33.2019 231.444L-36.9307 235.173L-30.5668 241.536L-37.66 248.63L-33.8316 252.458L-26.7385 245.365L-20.3911 251.712L-16.6622 247.983L-23.0096 241.636ZM12.3303 285.461L15.5454 282.246L2.2043 268.905L-1.01083 272.12L12.3303 285.461ZM44.9522 309.598L51.6974 302.853L47.869 299.024L41.1239 305.769L34.7599 299.405L31.0311 303.134L37.395 309.498L30.3018 316.591L34.1302 320.42L41.2233 313.327L47.5707 319.674L51.2996 315.945L44.9522 309.598ZM80.2921 353.423L83.5072 350.208L70.1661 336.867L66.951 340.082L80.2921 353.423ZM112.914 377.56L119.659 370.814L115.831 366.986L109.086 373.731L102.722 367.367L98.9929 371.096L105.357 377.46L98.2637 384.553L102.092 388.382L109.185 381.288L115.533 387.636L119.261 383.907L112.914 377.56ZM148.254 421.385L151.469 418.17L138.128 404.828L134.913 408.044L148.254 421.385ZM180.876 445.521L187.621 438.776L183.793 434.948L177.047 441.693L170.684 435.329L166.955 439.058L173.319 445.422L166.225 452.515L170.054 456.343L177.147 449.25L183.494 455.598L187.223 451.869L180.876 445.521ZM216.216 489.346L219.431 486.131L206.09 472.79L202.875 476.005L216.216 489.346Z" fill="#7936CE"/>
<path d="M112.755 105.871L119.5 99.1262L115.672 95.2979L108.927 102.043L102.563 95.6791L98.8338 99.4079L105.198 105.772L98.1046 112.865L101.933 116.693L109.026 109.6L115.373 115.948L119.102 112.219L112.755 105.871ZM148.095 149.696L151.31 146.481L137.969 133.14L134.754 136.355L148.095 149.696ZM180.717 173.833L187.462 167.088L183.634 163.26L176.888 170.005L170.524 163.641L166.796 167.37L173.16 173.734L166.066 180.827L169.895 184.655L176.988 177.562L183.335 183.909L187.064 180.181L180.717 173.833ZM216.057 217.658L219.272 214.443L205.931 201.102L202.715 204.317L216.057 217.658ZM248.679 241.795L255.424 235.05L251.595 231.221L244.85 237.967L238.486 231.603L234.757 235.332L241.121 241.695L234.028 248.789L237.856 252.617L244.95 245.524L251.297 251.871L255.026 248.142L248.679 241.795ZM284.018 285.62L287.234 282.405L273.892 269.064L270.677 272.279L284.018 285.62ZM316.64 309.757L323.385 303.012L319.557 299.183L312.812 305.928L306.448 299.564L302.719 303.293L309.083 309.657L301.99 316.75L305.818 320.579L312.911 313.486L319.259 319.833L322.988 316.104L316.64 309.757ZM351.98 353.582L355.195 350.367L341.854 337.026L338.639 340.241L351.98 353.582Z" fill="#7936CE"/>
<path d="M-90.8919 309.518L-84.1468 302.773L-87.9751 298.945L-94.7202 305.69L-101.084 299.326L-104.813 303.055L-98.4491 309.419L-105.542 316.512L-101.714 320.34L-94.6208 313.247L-88.2734 319.594L-84.5445 315.866L-90.8919 309.518ZM-55.552 353.343L-52.3369 350.128L-65.678 336.787L-68.8932 340.002L-55.552 353.343ZM-22.9301 377.48L-16.185 370.735L-20.0133 366.906L-26.7584 373.652L-33.1224 367.288L-36.8513 371.017L-30.4873 377.38L-37.5805 384.474L-33.7522 388.302L-26.659 381.209L-20.3116 387.556L-16.5827 383.827L-22.9301 377.48ZM12.4098 421.305L15.6249 418.09L2.28377 404.749L-0.931356 407.964L12.4098 421.305ZM45.0317 445.442L51.7768 438.697L47.9485 434.868L41.2034 441.613L34.8394 435.249L31.1105 438.978L37.4745 445.342L30.3813 452.435L34.2096 456.264L41.3028 449.171L47.6502 455.518L51.3791 451.789L45.0317 445.442ZM80.3716 489.267L83.5867 486.052L70.2456 472.711L67.0304 475.926L80.3716 489.267ZM112.993 513.404L119.739 506.658L115.91 502.83L109.165 509.575L102.801 503.211L99.0723 506.94L105.436 513.304L98.3431 520.397L102.171 524.226L109.265 517.132L115.612 523.48L119.341 519.751L112.993 513.404ZM148.333 557.229L151.548 554.014L138.207 540.672L134.992 543.888L148.333 557.229Z" fill="#7936CE"/>
<path d="M-158.774 377.4L-152.029 370.655L-155.857 366.827L-162.602 373.572L-168.966 367.208L-172.695 370.937L-166.331 377.301L-173.424 384.394L-169.596 388.222L-162.503 381.129L-156.156 387.477L-152.427 383.748L-158.774 377.4ZM-123.434 421.226L-120.219 418.01L-133.56 404.669L-136.775 407.884L-123.434 421.226ZM-90.8123 445.362L-84.0672 438.617L-87.8955 434.789L-94.6406 441.534L-101.005 435.17L-104.733 438.899L-98.3695 445.263L-105.463 452.356L-101.634 456.184L-94.5412 449.091L-88.1938 455.439L-84.4649 451.71L-90.8123 445.362ZM-55.4724 489.187L-52.2573 485.972L-65.5984 472.631L-68.8136 475.846L-55.4724 489.187ZM-22.8505 513.324L-16.1054 506.579L-19.9337 502.751L-26.6788 509.496L-33.0428 503.132L-36.7717 506.861L-30.4077 513.225L-37.5009 520.318L-33.6726 524.146L-26.5794 517.053L-20.232 523.4L-16.5031 519.671L-22.8505 513.324ZM12.4894 557.149L15.7045 553.934L2.36337 540.593L-0.851757 543.808L12.4894 557.149ZM45.1113 581.286L51.8564 574.541L48.0281 570.712L41.283 577.458L34.919 571.094L31.1901 574.822L37.5541 581.186L30.4609 588.28L34.2892 592.108L41.3824 585.015L47.7298 591.362L51.4587 587.633L45.1113 581.286ZM80.4511 625.111L83.6663 621.896L70.3252 608.555L67.11 611.77L80.4511 625.111Z" fill="#7936CE"/>
<path d="M177.252 576.915L170.507 570.17L166.679 573.998L173.424 580.743L167.06 587.107L170.789 590.836L177.153 584.472L184.246 591.565L188.074 587.737L180.981 580.644L187.328 574.296L183.6 570.567L177.252 576.915ZM221.077 541.575L217.862 538.36L204.521 551.701L207.736 554.916L221.077 541.575ZM245.214 508.953L238.469 502.208L234.64 506.036L241.386 512.781L235.022 519.145L238.751 522.874L245.114 516.51L252.208 523.603L256.036 519.775L248.943 512.682L255.29 506.335L251.561 502.606L245.214 508.953ZM289.039 473.613L285.824 470.398L272.483 483.739L275.698 486.954L289.039 473.613ZM313.176 440.991L306.431 434.246L302.602 438.074L309.347 444.82L302.983 451.184L306.712 454.912L313.076 448.548L320.169 455.642L323.998 451.813L316.905 444.72L323.252 438.373L319.523 434.644L313.176 440.991ZM357.001 405.651L353.786 402.436L340.445 415.777L343.66 418.992L357.001 405.651ZM381.138 373.029L374.392 366.284L370.564 370.113L377.309 376.858L370.945 383.222L374.674 386.951L381.038 380.587L388.131 387.68L391.96 383.851L384.866 376.758L391.214 370.411L387.485 366.682L381.138 373.029ZM424.963 337.69L421.748 334.474L408.406 347.816L411.622 351.031L424.963 337.69ZM449.099 305.068L442.354 298.322L438.526 302.151L445.271 308.896L438.907 315.26L442.636 318.989L449 312.625L456.093 319.718L459.921 315.89L452.828 308.797L459.176 302.449L455.447 298.72L449.099 305.068ZM492.924 269.728L489.709 266.513L476.368 279.854L479.583 283.069L492.924 269.728ZM517.061 237.106L510.316 230.361L506.488 234.189L513.233 240.934L506.869 247.298L510.598 251.027L516.962 244.663L524.055 251.756L527.883 247.928L520.79 240.835L527.137 234.487L523.409 230.758L517.061 237.106Z" fill="#7936CE"/>
<path d="M108.924 509.539L102.179 502.794L98.3508 506.622L105.096 513.367L98.732 519.731L102.461 523.46L108.825 517.096L115.918 524.189L119.746 520.361L112.653 513.268L119.001 506.921L115.272 503.192L108.924 509.539ZM152.749 474.199L149.534 470.984L136.193 484.325L139.408 487.54L152.749 474.199ZM176.886 441.577L170.141 434.832L166.313 438.661L173.058 445.406L166.694 451.77L170.423 455.498L176.787 449.135L183.88 456.228L187.708 452.399L180.615 445.306L186.962 438.959L183.233 435.23L176.886 441.577ZM220.711 406.237L217.496 403.022L204.155 416.363L207.37 419.579L220.711 406.237ZM244.848 373.616L238.103 366.87L234.274 370.699L241.02 377.444L234.656 383.808L238.384 387.537L244.748 381.173L251.842 388.266L255.67 384.438L248.577 377.344L254.924 370.997L251.195 367.268L244.848 373.616ZM288.673 338.276L285.458 335.061L272.117 348.402L275.332 351.617L288.673 338.276ZM312.81 305.654L306.065 298.909L302.236 302.737L308.981 309.482L302.617 315.846L306.346 319.575L312.71 313.211L319.803 320.304L323.632 316.476L316.539 309.383L322.886 303.035L319.157 299.306L312.81 305.654ZM356.635 270.314L353.42 267.099L340.079 280.44L343.294 283.655L356.635 270.314ZM380.771 237.692L374.026 230.947L370.198 234.775L376.943 241.52L370.579 247.884L374.308 251.613L380.672 245.249L387.765 252.342L391.594 248.514L384.5 241.421L390.848 235.073L387.119 231.345L380.771 237.692ZM424.597 202.352L421.381 199.137L408.04 212.478L411.255 215.693L424.597 202.352ZM448.733 169.73L441.988 162.985L438.16 166.813L444.905 173.558L438.541 179.922L442.27 183.651L448.634 177.287L455.727 184.38L459.555 180.552L452.462 173.459L458.81 167.112L455.081 163.383L448.733 169.73Z" fill="#7936CE"/>
<path d="M245.646 644.525L238.901 637.78L235.073 641.608L241.818 648.353L235.454 654.717L239.183 658.446L245.547 652.082L252.64 659.175L256.468 655.347L249.375 648.254L255.722 641.906L251.993 638.177L245.646 644.525ZM289.471 609.185L286.256 605.97L272.915 619.311L276.13 622.526L289.471 609.185ZM313.608 576.563L306.863 569.818L303.034 573.646L309.78 580.391L303.416 586.755L307.144 590.484L313.508 584.12L320.602 591.213L324.43 587.385L317.337 580.292L323.684 573.945L319.955 570.216L313.608 576.563ZM357.433 541.223L354.218 538.008L340.877 551.349L344.092 554.564L357.433 541.223ZM381.57 508.601L374.825 501.856L370.996 505.684L377.741 512.43L371.377 518.794L375.106 522.522L381.47 516.158L388.563 523.252L392.392 519.423L385.299 512.33L391.646 505.983L387.917 502.254L381.57 508.601ZM425.395 473.261L422.18 470.046L408.839 483.387L412.054 486.602L425.395 473.261ZM449.531 440.639L442.786 433.894L438.958 437.723L445.703 444.468L439.339 450.832L443.068 454.561L449.432 448.197L456.525 455.29L460.353 451.461L453.26 444.368L459.608 438.021L455.879 434.292L449.531 440.639ZM493.357 405.3L490.141 402.084L476.8 415.426L480.015 418.641L493.357 405.3ZM517.493 372.678L510.748 365.932L506.92 369.761L513.665 376.506L507.301 382.87L511.03 386.599L517.394 380.235L524.487 387.328L528.315 383.5L521.222 376.406L527.57 370.059L523.841 366.33L517.493 372.678ZM561.318 337.338L558.103 334.123L544.762 347.464L547.977 350.679L561.318 337.338ZM585.455 304.716L578.71 297.971L574.882 301.799L581.627 308.544L575.263 314.908L578.992 318.637L585.356 312.273L592.449 319.366L596.277 315.538L589.184 308.445L595.531 302.097L591.802 298.368L585.455 304.716Z" fill="#7936CE"/>
<path d="M41.4346 440.727L34.6895 433.982L30.8612 437.81L37.6063 444.555L31.2423 450.919L34.9712 454.648L41.3352 448.284L48.4284 455.377L52.2567 451.549L45.1635 444.456L51.5109 438.108L47.782 434.379L41.4346 440.727ZM85.2598 405.387L82.0447 402.172L68.7035 415.513L71.9187 418.728L85.2598 405.387ZM109.396 372.765L102.651 366.02L98.823 369.848L105.568 376.593L99.2041 382.957L102.933 386.686L109.297 380.322L116.39 387.415L120.218 383.587L113.125 376.494L119.473 370.146L115.744 366.418L109.396 372.765ZM153.222 337.425L150.006 334.21L136.665 347.551L139.88 350.766L153.222 337.425ZM177.358 304.803L170.613 298.058L166.785 301.886L173.53 308.631L167.166 314.995L170.895 318.724L177.259 312.36L184.352 319.454L188.18 315.625L181.087 308.532L187.435 302.185L183.706 298.456L177.358 304.803ZM221.183 269.463L217.968 266.248L204.627 279.589L207.842 282.804L221.183 269.463ZM245.32 236.841L238.575 230.096L234.747 233.925L241.492 240.67L235.128 247.034L238.857 250.763L245.221 244.399L252.314 251.492L256.142 247.663L249.049 240.57L255.396 234.223L251.667 230.494L245.32 236.841ZM289.145 201.501L285.93 198.286L272.589 211.627L275.804 214.843L289.145 201.501ZM313.282 168.88L306.537 162.134L302.708 165.963L309.454 172.708L303.09 179.072L306.818 182.801L313.182 176.437L320.276 183.53L324.104 179.702L317.011 172.608L323.358 166.261L319.629 162.532L313.282 168.88ZM357.107 133.54L353.892 130.325L340.551 143.666L343.766 146.881L357.107 133.54ZM381.244 100.918L374.498 94.1726L370.67 98.0009L377.415 104.746L371.051 111.11L374.78 114.839L381.144 108.475L388.237 115.568L392.066 111.74L384.973 104.647L391.32 98.2992L387.591 94.5703L381.244 100.918Z" fill="#7936CE"/>
<path d="M248.99 241.636L255.736 234.891L251.907 231.062L245.162 237.808L238.798 231.444L235.069 235.173L241.433 241.536L234.34 248.63L238.168 252.458L245.262 245.365L251.609 251.712L255.338 247.983L248.99 241.636ZM284.33 285.461L287.545 282.246L274.204 268.905L270.989 272.12L284.33 285.461ZM316.952 309.598L323.697 302.853L319.869 299.024L313.124 305.769L306.76 299.405L303.031 303.134L309.395 309.498L302.302 316.591L306.13 320.42L313.223 313.327L319.571 319.674L323.3 315.945L316.952 309.598ZM352.292 353.423L355.507 350.208L342.166 336.867L338.951 340.082L352.292 353.423ZM384.914 377.56L391.659 370.814L387.831 366.986L381.086 373.731L374.722 367.367L370.993 371.096L377.357 377.46L370.264 384.553L374.092 388.382L381.185 381.288L387.533 387.636L391.261 383.907L384.914 377.56ZM420.254 421.385L423.469 418.17L410.128 404.828L406.913 408.044L420.254 421.385ZM452.876 445.521L459.621 438.776L455.793 434.948L449.047 441.693L442.684 435.329L438.955 439.058L445.319 445.422L438.225 452.515L442.054 456.343L449.147 449.25L455.494 455.598L459.223 451.869L452.876 445.521ZM488.216 489.346L491.431 486.131L478.09 472.79L474.875 476.005L488.216 489.346Z" fill="#7936CE"/>
<path d="M316.165 173.046L322.911 166.301L319.082 162.473L312.337 169.218L305.973 162.854L302.244 166.583L308.608 172.947L301.515 180.04L305.343 183.868L312.437 176.775L318.784 183.123L322.513 179.394L316.165 173.046ZM351.505 216.872L354.72 213.656L341.379 200.315L338.164 203.53L351.505 216.872ZM384.127 241.008L390.872 234.263L387.044 230.435L380.299 237.18L373.935 230.816L370.206 234.545L376.57 240.909L369.477 248.002L373.305 251.83L380.398 244.737L386.746 251.085L390.475 247.356L384.127 241.008ZM419.467 284.833L422.682 281.618L409.341 268.277L406.126 271.492L419.467 284.833ZM452.089 308.97L458.834 302.225L455.006 298.397L448.261 305.142L441.897 298.778L438.168 302.507L444.532 308.871L437.439 315.964L441.267 319.792L448.36 312.699L454.708 319.046L458.436 315.317L452.089 308.97ZM487.429 352.795L490.644 349.58L477.303 336.239L474.088 339.454L487.429 352.795ZM520.051 376.932L526.796 370.187L522.968 366.358L516.223 373.104L509.859 366.74L506.13 370.468L512.494 376.832L505.4 383.926L509.229 387.754L516.322 380.661L522.669 387.008L526.398 383.279L520.051 376.932ZM555.391 420.757L558.606 417.542L545.265 404.201L542.05 407.416L555.391 420.757Z" fill="#7936CE"/>
<path d="M384.755 105.871L391.5 99.1262L387.672 95.2979L380.927 102.043L374.563 95.6791L370.834 99.4079L377.198 105.772L370.105 112.865L373.933 116.693L381.026 109.6L387.373 115.948L391.102 112.219L384.755 105.871ZM420.095 149.696L423.31 146.481L409.969 133.14L406.754 136.355L420.095 149.696ZM452.717 173.833L459.462 167.088L455.634 163.26L448.888 170.005L442.524 163.641L438.796 167.37L445.16 173.734L438.066 180.827L441.895 184.655L448.988 177.562L455.335 183.909L459.064 180.181L452.717 173.833ZM488.057 217.658L491.272 214.443L477.931 201.102L474.715 204.317L488.057 217.658ZM520.679 241.795L527.424 235.05L523.595 231.221L516.85 237.967L510.486 231.603L506.757 235.332L513.121 241.695L506.028 248.789L509.856 252.617L516.95 245.524L523.297 251.871L527.026 248.142L520.679 241.795ZM556.018 285.62L559.234 282.405L545.892 269.064L542.677 272.279L556.018 285.62ZM588.64 309.757L595.385 303.012L591.557 299.183L584.812 305.928L578.448 299.564L574.719 303.293L581.083 309.657L573.99 316.75L577.818 320.579L584.911 313.486L591.259 319.833L594.988 316.104L588.64 309.757ZM623.98 353.582L627.195 350.367L613.854 337.026L610.639 340.241L623.98 353.582Z" fill="#7936CE"/>
<path d="M181.108 309.518L187.853 302.773L184.025 298.945L177.28 305.69L170.916 299.326L167.187 303.055L173.551 309.419L166.458 316.512L170.286 320.34L177.379 313.247L183.727 319.594L187.455 315.866L181.108 309.518ZM216.448 353.343L219.663 350.128L206.322 336.787L203.107 340.002L216.448 353.343ZM249.07 377.48L255.815 370.735L251.987 366.906L245.242 373.652L238.878 367.288L235.149 371.017L241.513 377.38L234.42 384.474L238.248 388.302L245.341 381.209L251.688 387.556L255.417 383.827L249.07 377.48ZM284.41 421.305L287.625 418.09L274.284 404.749L271.069 407.964L284.41 421.305ZM317.032 445.442L323.777 438.697L319.949 434.868L313.203 441.613L306.839 435.249L303.111 438.978L309.474 445.342L302.381 452.435L306.21 456.264L313.303 449.171L319.65 455.518L323.379 451.789L317.032 445.442ZM352.372 489.267L355.587 486.052L342.246 472.711L339.03 475.926L352.372 489.267ZM384.993 513.404L391.739 506.658L387.91 502.83L381.165 509.575L374.801 503.211L371.072 506.94L377.436 513.304L370.343 520.397L374.171 524.226L381.265 517.132L387.612 523.48L391.341 519.751L384.993 513.404ZM420.333 557.229L423.548 554.014L410.207 540.672L406.992 543.888L420.333 557.229Z" fill="#7936CE"/>
<path d="M113.226 377.4L119.971 370.655L116.143 366.827L109.398 373.572L103.034 367.208L99.3047 370.937L105.669 377.301L98.5755 384.394L102.404 388.222L109.497 381.129L115.844 387.477L119.573 383.748L113.226 377.4ZM148.566 421.226L151.781 418.01L138.44 404.669L135.225 407.884L148.566 421.226ZM181.188 445.362L187.933 438.617L184.105 434.789L177.359 441.534L170.995 435.17L167.267 438.899L173.63 445.263L166.537 452.356L170.366 456.184L177.459 449.091L183.806 455.439L187.535 451.71L181.188 445.362ZM216.528 489.187L219.743 485.972L206.402 472.631L203.186 475.846L216.528 489.187ZM249.149 513.324L255.895 506.579L252.066 502.751L245.321 509.496L238.957 503.132L235.228 506.861L241.592 513.225L234.499 520.318L238.327 524.146L245.421 517.053L251.768 523.4L255.497 519.671L249.149 513.324ZM284.489 557.149L287.704 553.934L274.363 540.593L271.148 543.808L284.489 557.149ZM317.111 581.286L323.856 574.541L320.028 570.712L313.283 577.458L306.919 571.094L303.19 574.822L309.554 581.186L302.461 588.28L306.289 592.108L313.382 585.015L319.73 591.362L323.459 587.633L317.111 581.286Z" fill="#7936CE"/>
<path d="M44.6365 444.575L51.3817 437.83L47.5533 434.002L40.8082 440.747L34.4443 434.383L30.7154 438.112L37.0793 444.476L29.9862 451.569L33.8145 455.398L40.9077 448.304L47.255 454.652L50.9839 450.923L44.6365 444.575ZM79.9764 488.401L83.1915 485.186L69.8504 471.844L66.6353 475.06L79.9764 488.401ZM112.598 512.537L119.343 505.792L115.515 501.964L108.77 508.709L102.406 502.345L98.6772 506.074L105.041 512.438L97.948 519.531L101.776 523.359L108.869 516.266L115.217 522.614L118.946 518.885L112.598 512.537ZM147.938 556.362L151.153 553.147L137.812 539.806L134.597 543.021L147.938 556.362ZM180.56 580.499L187.305 573.754L183.477 569.926L176.732 576.671L170.368 570.307L166.639 574.036L173.003 580.4L165.91 587.493L169.738 591.321L176.831 584.228L183.179 590.575L186.908 586.846L180.56 580.499ZM215.9 624.324L219.115 621.109L205.774 607.768L202.559 610.983L215.9 624.324ZM248.522 648.461L255.267 641.716L251.439 637.887L244.694 644.633L238.33 638.269L234.601 641.997L240.965 648.361L233.872 655.455L237.7 659.283L244.793 652.19L251.14 658.537L254.869 654.808L248.522 648.461Z" fill="#7936CE"/>
<path d="M449.252 576.915L442.507 570.17L438.679 573.998L445.424 580.743L439.06 587.107L442.789 590.836L449.153 584.472L456.246 591.565L460.074 587.737L452.981 580.644L459.328 574.296L455.6 570.567L449.252 576.915ZM493.077 541.575L489.862 538.36L476.521 551.701L479.736 554.916L493.077 541.575ZM517.214 508.953L510.469 502.208L506.64 506.036L513.386 512.781L507.022 519.145L510.751 522.874L517.114 516.51L524.208 523.603L528.036 519.775L520.943 512.682L527.29 506.335L523.561 502.606L517.214 508.953ZM561.039 473.613L557.824 470.398L544.483 483.739L547.698 486.954L561.039 473.613ZM585.176 440.991L578.431 434.246L574.602 438.074L581.347 444.82L574.983 451.184L578.712 454.912L585.076 448.548L592.169 455.642L595.998 451.813L588.905 444.72L595.252 438.373L591.523 434.644L585.176 440.991ZM629.001 405.651L625.786 402.436L612.445 415.777L615.66 418.992L629.001 405.651ZM653.138 373.029L646.392 366.284L642.564 370.113L649.309 376.858L642.945 383.222L646.674 386.951L653.038 380.587L660.131 387.68L663.96 383.851L656.866 376.758L663.214 370.411L659.485 366.682L653.138 373.029ZM696.963 337.69L693.748 334.474L680.406 347.816L683.622 351.031L696.963 337.69ZM721.099 305.068L714.354 298.322L710.526 302.151L717.271 308.896L710.907 315.26L714.636 318.989L721 312.625L728.093 319.718L731.921 315.89L724.828 308.797L731.176 302.449L727.447 298.72L721.099 305.068ZM764.924 269.728L761.709 266.513L748.368 279.854L751.583 283.069L764.924 269.728ZM789.061 237.106L782.316 230.361L778.488 234.189L785.233 240.934L778.869 247.298L782.598 251.027L788.962 244.663L796.055 251.756L799.883 247.928L792.79 240.835L799.137 234.487L795.409 230.758L789.061 237.106Z" fill="#7936CE"/>
<path d="M380.924 509.539L374.179 502.794L370.351 506.622L377.096 513.367L370.732 519.731L374.461 523.46L380.825 517.096L387.918 524.189L391.746 520.361L384.653 513.268L391.001 506.921L387.272 503.192L380.924 509.539ZM424.749 474.199L421.534 470.984L408.193 484.325L411.408 487.54L424.749 474.199ZM448.886 441.577L442.141 434.832L438.313 438.661L445.058 445.406L438.694 451.77L442.423 455.498L448.787 449.135L455.88 456.228L459.708 452.399L452.615 445.306L458.962 438.959L455.233 435.23L448.886 441.577ZM492.711 406.237L489.496 403.022L476.155 416.363L479.37 419.579L492.711 406.237ZM516.848 373.616L510.103 366.87L506.274 370.699L513.02 377.444L506.656 383.808L510.384 387.537L516.748 381.173L523.842 388.266L527.67 384.438L520.577 377.344L526.924 370.997L523.195 367.268L516.848 373.616ZM560.673 338.276L557.458 335.061L544.117 348.402L547.332 351.617L560.673 338.276ZM584.81 305.654L578.065 298.909L574.236 302.737L580.981 309.482L574.617 315.846L578.346 319.575L584.71 313.211L591.803 320.304L595.632 316.476L588.539 309.383L594.886 303.035L591.157 299.306L584.81 305.654ZM628.635 270.314L625.42 267.099L612.079 280.44L615.294 283.655L628.635 270.314ZM652.771 237.692L646.026 230.947L642.198 234.775L648.943 241.52L642.579 247.884L646.308 251.613L652.672 245.249L659.765 252.342L663.594 248.514L656.5 241.421L662.848 235.073L659.119 231.345L652.771 237.692ZM696.597 202.352L693.381 199.137L680.04 212.478L683.255 215.693L696.597 202.352ZM720.733 169.73L713.988 162.985L710.16 166.813L716.905 173.558L710.541 179.922L714.27 183.651L720.634 177.287L727.727 184.38L731.555 180.552L724.462 173.459L730.81 167.112L727.081 163.383L720.733 169.73Z" fill="#7936CE"/>
<path d="M517.646 644.525L510.901 637.78L507.073 641.608L513.818 648.353L507.454 654.717L511.183 658.446L517.547 652.082L524.64 659.175L528.468 655.347L521.375 648.254L527.722 641.906L523.993 638.177L517.646 644.525ZM561.471 609.185L558.256 605.97L544.915 619.311L548.13 622.526L561.471 609.185ZM585.608 576.563L578.863 569.818L575.034 573.646L581.78 580.391L575.416 586.755L579.144 590.484L585.508 584.12L592.602 591.213L596.43 587.385L589.337 580.292L595.684 573.945L591.955 570.216L585.608 576.563ZM629.433 541.223L626.218 538.008L612.877 551.349L616.092 554.564L629.433 541.223ZM653.57 508.601L646.825 501.856L642.996 505.684L649.741 512.43L643.377 518.794L647.106 522.522L653.47 516.158L660.563 523.252L664.392 519.423L657.299 512.33L663.646 505.983L659.917 502.254L653.57 508.601ZM697.395 473.261L694.18 470.046L680.839 483.387L684.054 486.602L697.395 473.261ZM721.531 440.639L714.786 433.894L710.958 437.723L717.703 444.468L711.339 450.832L715.068 454.561L721.432 448.197L728.525 455.29L732.353 451.461L725.26 444.368L731.608 438.021L727.879 434.292L721.531 440.639ZM765.357 405.3L762.141 402.084L748.8 415.426L752.015 418.641L765.357 405.3ZM789.493 372.678L782.748 365.932L778.92 369.761L785.665 376.506L779.301 382.87L783.03 386.599L789.394 380.235L796.487 387.328L800.315 383.5L793.222 376.406L799.57 370.059L795.841 366.33L789.493 372.678ZM833.318 337.338L830.103 334.123L816.762 347.464L819.977 350.679L833.318 337.338ZM857.455 304.716L850.71 297.971L846.882 301.799L853.627 308.544L847.263 314.908L850.992 318.637L857.356 312.273L864.449 319.366L868.277 315.538L861.184 308.445L867.531 302.097L863.802 298.368L857.455 304.716Z" fill="#7936CE"/>
<path d="M313.435 440.727L306.689 433.982L302.861 437.81L309.606 444.555L303.242 450.919L306.971 454.648L313.335 448.284L320.428 455.377L324.257 451.549L317.164 444.456L323.511 438.108L319.782 434.379L313.435 440.727ZM357.26 405.387L354.045 402.172L340.704 415.513L343.919 418.728L357.26 405.387ZM381.396 372.765L374.651 366.02L370.823 369.848L377.568 376.593L371.204 382.957L374.933 386.686L381.297 380.322L388.39 387.415L392.218 383.587L385.125 376.494L391.473 370.146L387.744 366.418L381.396 372.765ZM425.222 337.425L422.006 334.21L408.665 347.551L411.88 350.766L425.222 337.425ZM449.358 304.803L442.613 298.058L438.785 301.886L445.53 308.631L439.166 314.995L442.895 318.724L449.259 312.36L456.352 319.454L460.18 315.625L453.087 308.532L459.435 302.185L455.706 298.456L449.358 304.803ZM493.183 269.463L489.968 266.248L476.627 279.589L479.842 282.804L493.183 269.463ZM517.32 236.841L510.575 230.096L506.747 233.925L513.492 240.67L507.128 247.034L510.857 250.763L517.221 244.399L524.314 251.492L528.142 247.663L521.049 240.57L527.396 234.223L523.667 230.494L517.32 236.841ZM561.145 201.501L557.93 198.286L544.589 211.627L547.804 214.843L561.145 201.501ZM585.282 168.88L578.537 162.134L574.708 165.963L581.454 172.708L575.09 179.072L578.818 182.801L585.182 176.437L592.276 183.53L596.104 179.702L589.011 172.608L595.358 166.261L591.629 162.532L585.282 168.88ZM629.107 133.54L625.892 130.325L612.551 143.666L615.766 146.881L629.107 133.54ZM653.244 100.918L646.498 94.1726L642.67 98.0009L649.415 104.746L643.051 111.11L646.78 114.839L653.144 108.475L660.237 115.568L664.066 111.74L656.973 104.647L663.32 98.2992L659.591 94.5703L653.244 100.918Z" fill="#7936CE"/>
<path d="M520.99 241.636L527.736 234.891L523.907 231.062L517.162 237.808L510.798 231.444L507.069 235.173L513.433 241.536L506.34 248.63L510.168 252.458L517.262 245.365L523.609 251.712L527.338 247.983L520.99 241.636ZM556.33 285.461L559.545 282.246L546.204 268.905L542.989 272.12L556.33 285.461ZM588.952 309.598L595.697 302.853L591.869 299.024L585.124 305.769L578.76 299.405L575.031 303.134L581.395 309.498L574.302 316.591L578.13 320.42L585.223 313.327L591.571 319.674L595.3 315.945L588.952 309.598ZM624.292 353.423L627.507 350.208L614.166 336.867L610.951 340.082L624.292 353.423ZM656.914 377.56L663.659 370.814L659.831 366.986L653.086 373.731L646.722 367.367L642.993 371.096L649.357 377.46L642.264 384.553L646.092 388.382L653.185 381.288L659.533 387.636L663.261 383.907L656.914 377.56ZM692.254 421.385L695.469 418.17L682.128 404.828L678.913 408.044L692.254 421.385ZM724.876 445.521L731.621 438.776L727.793 434.948L721.047 441.693L714.684 435.329L710.955 439.058L717.319 445.422L710.225 452.515L714.054 456.343L721.147 449.25L727.494 455.598L731.223 451.869L724.876 445.521ZM760.216 489.346L763.431 486.131L750.09 472.79L746.875 476.005L760.216 489.346Z" fill="#7936CE"/>
<path d="M588.165 173.046L594.911 166.301L591.082 162.473L584.337 169.218L577.973 162.854L574.244 166.583L580.608 172.947L573.515 180.04L577.343 183.868L584.437 176.775L590.784 183.123L594.513 179.394L588.165 173.046ZM623.505 216.872L626.72 213.656L613.379 200.315L610.164 203.53L623.505 216.872ZM656.127 241.008L662.872 234.263L659.044 230.435L652.299 237.18L645.935 230.816L642.206 234.545L648.57 240.909L641.477 248.002L645.305 251.83L652.398 244.737L658.746 251.085L662.475 247.356L656.127 241.008ZM691.467 284.833L694.682 281.618L681.341 268.277L678.126 271.492L691.467 284.833ZM724.089 308.97L730.834 302.225L727.006 298.397L720.261 305.142L713.897 298.778L710.168 302.507L716.532 308.871L709.439 315.964L713.267 319.792L720.36 312.699L726.708 319.046L730.436 315.317L724.089 308.97ZM759.429 352.795L762.644 349.58L749.303 336.239L746.088 339.454L759.429 352.795ZM792.051 376.932L798.796 370.187L794.968 366.358L788.223 373.104L781.859 366.74L778.13 370.468L784.494 376.832L777.4 383.926L781.229 387.754L788.322 380.661L794.669 387.008L798.398 383.279L792.051 376.932ZM827.391 420.757L830.606 417.542L817.265 404.201L814.05 407.416L827.391 420.757Z" fill="#7936CE"/>
<path d="M656.755 105.871L663.5 99.1262L659.672 95.2979L652.927 102.043L646.563 95.6791L642.834 99.4079L649.198 105.772L642.105 112.865L645.933 116.693L653.026 109.6L659.373 115.948L663.102 112.219L656.755 105.871ZM692.095 149.696L695.31 146.481L681.969 133.14L678.754 136.355L692.095 149.696ZM724.717 173.833L731.462 167.088L727.634 163.26L720.888 170.005L714.524 163.641L710.796 167.37L717.16 173.734L710.066 180.827L713.895 184.655L720.988 177.562L727.335 183.909L731.064 180.181L724.717 173.833ZM760.057 217.658L763.272 214.443L749.931 201.102L746.715 204.317L760.057 217.658ZM792.679 241.795L799.424 235.05L795.595 231.221L788.85 237.967L782.486 231.603L778.757 235.332L785.121 241.695L778.028 248.789L781.856 252.617L788.95 245.524L795.297 251.871L799.026 248.142L792.679 241.795ZM828.018 285.62L831.234 282.405L817.892 269.064L814.677 272.279L828.018 285.62ZM860.64 309.757L867.385 303.012L863.557 299.183L856.812 305.928L850.448 299.564L846.719 303.293L853.083 309.657L845.99 316.75L849.818 320.579L856.911 313.486L863.259 319.833L866.988 316.104L860.64 309.757ZM895.98 353.582L899.195 350.367L885.854 337.026L882.639 340.241L895.98 353.582Z" fill="#7936CE"/>
<path d="M453.108 309.518L459.853 302.773L456.025 298.945L449.28 305.69L442.916 299.326L439.187 303.055L445.551 309.419L438.458 316.512L442.286 320.34L449.379 313.247L455.727 319.594L459.455 315.866L453.108 309.518ZM488.448 353.343L491.663 350.128L478.322 336.787L475.107 340.002L488.448 353.343ZM521.07 377.48L527.815 370.735L523.987 366.906L517.242 373.652L510.878 367.288L507.149 371.017L513.513 377.38L506.42 384.474L510.248 388.302L517.341 381.209L523.688 387.556L527.417 383.827L521.07 377.48ZM556.41 421.305L559.625 418.09L546.284 404.749L543.069 407.964L556.41 421.305ZM589.032 445.442L595.777 438.697L591.949 434.868L585.203 441.613L578.839 435.249L575.111 438.978L581.474 445.342L574.381 452.435L578.21 456.264L585.303 449.171L591.65 455.518L595.379 451.789L589.032 445.442ZM624.372 489.267L627.587 486.052L614.246 472.711L611.03 475.926L624.372 489.267ZM656.993 513.404L663.739 506.658L659.91 502.83L653.165 509.575L646.801 503.211L643.072 506.94L649.436 513.304L642.343 520.397L646.171 524.226L653.265 517.132L659.612 523.48L663.341 519.751L656.993 513.404ZM692.333 557.229L695.548 554.014L682.207 540.672L678.992 543.888L692.333 557.229Z" fill="#7936CE"/>
<path d="M385.226 377.4L391.971 370.655L388.143 366.827L381.398 373.572L375.034 367.208L371.305 370.937L377.669 377.301L370.576 384.394L374.404 388.222L381.497 381.129L387.844 387.477L391.573 383.748L385.226 377.4ZM420.566 421.226L423.781 418.01L410.44 404.669L407.225 407.884L420.566 421.226ZM453.188 445.362L459.933 438.617L456.105 434.789L449.359 441.534L442.995 435.17L439.267 438.899L445.63 445.263L438.537 452.356L442.366 456.184L449.459 449.091L455.806 455.439L459.535 451.71L453.188 445.362ZM488.528 489.187L491.743 485.972L478.402 472.631L475.186 475.846L488.528 489.187ZM521.149 513.324L527.895 506.579L524.066 502.751L517.321 509.496L510.957 503.132L507.228 506.861L513.592 513.225L506.499 520.318L510.327 524.146L517.421 517.053L523.768 523.4L527.497 519.671L521.149 513.324ZM556.489 557.149L559.704 553.934L546.363 540.593L543.148 543.808L556.489 557.149ZM589.111 581.286L595.856 574.541L592.028 570.712L585.283 577.458L578.919 571.094L575.19 574.822L581.554 581.186L574.461 588.28L578.289 592.108L585.382 585.015L591.73 591.362L595.459 587.633L589.111 581.286Z" fill="#7936CE"/>
<path d="M316.637 444.575L323.382 437.83L319.553 434.002L312.808 440.747L306.444 434.383L302.715 438.112L309.079 444.476L301.986 451.569L305.814 455.398L312.908 448.304L319.255 454.652L322.984 450.923L316.637 444.575ZM351.976 488.401L355.192 485.186L341.85 471.844L338.635 475.06L351.976 488.401ZM384.598 512.537L391.343 505.792L387.515 501.964L380.77 508.709L374.406 502.345L370.677 506.074L377.041 512.438L369.948 519.531L373.776 523.359L380.869 516.266L387.217 522.614L390.946 518.885L384.598 512.537ZM419.938 556.362L423.153 553.147L409.812 539.806L406.597 543.021L419.938 556.362ZM452.56 580.499L459.305 573.754L455.477 569.926L448.732 576.671L442.368 570.307L438.639 574.036L445.003 580.4L437.91 587.493L441.738 591.321L448.831 584.228L455.179 590.575L458.908 586.846L452.56 580.499ZM487.9 624.324L491.115 621.109L477.774 607.768L474.559 610.983L487.9 624.324ZM520.522 648.461L527.267 641.716L523.439 637.887L516.694 644.633L510.33 638.269L506.601 641.997L512.965 648.361L505.872 655.455L509.7 659.283L516.793 652.19L523.14 658.537L526.869 654.808L520.522 648.461Z" fill="#7936CE"/>
<path d="M721.252 577.915L714.507 571.17L710.679 574.998L717.424 581.743L711.06 588.107L714.789 591.836L721.153 585.472L728.246 592.565L732.074 588.737L724.981 581.644L731.328 575.296L727.6 571.567L721.252 577.915ZM765.077 542.575L761.862 539.36L748.521 552.701L751.736 555.916L765.077 542.575ZM789.214 509.953L782.469 503.208L778.64 507.036L785.386 513.781L779.022 520.145L782.751 523.874L789.114 517.51L796.208 524.603L800.036 520.775L792.943 513.682L799.29 507.335L795.561 503.606L789.214 509.953ZM833.039 474.613L829.824 471.398L816.483 484.739L819.698 487.954L833.039 474.613ZM857.176 441.991L850.431 435.246L846.602 439.074L853.347 445.82L846.983 452.184L850.712 455.912L857.076 449.548L864.169 456.642L867.998 452.813L860.905 445.72L867.252 439.373L863.523 435.644L857.176 441.991ZM901.001 406.651L897.786 403.436L884.445 416.777L887.66 419.992L901.001 406.651ZM925.138 374.029L918.392 367.284L914.564 371.113L921.309 377.858L914.945 384.222L918.674 387.951L925.038 381.587L932.131 388.68L935.96 384.851L928.866 377.758L935.214 371.411L931.485 367.682L925.138 374.029ZM968.963 338.69L965.748 335.474L952.406 348.816L955.622 352.031L968.963 338.69ZM993.099 306.068L986.354 299.322L982.526 303.151L989.271 309.896L982.907 316.26L986.636 319.989L993 313.625L1000.09 320.718L1003.92 316.89L996.828 309.797L1003.18 303.449L999.447 299.72L993.099 306.068ZM1036.92 270.728L1033.71 267.513L1020.37 280.854L1023.58 284.069L1036.92 270.728ZM1061.06 238.106L1054.32 231.361L1050.49 235.189L1057.23 241.934L1050.87 248.298L1054.6 252.027L1060.96 245.663L1068.05 252.756L1071.88 248.928L1064.79 241.835L1071.14 235.487L1067.41 231.758L1061.06 238.106Z" fill="#7936CE"/>
<path d="M652.924 510.539L646.179 503.794L642.351 507.622L649.096 514.367L642.732 520.731L646.461 524.46L652.825 518.096L659.918 525.189L663.746 521.361L656.653 514.268L663.001 507.921L659.272 504.192L652.924 510.539ZM696.749 475.199L693.534 471.984L680.193 485.325L683.408 488.54L696.749 475.199ZM720.886 442.577L714.141 435.832L710.313 439.661L717.058 446.406L710.694 452.77L714.423 456.498L720.787 450.135L727.88 457.228L731.708 453.399L724.615 446.306L730.962 439.959L727.233 436.23L720.886 442.577ZM764.711 407.237L761.496 404.022L748.155 417.363L751.37 420.579L764.711 407.237ZM788.848 374.616L782.103 367.87L778.274 371.699L785.02 378.444L778.656 384.808L782.384 388.537L788.748 382.173L795.842 389.266L799.67 385.438L792.577 378.344L798.924 371.997L795.195 368.268L788.848 374.616ZM832.673 339.276L829.458 336.061L816.117 349.402L819.332 352.617L832.673 339.276ZM856.81 306.654L850.065 299.909L846.236 303.737L852.981 310.482L846.617 316.846L850.346 320.575L856.71 314.211L863.803 321.304L867.632 317.476L860.539 310.383L866.886 304.035L863.157 300.306L856.81 306.654ZM900.635 271.314L897.42 268.099L884.079 281.44L887.294 284.655L900.635 271.314ZM924.771 238.692L918.026 231.947L914.198 235.775L920.943 242.52L914.579 248.884L918.308 252.613L924.672 246.249L931.765 253.342L935.594 249.514L928.5 242.421L934.848 236.073L931.119 232.345L924.771 238.692ZM968.597 203.352L965.381 200.137L952.04 213.478L955.255 216.693L968.597 203.352ZM992.733 170.73L985.988 163.985L982.16 167.813L988.905 174.558L982.541 180.922L986.27 184.651L992.634 178.287L999.727 185.38L1003.56 181.552L996.462 174.459L1002.81 168.112L999.081 164.383L992.733 170.73Z" fill="#7936CE"/>
<path d="M789.646 645.525L782.901 638.78L779.073 642.608L785.818 649.353L779.454 655.717L783.183 659.446L789.547 653.082L796.64 660.175L800.468 656.347L793.375 649.254L799.722 642.906L795.993 639.177L789.646 645.525ZM833.471 610.185L830.256 606.97L816.915 620.311L820.13 623.526L833.471 610.185ZM857.608 577.563L850.863 570.818L847.034 574.646L853.78 581.391L847.416 587.755L851.144 591.484L857.508 585.12L864.602 592.213L868.43 588.385L861.337 581.292L867.684 574.945L863.955 571.216L857.608 577.563ZM901.433 542.223L898.218 539.008L884.877 552.349L888.092 555.564L901.433 542.223ZM925.57 509.601L918.825 502.856L914.996 506.684L921.741 513.43L915.377 519.794L919.106 523.522L925.47 517.158L932.563 524.252L936.392 520.423L929.299 513.33L935.646 506.983L931.917 503.254L925.57 509.601ZM969.395 474.261L966.18 471.046L952.839 484.387L956.054 487.602L969.395 474.261ZM993.531 441.639L986.786 434.894L982.958 438.723L989.703 445.468L983.339 451.832L987.068 455.561L993.432 449.197L1000.53 456.29L1004.35 452.461L997.26 445.368L1003.61 439.021L999.879 435.292L993.531 441.639ZM1037.36 406.3L1034.14 403.084L1020.8 416.426L1024.02 419.641L1037.36 406.3ZM1061.49 373.678L1054.75 366.932L1050.92 370.761L1057.66 377.506L1051.3 383.87L1055.03 387.599L1061.39 381.235L1068.49 388.328L1072.32 384.5L1065.22 377.406L1071.57 371.059L1067.84 367.33L1061.49 373.678ZM1105.32 338.338L1102.1 335.123L1088.76 348.464L1091.98 351.679L1105.32 338.338ZM1129.46 305.716L1122.71 298.971L1118.88 302.799L1125.63 309.544L1119.26 315.908L1122.99 319.637L1129.36 313.273L1136.45 320.366L1140.28 316.538L1133.18 309.445L1139.53 303.097L1135.8 299.368L1129.46 305.716Z" fill="#7936CE"/>
<path d="M585.435 441.727L578.689 434.982L574.861 438.81L581.606 445.555L575.242 451.919L578.971 455.648L585.335 449.284L592.428 456.377L596.257 452.549L589.164 445.456L595.511 439.108L591.782 435.379L585.435 441.727ZM629.26 406.387L626.045 403.172L612.704 416.513L615.919 419.728L629.26 406.387ZM653.396 373.765L646.651 367.02L642.823 370.848L649.568 377.593L643.204 383.957L646.933 387.686L653.297 381.322L660.39 388.415L664.218 384.587L657.125 377.494L663.473 371.146L659.744 367.418L653.396 373.765ZM697.222 338.425L694.006 335.21L680.665 348.551L683.88 351.766L697.222 338.425ZM721.358 305.803L714.613 299.058L710.785 302.886L717.53 309.631L711.166 315.995L714.895 319.724L721.259 313.36L728.352 320.454L732.18 316.625L725.087 309.532L731.435 303.185L727.706 299.456L721.358 305.803ZM765.183 270.463L761.968 267.248L748.627 280.589L751.842 283.804L765.183 270.463ZM789.32 237.841L782.575 231.096L778.747 234.925L785.492 241.67L779.128 248.034L782.857 251.763L789.221 245.399L796.314 252.492L800.142 248.663L793.049 241.57L799.396 235.223L795.667 231.494L789.32 237.841ZM833.145 202.501L829.93 199.286L816.589 212.627L819.804 215.843L833.145 202.501ZM857.282 169.88L850.537 163.134L846.708 166.963L853.454 173.708L847.09 180.072L850.818 183.801L857.182 177.437L864.276 184.53L868.104 180.702L861.011 173.608L867.358 167.261L863.629 163.532L857.282 169.88ZM901.107 134.54L897.892 131.325L884.551 144.666L887.766 147.881L901.107 134.54ZM925.244 101.918L918.498 95.1726L914.67 99.0009L921.415 105.746L915.051 112.11L918.78 115.839L925.144 109.475L932.237 116.568L936.066 112.74L928.973 105.647L935.32 99.2992L931.591 95.5703L925.244 101.918Z" fill="#7936CE"/>
<path d="M792.99 242.636L799.736 235.891L795.907 232.062L789.162 238.808L782.798 232.444L779.069 236.173L785.433 242.536L778.34 249.63L782.168 253.458L789.262 246.365L795.609 252.712L799.338 248.983L792.99 242.636ZM828.33 286.461L831.545 283.246L818.204 269.905L814.989 273.12L828.33 286.461ZM860.952 310.598L867.697 303.853L863.869 300.024L857.124 306.769L850.76 300.405L847.031 304.134L853.395 310.498L846.302 317.591L850.13 321.42L857.223 314.327L863.571 320.674L867.3 316.945L860.952 310.598ZM896.292 354.423L899.507 351.208L886.166 337.867L882.951 341.082L896.292 354.423ZM928.914 378.56L935.659 371.814L931.831 367.986L925.086 374.731L918.722 368.367L914.993 372.096L921.357 378.46L914.264 385.553L918.092 389.382L925.185 382.288L931.533 388.636L935.261 384.907L928.914 378.56ZM964.254 422.385L967.469 419.17L954.128 405.828L950.913 409.044L964.254 422.385ZM996.876 446.521L1003.62 439.776L999.793 435.948L993.047 442.693L986.684 436.329L982.955 440.058L989.319 446.422L982.225 453.515L986.054 457.343L993.147 450.25L999.494 456.598L1003.22 452.869L996.876 446.521ZM1032.22 490.346L1035.43 487.131L1022.09 473.79L1018.87 477.005L1032.22 490.346Z" fill="#7936CE"/>
<path d="M860.165 174.046L866.911 167.301L863.082 163.473L856.337 170.218L849.973 163.854L846.244 167.583L852.608 173.947L845.515 181.04L849.343 184.868L856.437 177.775L862.784 184.123L866.513 180.394L860.165 174.046ZM895.505 217.872L898.72 214.656L885.379 201.315L882.164 204.53L895.505 217.872ZM928.127 242.008L934.872 235.263L931.044 231.435L924.299 238.18L917.935 231.816L914.206 235.545L920.57 241.909L913.477 249.002L917.305 252.83L924.398 245.737L930.746 252.085L934.475 248.356L928.127 242.008ZM963.467 285.833L966.682 282.618L953.341 269.277L950.126 272.492L963.467 285.833ZM996.089 309.97L1002.83 303.225L999.006 299.397L992.261 306.142L985.897 299.778L982.168 303.507L988.532 309.871L981.439 316.964L985.267 320.792L992.36 313.699L998.708 320.046L1002.44 316.317L996.089 309.97ZM1031.43 353.795L1034.64 350.58L1021.3 337.239L1018.09 340.454L1031.43 353.795ZM1064.05 377.932L1070.8 371.187L1066.97 367.358L1060.22 374.104L1053.86 367.74L1050.13 371.468L1056.49 377.832L1049.4 384.926L1053.23 388.754L1060.32 381.661L1066.67 388.008L1070.4 384.279L1064.05 377.932ZM1099.39 421.757L1102.61 418.542L1089.26 405.201L1086.05 408.416L1099.39 421.757Z" fill="#7936CE"/>
<path d="M928.755 106.871L935.5 100.126L931.672 96.2979L924.927 103.043L918.563 96.6791L914.834 100.408L921.198 106.772L914.104 113.865L917.933 117.693L925.026 110.6L931.373 116.948L935.102 113.219L928.755 106.871ZM964.095 150.696L967.31 147.481L953.969 134.14L950.754 137.355L964.095 150.696ZM996.717 174.833L1003.46 168.088L999.633 164.26L992.888 171.005L986.524 164.641L982.795 168.37L989.159 174.734L982.066 181.827L985.895 185.655L992.988 178.562L999.335 184.909L1003.06 181.181L996.717 174.833ZM1032.06 218.658L1035.27 215.443L1021.93 202.102L1018.72 205.317L1032.06 218.658ZM1064.68 242.795L1071.42 236.05L1067.6 232.221L1060.85 238.967L1054.49 232.603L1050.76 236.332L1057.12 242.695L1050.03 249.789L1053.86 253.617L1060.95 246.524L1067.3 252.871L1071.03 249.142L1064.68 242.795ZM1100.02 286.62L1103.23 283.405L1089.89 270.064L1086.68 273.279L1100.02 286.62ZM1132.64 310.757L1139.39 304.012L1135.56 300.183L1128.81 306.928L1122.45 300.564L1118.72 304.293L1125.08 310.657L1117.99 317.75L1121.82 321.579L1128.91 314.486L1135.26 320.833L1138.99 317.104L1132.64 310.757ZM1167.98 354.582L1171.2 351.367L1157.85 338.026L1154.64 341.241L1167.98 354.582Z" fill="#7936CE"/>
<path d="M725.108 310.518L731.853 303.773L728.025 299.945L721.28 306.69L714.916 300.326L711.187 304.055L717.551 310.419L710.458 317.512L714.286 321.34L721.379 314.247L727.727 320.594L731.455 316.866L725.108 310.518ZM760.448 354.343L763.663 351.128L750.322 337.787L747.107 341.002L760.448 354.343ZM793.07 378.48L799.815 371.735L795.987 367.906L789.242 374.652L782.878 368.288L779.149 372.017L785.513 378.38L778.42 385.474L782.248 389.302L789.341 382.209L795.688 388.556L799.417 384.827L793.07 378.48ZM828.41 422.305L831.625 419.09L818.284 405.749L815.069 408.964L828.41 422.305ZM861.032 446.442L867.777 439.697L863.949 435.868L857.203 442.613L850.839 436.249L847.111 439.978L853.474 446.342L846.381 453.435L850.21 457.264L857.303 450.171L863.65 456.518L867.379 452.789L861.032 446.442ZM896.372 490.267L899.587 487.052L886.246 473.711L883.03 476.926L896.372 490.267ZM928.993 514.404L935.739 507.658L931.91 503.83L925.165 510.575L918.801 504.211L915.072 507.94L921.436 514.304L914.343 521.397L918.171 525.226L925.265 518.132L931.612 524.48L935.341 520.751L928.993 514.404ZM964.333 558.229L967.548 555.014L954.207 541.672L950.992 544.888L964.333 558.229Z" fill="#7936CE"/>
<path d="M657.226 378.4L663.971 371.655L660.143 367.827L653.398 374.572L647.034 368.208L643.305 371.937L649.669 378.301L642.576 385.394L646.404 389.222L653.497 382.129L659.844 388.477L663.573 384.748L657.226 378.4ZM692.566 422.226L695.781 419.01L682.44 405.669L679.225 408.884L692.566 422.226ZM725.188 446.362L731.933 439.617L728.105 435.789L721.359 442.534L714.995 436.17L711.267 439.899L717.63 446.263L710.537 453.356L714.366 457.184L721.459 450.091L727.806 456.439L731.535 452.71L725.188 446.362ZM760.528 490.187L763.743 486.972L750.402 473.631L747.186 476.846L760.528 490.187ZM793.149 514.324L799.895 507.579L796.066 503.751L789.321 510.496L782.957 504.132L779.228 507.861L785.592 514.225L778.499 521.318L782.327 525.146L789.421 518.053L795.768 524.4L799.497 520.671L793.149 514.324ZM828.489 558.149L831.704 554.934L818.363 541.593L815.148 544.808L828.489 558.149ZM861.111 582.286L867.856 575.541L864.028 571.712L857.283 578.458L850.919 572.094L847.19 575.822L853.554 582.186L846.461 589.28L850.289 593.108L857.382 586.015L863.73 592.362L867.459 588.633L861.111 582.286ZM896.451 626.111L899.666 622.896L886.325 609.555L883.11 612.77L896.451 626.111Z" fill="#7936CE"/>
<path d="M588.637 445.575L595.382 438.83L591.553 435.002L584.808 441.747L578.444 435.383L574.715 439.112L581.079 445.476L573.986 452.569L577.814 456.398L584.908 449.304L591.255 455.652L594.984 451.923L588.637 445.575ZM623.976 489.401L627.192 486.186L613.85 472.844L610.635 476.06L623.976 489.401ZM656.598 513.537L663.343 506.792L659.515 502.964L652.77 509.709L646.406 503.345L642.677 507.074L649.041 513.438L641.948 520.531L645.776 524.359L652.869 517.266L659.217 523.614L662.946 519.885L656.598 513.537ZM691.938 557.362L695.153 554.147L681.812 540.806L678.597 544.021L691.938 557.362ZM724.56 581.499L731.305 574.754L727.477 570.926L720.732 577.671L714.368 571.307L710.639 575.036L717.003 581.4L709.91 588.493L713.738 592.321L720.831 585.228L727.179 591.575L730.908 587.846L724.56 581.499ZM759.9 625.324L763.115 622.109L749.774 608.768L746.559 611.983L759.9 625.324ZM792.522 649.461L799.267 642.716L795.439 638.887L788.694 645.633L782.33 639.269L778.601 642.997L784.965 649.361L777.872 656.455L781.7 660.283L788.793 653.19L795.14 659.537L798.869 655.808L792.522 649.461Z" fill="#7936CE"/>
</svg>
