<svg width="2452" height="964" viewBox="0 0 2452 964" fill="none" xmlns="http://www.w3.org/2000/svg">
<path d="M1102.62 963.5L2446.5 963.5C2449.26 963.5 2451.5 961.261 2451.5 958.5L2451.5 5.99994C2451.5 3.23853 2449.26 0.999939 2446.5 0.999939L1516.52 0.999796C1514.53 0.999796 1512.73 2.18101 1511.93 4.00712L1098.04 956.507C1096.6 959.809 1099.02 963.5 1102.62 963.5Z" fill="url(#paint0_linear_72_342)"/>
<path d="M1408.35 0H5C2.23858 0 0 2.23857 0 4.99999V958C0 960.761 2.23861 963 5.00003 963H990.591C992.576 963 994.373 961.826 995.17 960.007L1412.93 7.0074C1414.38 3.70358 1411.96 0 1408.35 0Z" fill="url(#paint1_linear_72_342)"/>
<defs>
<linearGradient id="paint0_linear_72_342" x1="1690" y1="963.5" x2="1690" y2="0.999826" gradientUnits="userSpaceOnUse">
<stop stop-color="#2B9346" stop-opacity="0.95"/>
<stop offset="1" stop-color="#2B5436" stop-opacity="0.02"/>
</linearGradient>
<linearGradient id="paint1_linear_72_342" x1="708" y1="0" x2="708" y2="963" gradientUnits="userSpaceOnUse">
<stop stop-color="#672BB5"/>
<stop offset="1" stop-color="#672BB5" stop-opacity="0.05"/>
</linearGradient>
</defs>
</svg>
