<svg width="109" height="109" viewBox="0 0 109 109" fill="none" xmlns="http://www.w3.org/2000/svg">
<path d="M8.38461 79.6539C8.38461 81.9692 6.50766 83.8462 4.19231 83.8462C1.87696 83.8462 0 81.9692 0 79.6539C0 77.3385 1.87696 75.4615 4.19231 75.4615C6.50766 75.4615 8.38461 77.3385 8.38461 79.6539Z" fill="#4A2080"/>
<path d="M8.38461 104.808C8.38461 107.123 6.50766 109 4.19231 109C1.87696 109 0 107.123 0 104.808C0 102.492 1.87696 100.615 4.19231 100.615C6.50766 100.615 8.38461 102.492 8.38461 104.808Z" fill="#4A2080"/>
<path d="M33.5385 29.3462C33.5385 31.6615 31.6615 33.5385 29.3462 33.5385C27.0308 33.5385 25.1538 31.6615 25.1538 29.3462C25.1538 27.0308 27.0308 25.1538 29.3462 25.1538C31.6615 25.1538 33.5385 27.0308 33.5385 29.3462Z" fill="#4A2080"/>
<path d="M33.5385 54.5C33.5385 56.8154 31.6615 58.6923 29.3462 58.6923C27.0308 58.6923 25.1538 56.8154 25.1538 54.5C25.1538 52.1847 27.0308 50.3077 29.3462 50.3077C31.6615 50.3077 33.5385 52.1847 33.5385 54.5Z" fill="#4A2080"/>
<path d="M33.5385 79.6539C33.5385 81.9692 31.6615 83.8462 29.3462 83.8462C27.0308 83.8462 25.1538 81.9692 25.1538 79.6539C25.1538 77.3385 27.0308 75.4615 29.3462 75.4615C31.6615 75.4615 33.5385 77.3385 33.5385 79.6539Z" fill="#4A2080"/>
<path d="M33.5385 104.808C33.5385 107.123 31.6615 109 29.3462 109C27.0308 109 25.1538 107.123 25.1538 104.808C25.1538 102.492 27.0308 100.615 29.3462 100.615C31.6615 100.615 33.5385 102.492 33.5385 104.808Z" fill="#4A2080"/>
<path d="M58.6923 29.3462C58.6923 31.6615 56.8153 33.5385 54.5 33.5385C52.1846 33.5385 50.3077 31.6615 50.3077 29.3462C50.3077 27.0308 52.1846 25.1538 54.5 25.1538C56.8153 25.1538 58.6923 27.0308 58.6923 29.3462Z" fill="#4A2080"/>
<path d="M58.6923 54.5C58.6923 56.8154 56.8153 58.6923 54.5 58.6923C52.1846 58.6923 50.3077 56.8154 50.3077 54.5C50.3077 52.1847 52.1846 50.3077 54.5 50.3077C56.8153 50.3077 58.6923 52.1847 58.6923 54.5Z" fill="#4A2080"/>
<path d="M58.6923 79.6539C58.6923 81.9692 56.8153 83.8462 54.5 83.8462C52.1846 83.8462 50.3077 81.9692 50.3077 79.6539C50.3077 77.3385 52.1846 75.4615 54.5 75.4615C56.8153 75.4615 58.6923 77.3385 58.6923 79.6539Z" fill="#4A2080"/>
<path d="M58.6923 104.808C58.6923 107.123 56.8153 109 54.5 109C52.1846 109 50.3077 107.123 50.3077 104.808C50.3077 102.492 52.1846 100.615 54.5 100.615C56.8153 100.615 58.6923 102.492 58.6923 104.808Z" fill="#4A2080"/>
<path d="M83.8461 4.19231C83.8461 6.50766 81.9692 8.38462 79.6538 8.38462C77.3385 8.38462 75.4615 6.50766 75.4615 4.19231C75.4615 1.87696 77.3385 0 79.6538 0C81.9692 0 83.8461 1.87696 83.8461 4.19231Z" fill="#4A2080"/>
<path d="M83.8461 29.3462C83.8461 31.6615 81.9692 33.5385 79.6538 33.5385C77.3385 33.5385 75.4615 31.6615 75.4615 29.3462C75.4615 27.0308 77.3385 25.1538 79.6538 25.1538C81.9692 25.1538 83.8461 27.0308 83.8461 29.3462Z" fill="#4A2080"/>
<path d="M83.8461 54.5C83.8461 56.8154 81.9692 58.6923 79.6538 58.6923C77.3385 58.6923 75.4615 56.8154 75.4615 54.5C75.4615 52.1847 77.3385 50.3077 79.6538 50.3077C81.9692 50.3077 83.8461 52.1847 83.8461 54.5Z" fill="#4A2080"/>
<path d="M83.8461 79.6539C83.8461 81.9692 81.9692 83.8462 79.6538 83.8462C77.3385 83.8462 75.4615 81.9692 75.4615 79.6539C75.4615 77.3385 77.3385 75.4615 79.6538 75.4615C81.9692 75.4615 83.8461 77.3385 83.8461 79.6539Z" fill="#4A2080"/>
<path d="M83.8461 104.808C83.8461 107.123 81.9692 109 79.6538 109C77.3385 109 75.4615 107.123 75.4615 104.808C75.4615 102.492 77.3385 100.615 79.6538 100.615C81.9692 100.615 83.8461 102.492 83.8461 104.808Z" fill="#4A2080"/>
<path d="M109 4.19231C109 6.50766 107.123 8.38462 104.808 8.38462C102.492 8.38462 100.615 6.50766 100.615 4.19231C100.615 1.87696 102.492 0 104.808 0C107.123 0 109 1.87696 109 4.19231Z" fill="#4A2080"/>
<path d="M109 29.3462C109 31.6615 107.123 33.5385 104.808 33.5385C102.492 33.5385 100.615 31.6615 100.615 29.3462C100.615 27.0308 102.492 25.1538 104.808 25.1538C107.123 25.1538 109 27.0308 109 29.3462Z" fill="#4A2080"/>
<path d="M109 54.5C109 56.8154 107.123 58.6923 104.808 58.6923C102.492 58.6923 100.615 56.8154 100.615 54.5C100.615 52.1847 102.492 50.3077 104.808 50.3077C107.123 50.3077 109 52.1847 109 54.5Z" fill="#4A2080"/>
<path d="M109 79.6539C109 81.9692 107.123 83.8462 104.808 83.8462C102.492 83.8462 100.615 81.9692 100.615 79.6539C100.615 77.3385 102.492 75.4615 104.808 75.4615C107.123 75.4615 109 77.3385 109 79.6539Z" fill="#4A2080"/>
<path d="M109 104.808C109 107.123 107.123 109 104.808 109C102.492 109 100.615 107.123 100.615 104.808C100.615 102.492 102.492 100.615 104.808 100.615C107.123 100.615 109 102.492 109 104.808Z" fill="#4A2080"/>
</svg>
