<svg width="42" height="34" viewBox="0 0 42 34" fill="none" xmlns="http://www.w3.org/2000/svg">
<path d="M15.3 15.1L13.6 19L9.70005 20.7L13.6 22.4L15.3 26.3L17 22.4L20.9 20.7L17 19L15.3 15.1ZM28.6 14.5L27.35 17.2L24.65 18.45L27.35 19.7L28.6 22.4L29.85 19.7L32.55 18.45L29.85 17.2L28.6 14.5ZM4.25005 0.25L7.95005 7.85H14.45L10.75 0.25H15.2L18.9 7.85H25.4L21.7001 0.25H26.15L29.85 7.85H36.35L32.6501 0.25H37.75C38.85 0.25 39.7917 0.641667 40.5751 1.425C41.3584 2.20833 41.75 3.15 41.75 4.25V29.75C41.75 30.8167 41.3584 31.7417 40.5751 32.525C39.7917 33.3083 38.85 33.7 37.75 33.7H4.25005C3.18338 33.7 2.25838 33.325 1.47505 32.575C0.691715 31.825 0.300049 30.9 0.300049 29.8V4.25C0.300049 3.15 0.691715 2.20833 1.47505 1.425C2.25838 0.641667 3.18338 0.25 4.25005 0.25Z" fill="url(#paint0_linear_10_268)"/>
<defs>
<linearGradient id="paint0_linear_10_268" x1="21.025" y1="0.25" x2="21.025" y2="33.7" gradientUnits="userSpaceOnUse">
<stop stop-color="#5BDB7C"/>
<stop offset="1" stop-color="#1FCC4C" stop-opacity="0.7"/>
</linearGradient>
</defs>
</svg>
