<svg width="42" height="42" viewBox="0 0 42 42" fill="none" xmlns="http://www.w3.org/2000/svg">
<path d="M20.7 41.45C17.8667 41.45 15.1917 40.9083 12.675 39.825C10.1583 38.7417 7.95833 37.2583 6.075 35.375C4.19167 33.4917 2.70833 31.2917 1.625 28.775C0.541667 26.2583 0 23.5833 0 20.75C0 17.8833 0.541667 15.1917 1.625 12.675C2.70833 10.1583 4.19167 7.96667 6.075 6.1C7.95833 4.23333 10.1583 2.75 12.675 1.65C15.1917 0.55 17.8833 0 20.75 0C23.5833 0 26.2667 0.55 28.8 1.65C31.3333 2.75 33.525 4.23333 35.375 6.1C37.225 7.96667 38.7 10.1583 39.8 12.675C40.9 15.1917 41.45 17.8833 41.45 20.75C41.45 23.5833 40.9 26.2583 39.8 28.775C38.7 31.2917 37.225 33.4917 35.375 35.375C33.525 37.2583 31.3333 38.7417 28.8 39.825C26.2667 40.9083 23.5667 41.45 20.7 41.45ZM20.7 37.5C25.3333 37.5 29.275 35.8917 32.525 32.675C35.775 29.4583 37.4167 25.5667 37.45 21V20.3H31.35L26.6 12.75H14.85L10.1 20.25H4V21C4.03333 25.5667 5.675 29.4583 8.925 32.675C12.175 35.8917 16.1 37.5 20.7 37.5ZM14.5 25.65C13.7333 25.65 13.0833 25.3833 12.55 24.85C12.0167 24.3167 11.75 23.6667 11.75 22.9C11.75 22.1 12.0167 21.4417 12.55 20.925C13.0833 20.4083 13.7333 20.15 14.5 20.15C15.3 20.15 15.9583 20.4167 16.475 20.95C16.9917 21.4833 17.25 22.1333 17.25 22.9C17.25 23.7 16.9833 24.3583 16.45 24.875C15.9167 25.3917 15.2667 25.65 14.5 25.65ZM26.95 25.65C26.15 25.65 25.4917 25.3833 24.975 24.85C24.4583 24.3167 24.2 23.6667 24.2 22.9C24.2 22.1 24.4667 21.4417 25 20.925C25.5333 20.4083 26.1833 20.15 26.95 20.15C27.7167 20.15 28.3667 20.4167 28.9 20.95C29.4333 21.4833 29.7 22.1333 29.7 22.9C29.7 23.7 29.4333 24.3583 28.9 24.875C28.3667 25.3917 27.7167 25.65 26.95 25.65Z" fill="url(#paint0_linear_10_208)"/>
<defs>
<linearGradient id="paint0_linear_10_208" x1="20.725" y1="0" x2="20.725" y2="41.45" gradientUnits="userSpaceOnUse">
<stop stop-color="#5BDB7C"/>
<stop offset="1" stop-color="#1FCC4C" stop-opacity="0.7"/>
</linearGradient>
</defs>
</svg>
