<svg width="1477" height="2032" viewBox="0 0 1477 2032" fill="none" xmlns="http://www.w3.org/2000/svg">
<g filter="url(#filter0_dd_24_32)">
<path d="M4 7.99998C4 5.23855 6.23858 3 9 3H1343C1345.76 3 1348 5.23858 1348 8V1647.68C1348 1649.46 1347.05 1651.11 1345.5 1652.01L698.76 2025.6C697.252 2026.47 695.4 2026.49 693.871 2025.66L6.61158 1651.98C5.002 1651.11 4 1649.42 4 1647.59V7.99998Z" fill="url(#paint0_linear_24_32)"/>
</g>
<path d="M76.3461 1592.62C74.0308 1592.62 72.1538 1594.49 72.1538 1596.81C72.1538 1599.12 74.0308 1601 76.3461 1601C78.6615 1601 80.5385 1599.12 80.5385 1596.81C80.5385 1594.49 78.6615 1592.62 76.3461 1592.62Z" fill="#2B1546"/>
<path d="M51.1923 1592.62C48.877 1592.62 47 1594.49 47 1596.81C47 1599.12 48.877 1601 51.1923 1601C53.5076 1601 55.3846 1599.12 55.3846 1596.81C55.3846 1594.49 53.5076 1592.62 51.1923 1592.62Z" fill="#2B1546"/>
<path d="M126.654 1567.46C124.338 1567.46 122.462 1569.34 122.462 1571.65C122.462 1573.97 124.338 1575.85 126.654 1575.85C128.969 1575.85 130.846 1573.97 130.846 1571.65C130.846 1569.34 128.969 1567.46 126.654 1567.46Z" fill="#2B1546"/>
<path d="M101.5 1567.46C99.1846 1567.46 97.3077 1569.34 97.3077 1571.65C97.3077 1573.97 99.1846 1575.85 101.5 1575.85C103.815 1575.85 105.692 1573.97 105.692 1571.65C105.692 1569.34 103.815 1567.46 101.5 1567.46Z" fill="#2B1546"/>
<path d="M76.3461 1567.46C74.0308 1567.46 72.1538 1569.34 72.1538 1571.65C72.1538 1573.97 74.0308 1575.85 76.3461 1575.85C78.6615 1575.85 80.5385 1573.97 80.5385 1571.65C80.5385 1569.34 78.6615 1567.46 76.3461 1567.46Z" fill="#2B1546"/>
<path d="M51.1923 1567.46C48.877 1567.46 47 1569.34 47 1571.65C47 1573.97 48.877 1575.85 51.1923 1575.85C53.5076 1575.85 55.3846 1573.97 55.3846 1571.65C55.3846 1569.34 53.5076 1567.46 51.1923 1567.46Z" fill="#2B1546"/>
<path d="M126.654 1542.31C124.338 1542.31 122.462 1544.18 122.462 1546.5C122.462 1548.82 124.338 1550.69 126.654 1550.69C128.969 1550.69 130.846 1548.82 130.846 1546.5C130.846 1544.18 128.969 1542.31 126.654 1542.31Z" fill="#2B1546"/>
<path d="M101.5 1542.31C99.1847 1542.31 97.3077 1544.18 97.3077 1546.5C97.3077 1548.82 99.1847 1550.69 101.5 1550.69C103.815 1550.69 105.692 1548.82 105.692 1546.5C105.692 1544.18 103.815 1542.31 101.5 1542.31Z" fill="#2B1546"/>
<path d="M76.3461 1542.31C74.0308 1542.31 72.1538 1544.18 72.1538 1546.5C72.1538 1548.82 74.0308 1550.69 76.3461 1550.69C78.6615 1550.69 80.5385 1548.82 80.5385 1546.5C80.5385 1544.18 78.6615 1542.31 76.3461 1542.31Z" fill="#2B1546"/>
<path d="M51.1923 1542.31C48.877 1542.31 47 1544.18 47 1546.5C47 1548.82 48.877 1550.69 51.1923 1550.69C53.5076 1550.69 55.3846 1548.82 55.3846 1546.5C55.3846 1544.18 53.5076 1542.31 51.1923 1542.31Z" fill="#2B1546"/>
<path d="M151.808 1517.15C149.492 1517.15 147.615 1519.03 147.615 1521.35C147.615 1523.66 149.492 1525.54 151.808 1525.54C154.123 1525.54 156 1523.66 156 1521.35C156 1519.03 154.123 1517.15 151.808 1517.15Z" fill="#2B1546"/>
<path d="M126.654 1517.15C124.339 1517.15 122.462 1519.03 122.462 1521.35C122.462 1523.66 124.339 1525.54 126.654 1525.54C128.969 1525.54 130.846 1523.66 130.846 1521.35C130.846 1519.03 128.969 1517.15 126.654 1517.15Z" fill="#2B1546"/>
<path d="M101.5 1517.15C99.1847 1517.15 97.3077 1519.03 97.3077 1521.35C97.3077 1523.66 99.1847 1525.54 101.5 1525.54C103.815 1525.54 105.692 1523.66 105.692 1521.35C105.692 1519.03 103.815 1517.15 101.5 1517.15Z" fill="#2B1546"/>
<path d="M76.3461 1517.15C74.0308 1517.15 72.1538 1519.03 72.1538 1521.35C72.1538 1523.66 74.0308 1525.54 76.3461 1525.54C78.6615 1525.54 80.5385 1523.66 80.5385 1521.35C80.5385 1519.03 78.6615 1517.15 76.3461 1517.15Z" fill="#2B1546"/>
<path d="M51.1923 1517.15C48.877 1517.15 47 1519.03 47 1521.35C47 1523.66 48.877 1525.54 51.1923 1525.54C53.5077 1525.54 55.3846 1523.66 55.3846 1521.35C55.3846 1519.03 53.5077 1517.15 51.1923 1517.15Z" fill="#2B1546"/>
<path d="M151.808 1492C149.492 1492 147.615 1493.88 147.615 1496.19C147.615 1498.51 149.492 1500.38 151.808 1500.38C154.123 1500.38 156 1498.51 156 1496.19C156 1493.88 154.123 1492 151.808 1492Z" fill="#2B1546"/>
<path d="M126.654 1492C124.339 1492 122.462 1493.88 122.462 1496.19C122.462 1498.51 124.339 1500.38 126.654 1500.38C128.969 1500.38 130.846 1498.51 130.846 1496.19C130.846 1493.88 128.969 1492 126.654 1492Z" fill="#2B1546"/>
<path d="M101.5 1492C99.1847 1492 97.3077 1493.88 97.3077 1496.19C97.3077 1498.51 99.1847 1500.38 101.5 1500.38C103.815 1500.38 105.692 1498.51 105.692 1496.19C105.692 1493.88 103.815 1492 101.5 1492Z" fill="#2B1546"/>
<path d="M76.3462 1492C74.0308 1492 72.1538 1493.88 72.1538 1496.19C72.1538 1498.51 74.0308 1500.38 76.3462 1500.38C78.6615 1500.38 80.5385 1498.51 80.5385 1496.19C80.5385 1493.88 78.6615 1492 76.3462 1492Z" fill="#2B1546"/>
<path d="M51.1923 1492C48.877 1492 47 1493.88 47 1496.19C47 1498.51 48.877 1500.38 51.1923 1500.38C53.5077 1500.38 55.3846 1498.51 55.3846 1496.19C55.3846 1493.88 53.5077 1492 51.1923 1492Z" fill="#2B1546"/>
<defs>
<filter id="filter0_dd_24_32" x="0" y="0" width="1352" height="2031.27" filterUnits="userSpaceOnUse" color-interpolation-filters="sRGB">
<feFlood flood-opacity="0" result="BackgroundImageFix"/>
<feColorMatrix in="SourceAlpha" type="matrix" values="0 0 0 0 0 0 0 0 0 0 0 0 0 0 0 0 0 0 127 0" result="hardAlpha"/>
<feOffset dy="1"/>
<feGaussianBlur stdDeviation="1"/>
<feColorMatrix type="matrix" values="0 0 0 0 0 0 0 0 0 0 0 0 0 0 0 0 0 0 0.3 0"/>
<feBlend mode="normal" in2="BackgroundImageFix" result="effect1_dropShadow_24_32"/>
<feColorMatrix in="SourceAlpha" type="matrix" values="0 0 0 0 0 0 0 0 0 0 0 0 0 0 0 0 0 0 127 0" result="hardAlpha"/>
<feMorphology radius="1" operator="dilate" in="SourceAlpha" result="effect2_dropShadow_24_32"/>
<feOffset dy="1"/>
<feGaussianBlur stdDeviation="1.5"/>
<feColorMatrix type="matrix" values="0 0 0 0 0 0 0 0 0 0 0 0 0 0 0 0 0 0 0.15 0"/>
<feBlend mode="normal" in2="effect1_dropShadow_24_32" result="effect2_dropShadow_24_32"/>
<feBlend mode="normal" in="SourceGraphic" in2="effect2_dropShadow_24_32" result="shape"/>
</filter>
<linearGradient id="paint0_linear_24_32" x1="676" y1="3" x2="676" y2="2027" gradientUnits="userSpaceOnUse">
<stop stop-color="#672BB5"/>
<stop offset="1" stop-color="#672BB5" stop-opacity="0"/>
</linearGradient>
</defs>
</svg>
