<svg width="109" height="109" viewBox="0 0 109 109" fill="none" xmlns="http://www.w3.org/2000/svg">
<path d="M29.3461 100.615C27.0308 100.615 25.1538 102.492 25.1538 104.808C25.1538 107.123 27.0308 109 29.3461 109C31.6615 109 33.5385 107.123 33.5385 104.808C33.5385 102.492 31.6615 100.615 29.3461 100.615Z" fill="#4A2080"/>
<path d="M4.1923 100.615C1.87695 100.615 -7.34494e-06 102.492 -7.44614e-06 104.808C-7.54735e-06 107.123 1.87695 109 4.1923 109C6.50765 109 8.38461 107.123 8.38461 104.808C8.38461 102.492 6.50765 100.615 4.1923 100.615Z" fill="#4A2080"/>
<path d="M79.6538 75.4615C77.3385 75.4615 75.4615 77.3385 75.4615 79.6538C75.4615 81.9692 77.3385 83.8462 79.6538 83.8462C81.9692 83.8462 83.8462 81.9692 83.8462 79.6538C83.8462 77.3385 81.9692 75.4615 79.6538 75.4615Z" fill="#4A2080"/>
<path d="M54.5 75.4615C52.1846 75.4615 50.3077 77.3385 50.3077 79.6538C50.3077 81.9692 52.1846 83.8462 54.5 83.8462C56.8153 83.8462 58.6923 81.9692 58.6923 79.6538C58.6923 77.3385 56.8153 75.4615 54.5 75.4615Z" fill="#4A2080"/>
<path d="M29.3461 75.4615C27.0308 75.4615 25.1538 77.3385 25.1538 79.6538C25.1538 81.9692 27.0308 83.8462 29.3461 83.8462C31.6615 83.8462 33.5385 81.9692 33.5385 79.6538C33.5385 77.3385 31.6615 75.4615 29.3461 75.4615Z" fill="#4A2080"/>
<path d="M4.1923 75.4615C1.87695 75.4615 -6.24543e-06 77.3385 -6.34663e-06 79.6538C-6.44784e-06 81.9692 1.87695 83.8462 4.1923 83.8462C6.50765 83.8462 8.38461 81.9692 8.38461 79.6538C8.38461 77.3385 6.50765 75.4615 4.1923 75.4615Z" fill="#4A2080"/>
<path d="M79.6538 50.3077C77.3385 50.3077 75.4615 52.1847 75.4615 54.5C75.4615 56.8154 77.3385 58.6923 79.6538 58.6923C81.9692 58.6923 83.8462 56.8154 83.8462 54.5C83.8462 52.1847 81.9692 50.3077 79.6538 50.3077Z" fill="#4A2080"/>
<path d="M54.5 50.3077C52.1847 50.3077 50.3077 52.1847 50.3077 54.5C50.3077 56.8153 52.1847 58.6923 54.5 58.6923C56.8153 58.6923 58.6923 56.8153 58.6923 54.5C58.6923 52.1847 56.8153 50.3077 54.5 50.3077Z" fill="#4A2080"/>
<path d="M29.3461 50.3077C27.0308 50.3077 25.1538 52.1847 25.1538 54.5C25.1538 56.8153 27.0308 58.6923 29.3461 58.6923C31.6615 58.6923 33.5385 56.8153 33.5385 54.5C33.5385 52.1847 31.6615 50.3077 29.3461 50.3077Z" fill="#4A2080"/>
<path d="M4.1923 50.3077C1.87695 50.3077 -5.14592e-06 52.1847 -5.24712e-06 54.5C-5.34833e-06 56.8153 1.87695 58.6923 4.1923 58.6923C6.50765 58.6923 8.38462 56.8153 8.38462 54.5C8.38462 52.1847 6.50765 50.3077 4.1923 50.3077Z" fill="#4A2080"/>
<path d="M104.808 25.1539C102.492 25.1539 100.615 27.0308 100.615 29.3462C100.615 31.6615 102.492 33.5385 104.808 33.5385C107.123 33.5385 109 31.6615 109 29.3462C109 27.0308 107.123 25.1539 104.808 25.1539Z" fill="#4A2080"/>
<path d="M79.6538 25.1539C77.3385 25.1539 75.4615 27.0308 75.4615 29.3462C75.4615 31.6615 77.3385 33.5385 79.6538 33.5385C81.9692 33.5385 83.8462 31.6615 83.8462 29.3462C83.8462 27.0308 81.9692 25.1539 79.6538 25.1539Z" fill="#4A2080"/>
<path d="M54.5 25.1539C52.1847 25.1539 50.3077 27.0308 50.3077 29.3462C50.3077 31.6615 52.1847 33.5385 54.5 33.5385C56.8153 33.5385 58.6923 31.6615 58.6923 29.3462C58.6923 27.0308 56.8153 25.1539 54.5 25.1539Z" fill="#4A2080"/>
<path d="M29.3461 25.1539C27.0308 25.1539 25.1538 27.0308 25.1538 29.3462C25.1538 31.6615 27.0308 33.5385 29.3461 33.5385C31.6615 33.5385 33.5385 31.6615 33.5385 29.3462C33.5385 27.0308 31.6615 25.1539 29.3461 25.1539Z" fill="#4A2080"/>
<path d="M4.1923 25.1538C1.87695 25.1538 -4.04641e-06 27.0308 -4.14761e-06 29.3462C-4.24882e-06 31.6615 1.87695 33.5385 4.1923 33.5385C6.50765 33.5385 8.38462 31.6615 8.38462 29.3462C8.38462 27.0308 6.50765 25.1538 4.1923 25.1538Z" fill="#4A2080"/>
<path d="M104.808 7.44614e-06C102.492 7.34494e-06 100.615 1.87697 100.615 4.19231C100.615 6.50766 102.492 8.38462 104.808 8.38462C107.123 8.38462 109 6.50766 109 4.19231C109 1.87697 107.123 7.54735e-06 104.808 7.44614e-06Z" fill="#4A2080"/>
<path d="M79.6538 6.34663e-06C77.3385 6.24543e-06 75.4615 1.87697 75.4615 4.19231C75.4615 6.50766 77.3385 8.38462 79.6538 8.38462C81.9692 8.38462 83.8462 6.50766 83.8462 4.19231C83.8462 1.87697 81.9692 6.44784e-06 79.6538 6.34663e-06Z" fill="#4A2080"/>
<path d="M54.5 5.24712e-06C52.1847 5.14592e-06 50.3077 1.87696 50.3077 4.19231C50.3077 6.50766 52.1847 8.38462 54.5 8.38462C56.8153 8.38462 58.6923 6.50766 58.6923 4.19231C58.6923 1.87696 56.8153 5.34833e-06 54.5 5.24712e-06Z" fill="#4A2080"/>
<path d="M29.3462 4.14761e-06C27.0308 4.04641e-06 25.1538 1.87696 25.1538 4.19231C25.1538 6.50766 27.0308 8.38462 29.3462 8.38462C31.6615 8.38462 33.5385 6.50766 33.5385 4.19231C33.5385 1.87696 31.6615 4.24882e-06 29.3462 4.14761e-06Z" fill="#4A2080"/>
<path d="M4.1923 3.0481e-06C1.87696 2.9469e-06 -2.9469e-06 1.87696 -3.04811e-06 4.19231C-3.14931e-06 6.50766 1.87696 8.38462 4.1923 8.38462C6.50765 8.38462 8.38462 6.50766 8.38462 4.19231C8.38462 1.87696 6.50765 3.14931e-06 4.1923 3.0481e-06Z" fill="#4A2080"/>
</svg>
